solid belt-clamp
facet normal -0.608761429008707 0.793353340291246 0.0
   outer loop
      vertex 5.09999999999999 3.09474411167425 3.99999999999999
      vertex 5.5556349186105 3.4443650813896 0.0
      vertex 5.09999999999999 3.09474411167425 0.0
   endloop
endfacet
facet normal -0.608761429008707 0.793353340291246 0.0
   outer loop
      vertex 5.5556349186105 3.4443650813896 0.0
      vertex 5.09999999999999 3.09474411167425 3.99999999999999
      vertex 5.5556349186105 3.4443650813896 3.99999999999999
   endloop
endfacet
facet normal -0.382683432365038 0.923879532511308 0.0
   outer loop
      vertex 4.56940189922564 2.87496318216412 3.99999999999999
      vertex 5.09999999999999 3.09474411167425 0.0
      vertex 4.56940189922564 2.87496318216412 0.0
   endloop
endfacet
facet normal -0.382683432365038 0.923879532511308 0.0
   outer loop
      vertex 5.09999999999999 3.09474411167425 0.0
      vertex 4.56940189922564 2.87496318216412 3.99999999999999
      vertex 5.09999999999999 3.09474411167425 3.99999999999999
   endloop
endfacet
facet normal -0.793353340291188 0.608761429008783 0.0
   outer loop
      vertex 5.90525588832575 3.90000000000002 3.99999999999999
      vertex 5.5556349186105 3.4443650813896 0.0
      vertex 5.5556349186105 3.4443650813896 3.99999999999999
   endloop
endfacet
facet normal -0.793353340291188 0.608761429008783 0.0
   outer loop
      vertex 5.5556349186105 3.4443650813896 0.0
      vertex 5.90525588832575 3.90000000000002 3.99999999999999
      vertex 5.90525588832575 3.90000000000002 0.0
   endloop
endfacet
facet normal -0.923879532511285 0.382683432365094 0.0
   outer loop
      vertex 6.12503681783589 4.43059810077446 3.99999999999999
      vertex 5.90525588832575 3.90000000000002 0.0
      vertex 5.90525588832575 3.90000000000002 3.99999999999999
   endloop
endfacet
facet normal -0.923879532511285 0.382683432365094 0.0
   outer loop
      vertex 5.90525588832575 3.90000000000002 0.0
      vertex 6.12503681783589 4.43059810077446 3.99999999999999
      vertex 6.12503681783589 4.43059810077446 0.0
   endloop
endfacet
facet normal -0.991444861373824 0.130526192219945 0.0
   outer loop
      vertex 6.19999999999993 4.99999999999994 3.99999999999999
      vertex 6.12503681783589 4.43059810077446 0.0
      vertex 6.12503681783589 4.43059810077446 3.99999999999999
   endloop
endfacet
facet normal -0.991444861373824 0.130526192219945 0.0
   outer loop
      vertex 6.12503681783589 4.43059810077446 0.0
      vertex 6.19999999999993 4.99999999999994 3.99999999999999
      vertex 6.19999999999993 4.99999999999994 0.0
   endloop
endfacet
facet normal -0.991444861373814 -0.130526192220023 0.0
   outer loop
      vertex 6.12503681783589 5.56940189922551 3.99999999999999
      vertex 6.19999999999993 4.99999999999994 0.0
      vertex 6.19999999999993 4.99999999999994 3.99999999999999
   endloop
endfacet
facet normal -0.991444861373814 -0.130526192220023 0.0
   outer loop
      vertex 6.19999999999993 4.99999999999994 0.0
      vertex 6.12503681783589 5.56940189922551 3.99999999999999
      vertex 6.12503681783589 5.56940189922551 0.0
   endloop
endfacet
facet normal -0.923879532511308 -0.382683432365039 0.0
   outer loop
      vertex 5.90525588832576 6.10000000000006 3.99999999999999
      vertex 6.12503681783589 5.56940189922551 0.0
      vertex 6.12503681783589 5.56940189922551 3.99999999999999
   endloop
endfacet
facet normal -0.923879532511308 -0.382683432365039 0.0
   outer loop
      vertex 6.12503681783589 5.56940189922551 0.0
      vertex 5.90525588832576 6.10000000000006 3.99999999999999
      vertex 5.90525588832576 6.10000000000006 0.0
   endloop
endfacet
facet normal -0.793353340291196 -0.608761429008771 0.0
   outer loop
      vertex 5.5556349186105 6.55563491861037 3.99999999999999
      vertex 5.90525588832576 6.10000000000006 0.0
      vertex 5.90525588832576 6.10000000000006 3.99999999999999
   endloop
endfacet
facet normal -0.793353340291196 -0.608761429008771 0.0
   outer loop
      vertex 5.90525588832576 6.10000000000006 0.0
      vertex 5.5556349186105 6.55563491861037 3.99999999999999
      vertex 5.5556349186105 6.55563491861037 0.0
   endloop
endfacet
facet normal -0.608761429008745 -0.793353340291217 0.0
   outer loop
      vertex 5.5556349186105 6.55563491861037 3.99999999999999
      vertex 5.09999999999999 6.90525588832573 0.0
      vertex 5.5556349186105 6.55563491861037 0.0
   endloop
endfacet
facet normal -0.608761429008745 -0.793353340291217 0.0
   outer loop
      vertex 5.09999999999999 6.90525588832573 0.0
      vertex 5.5556349186105 6.55563491861037 3.99999999999999
      vertex 5.09999999999999 6.90525588832573 3.99999999999999
   endloop
endfacet
facet normal -0.382683432365094 -0.923879532511285 0.0
   outer loop
      vertex 5.09999999999999 6.90525588832573 3.99999999999999
      vertex 4.56940189922564 7.12503681783596 0.0
      vertex 5.09999999999999 6.90525588832573 0.0
   endloop
endfacet
facet normal -0.382683432365094 -0.923879532511285 0.0
   outer loop
      vertex 4.56940189922564 7.12503681783596 0.0
      vertex 5.09999999999999 6.90525588832573 3.99999999999999
      vertex 4.56940189922564 7.12503681783596 3.99999999999999
   endloop
endfacet
facet normal -0.130526192220022 -0.991444861373814 0.0
   outer loop
      vertex 4.56940189922564 7.12503681783596 3.99999999999999
      vertex 4.00000000000007 7.19999999999998 0.0
      vertex 4.56940189922564 7.12503681783596 0.0
   endloop
endfacet
facet normal -0.130526192220022 -0.991444861373814 0.0
   outer loop
      vertex 4.00000000000007 7.19999999999998 0.0
      vertex 4.56940189922564 7.12503681783596 3.99999999999999
      vertex 4.00000000000007 7.19999999999998 3.99999999999999
   endloop
endfacet
facet normal 0.130526192220023 -0.991444861373814 0.0
   outer loop
      vertex 4.00000000000007 7.19999999999998 3.99999999999999
      vertex 3.43059810077449 7.12503681783596 0.0
      vertex 4.00000000000007 7.19999999999998 0.0
   endloop
endfacet
facet normal 0.130526192220023 -0.991444861373814 0.0
   outer loop
      vertex 3.43059810077449 7.12503681783596 0.0
      vertex 4.00000000000007 7.19999999999998 3.99999999999999
      vertex 3.43059810077449 7.12503681783596 3.99999999999999
   endloop
endfacet
facet normal 0.382683432364999 -0.923879532511324 0.0
   outer loop
      vertex 3.43059810077449 7.12503681783596 3.99999999999999
      vertex 2.89999999999996 6.90525588832581 0.0
      vertex 3.43059810077449 7.12503681783596 0.0
   endloop
endfacet
facet normal 0.382683432364999 -0.923879532511324 0.0
   outer loop
      vertex 2.89999999999996 6.90525588832581 0.0
      vertex 3.43059810077449 7.12503681783596 3.99999999999999
      vertex 2.89999999999996 6.90525588832581 3.99999999999999
   endloop
endfacet
facet normal 0.608761429008832 -0.793353340291149 0.0
   outer loop
      vertex 2.89999999999996 6.90525588832581 3.99999999999999
      vertex 2.44436508138964 6.55563491861038 0.0
      vertex 2.89999999999996 6.90525588832581 0.0
   endloop
endfacet
facet normal 0.608761429008832 -0.793353340291149 0.0
   outer loop
      vertex 2.44436508138964 6.55563491861038 0.0
      vertex 2.89999999999996 6.90525588832581 3.99999999999999
      vertex 2.44436508138964 6.55563491861038 3.99999999999999
   endloop
endfacet
facet normal 0.793353340291167 -0.608761429008809 0.0
   outer loop
      vertex 2.44436508138964 6.55563491861038 0.0
      vertex 2.09474411167438 6.10000000000005 3.99999999999999
      vertex 2.09474411167438 6.10000000000005 0.0
   endloop
endfacet
facet normal 0.793353340291167 -0.608761429008809 0.0
   outer loop
      vertex 2.09474411167438 6.10000000000005 3.99999999999999
      vertex 2.44436508138964 6.55563491861038 0.0
      vertex 2.44436508138964 6.55563491861038 3.99999999999999
   endloop
endfacet
facet normal 0.923879532511308 -0.382683432365038 0.0
   outer loop
      vertex 2.09474411167438 6.10000000000005 0.0
      vertex 1.87496318216405 5.56940189922551 3.99999999999999
      vertex 1.87496318216405 5.56940189922551 0.0
   endloop
endfacet
facet normal 0.923879532511308 -0.382683432365038 0.0
   outer loop
      vertex 1.87496318216405 5.56940189922551 3.99999999999999
      vertex 2.09474411167438 6.10000000000005 0.0
      vertex 2.09474411167438 6.10000000000005 3.99999999999999
   endloop
endfacet
facet normal -0.991444861373803 0.13052619222011 0.0
   outer loop
      vertex 24.2000000000002 5.00000000000004 3.99999999999999
      vertex 24.1250368178361 4.43059810077455 0.0
      vertex 24.1250368178361 4.43059810077455 3.99999999999999
   endloop
endfacet
facet normal -0.991444861373803 0.13052619222011 0.0
   outer loop
      vertex 24.1250368178361 4.43059810077455 0.0
      vertex 24.2000000000002 5.00000000000004 3.99999999999999
      vertex 24.2000000000002 5.00000000000004 0.0
   endloop
endfacet
facet normal -0.991444861373794 -0.130526192220177 0.0
   outer loop
      vertex 24.125036817836 5.56940189922553 3.99999999999999
      vertex 24.2000000000002 5.00000000000004 0.0
      vertex 24.2000000000002 5.00000000000004 3.99999999999999
   endloop
endfacet
facet normal -0.991444861373794 -0.130526192220177 0.0
   outer loop
      vertex 24.2000000000002 5.00000000000004 0.0
      vertex 24.125036817836 5.56940189922553 3.99999999999999
      vertex 24.125036817836 5.56940189922553 0.0
   endloop
endfacet
facet normal -0.923879532511324 -0.382683432364999 0.0
   outer loop
      vertex 23.9052558883258 6.10000000000005 3.99999999999999
      vertex 24.125036817836 5.56940189922553 0.0
      vertex 24.125036817836 5.56940189922553 3.99999999999999
   endloop
endfacet
facet normal -0.923879532511324 -0.382683432364999 0.0
   outer loop
      vertex 24.125036817836 5.56940189922553 0.0
      vertex 23.9052558883258 6.10000000000005 3.99999999999999
      vertex 23.9052558883258 6.10000000000005 0.0
   endloop
endfacet
facet normal -0.793353340291226 -0.608761429008733 0.0
   outer loop
      vertex 23.5556349186106 6.55563491861039 3.99999999999999
      vertex 23.9052558883258 6.10000000000005 0.0
      vertex 23.9052558883258 6.10000000000005 3.99999999999999
   endloop
endfacet
facet normal -0.793353340291226 -0.608761429008733 0.0
   outer loop
      vertex 23.9052558883258 6.10000000000005 0.0
      vertex 23.5556349186106 6.55563491861039 3.99999999999999
      vertex 23.5556349186106 6.55563491861039 0.0
   endloop
endfacet
facet normal -0.608761429008745 -0.793353340291217 0.0
   outer loop
      vertex 23.5556349186106 6.55563491861039 3.99999999999999
      vertex 23.1 6.90525588832582 0.0
      vertex 23.5556349186106 6.55563491861039 0.0
   endloop
endfacet
facet normal -0.608761429008745 -0.793353340291217 0.0
   outer loop
      vertex 23.1 6.90525588832582 0.0
      vertex 23.5556349186106 6.55563491861039 3.99999999999999
      vertex 23.1 6.90525588832582 3.99999999999999
   endloop
endfacet
facet normal -0.382683432364999 -0.923879532511324 0.0
   outer loop
      vertex 23.1 6.90525588832582 3.99999999999999
      vertex 22.5694018992255 7.12503681783597 0.0
      vertex 23.1 6.90525588832582 0.0
   endloop
endfacet
facet normal -0.382683432364999 -0.923879532511324 0.0
   outer loop
      vertex 22.5694018992255 7.12503681783597 0.0
      vertex 23.1 6.90525588832582 3.99999999999999
      vertex 22.5694018992255 7.12503681783597 3.99999999999999
   endloop
endfacet
facet normal -0.13052619222011 -0.991444861373803 0.0
   outer loop
      vertex 22.5694018992255 7.12503681783597 3.99999999999999
      vertex 22.0000000000001 7.19999999999999 0.0
      vertex 22.5694018992255 7.12503681783597 0.0
   endloop
endfacet
facet normal -0.13052619222011 -0.991444861373803 0.0
   outer loop
      vertex 22.0000000000001 7.19999999999999 0.0
      vertex 22.5694018992255 7.12503681783597 3.99999999999999
      vertex 22.0000000000001 7.19999999999999 3.99999999999999
   endloop
endfacet
facet normal 0.130526192220023 -0.991444861373814 0.0
   outer loop
      vertex 22.0000000000001 7.19999999999999 3.99999999999999
      vertex 21.4305981007745 7.12503681783596 0.0
      vertex 22.0000000000001 7.19999999999999 0.0
   endloop
endfacet
facet normal 0.130526192220023 -0.991444861373814 0.0
   outer loop
      vertex 21.4305981007745 7.12503681783596 0.0
      vertex 22.0000000000001 7.19999999999999 3.99999999999999
      vertex 21.4305981007745 7.12503681783596 3.99999999999999
   endloop
endfacet
facet normal 0.382683432365039 -0.923879532511308 0.0
   outer loop
      vertex 21.4305981007745 7.12503681783596 3.99999999999999
      vertex 20.9 6.90525588832581 0.0
      vertex 21.4305981007745 7.12503681783596 0.0
   endloop
endfacet
facet normal 0.382683432365039 -0.923879532511308 0.0
   outer loop
      vertex 20.9 6.90525588832581 0.0
      vertex 21.4305981007745 7.12503681783596 3.99999999999999
      vertex 20.9 6.90525588832581 3.99999999999999
   endloop
endfacet
facet normal 0.608761429008821 -0.793353340291158 0.0
   outer loop
      vertex 20.9 6.90525588832581 3.99999999999999
      vertex 20.4443650813897 6.55563491861039 0.0
      vertex 20.9 6.90525588832581 0.0
   endloop
endfacet
facet normal 0.608761429008821 -0.793353340291158 0.0
   outer loop
      vertex 20.4443650813897 6.55563491861039 0.0
      vertex 20.9 6.90525588832581 3.99999999999999
      vertex 20.4443650813897 6.55563491861039 3.99999999999999
   endloop
endfacet
facet normal 0.793353340291158 -0.608761429008821 0.0
   outer loop
      vertex 20.4443650813897 6.55563491861039 0.0
      vertex 20.0947441116743 6.10000000000005 3.99999999999999
      vertex 20.0947441116743 6.10000000000005 0.0
   endloop
endfacet
facet normal 0.793353340291158 -0.608761429008821 0.0
   outer loop
      vertex 20.0947441116743 6.10000000000005 3.99999999999999
      vertex 20.4443650813897 6.55563491861039 0.0
      vertex 20.4443650813897 6.55563491861039 3.99999999999999
   endloop
endfacet
facet normal 0.923879532511297 -0.382683432365066 0.0
   outer loop
      vertex 20.0947441116743 6.10000000000005 0.0
      vertex 19.8749631821641 5.56940189922561 3.99999999999999
      vertex 19.8749631821641 5.56940189922561 0.0
   endloop
endfacet
facet normal 0.923879532511297 -0.382683432365066 0.0
   outer loop
      vertex 19.8749631821641 5.56940189922561 3.99999999999999
      vertex 20.0947441116743 6.10000000000005 0.0
      vertex 20.0947441116743 6.10000000000005 3.99999999999999
   endloop
endfacet
facet normal 0.991444861373805 -0.130526192220089 0.0
   outer loop
      vertex 19.8749631821641 5.56940189922561 0.0
      vertex 19.8000000000001 5.00000000000004 3.99999999999999
      vertex 19.8000000000001 5.00000000000004 0.0
   endloop
endfacet
facet normal 0.991444861373805 -0.130526192220089 0.0
   outer loop
      vertex 19.8000000000001 5.00000000000004 3.99999999999999
      vertex 19.8749631821641 5.56940189922561 0.0
      vertex 19.8749631821641 5.56940189922561 3.99999999999999
   endloop
endfacet
facet normal 0.991444861373803 0.13052619222011 0.0
   outer loop
      vertex 19.8000000000001 5.00000000000004 0.0
      vertex 19.8749631821641 4.43059810077455 3.99999999999999
      vertex 19.8749631821641 4.43059810077455 0.0
   endloop
endfacet
facet normal 0.991444861373803 0.13052619222011 0.0
   outer loop
      vertex 19.8749631821641 4.43059810077455 3.99999999999999
      vertex 19.8000000000001 5.00000000000004 0.0
      vertex 19.8000000000001 5.00000000000004 3.99999999999999
   endloop
endfacet
facet normal 0.923879532511324 0.382683432364999 0.0
   outer loop
      vertex 19.8749631821641 4.43059810077455 0.0
      vertex 20.0947441116742 3.90000000000002 3.99999999999999
      vertex 20.0947441116742 3.90000000000002 0.0
   endloop
endfacet
facet normal 0.923879532511324 0.382683432364999 0.0
   outer loop
      vertex 20.0947441116742 3.90000000000002 3.99999999999999
      vertex 19.8749631821641 4.43059810077455 0.0
      vertex 19.8749631821641 4.43059810077455 3.99999999999999
   endloop
endfacet
facet normal 0.793353340291246 0.608761429008707 0.0
   outer loop
      vertex 20.0947441116742 3.90000000000002 0.0
      vertex 20.4443650813897 3.4443650813896 3.99999999999999
      vertex 20.4443650813897 3.4443650813896 0.0
   endloop
endfacet
facet normal 0.793353340291246 0.608761429008707 0.0
   outer loop
      vertex 20.4443650813897 3.4443650813896 3.99999999999999
      vertex 20.0947441116742 3.90000000000002 0.0
      vertex 20.0947441116742 3.90000000000002 3.99999999999999
   endloop
endfacet
facet normal 0.608761429008684 0.793353340291264 0.0
   outer loop
      vertex 20.4443650813897 3.4443650813896 3.99999999999999
      vertex 20.9 3.09474411167426 0.0
      vertex 20.4443650813897 3.4443650813896 0.0
   endloop
endfacet
facet normal 0.608761429008684 0.793353340291264 0.0
   outer loop
      vertex 20.9 3.09474411167426 0.0
      vertex 20.4443650813897 3.4443650813896 3.99999999999999
      vertex 20.9 3.09474411167426 3.99999999999999
   endloop
endfacet
facet normal 0.382683432364927 0.923879532511354 0.0
   outer loop
      vertex 20.9 3.09474411167426 3.99999999999999
      vertex 21.4305981007747 2.87496318216412 0.0
      vertex 20.9 3.09474411167426 0.0
   endloop
endfacet
facet normal 0.382683432364927 0.923879532511354 0.0
   outer loop
      vertex 21.4305981007747 2.87496318216412 0.0
      vertex 20.9 3.09474411167426 3.99999999999999
      vertex 21.4305981007747 2.87496318216412 3.99999999999999
   endloop
endfacet
facet normal 0.13052619222011 0.991444861373803 0.0
   outer loop
      vertex 21.4305981007747 2.87496318216412 3.99999999999999
      vertex 22.0000000000001 2.80000000000009 0.0
      vertex 21.4305981007747 2.87496318216412 0.0
   endloop
endfacet
facet normal 0.13052619222011 0.991444861373803 0.0
   outer loop
      vertex 22.0000000000001 2.80000000000009 0.0
      vertex 21.4305981007747 2.87496318216412 3.99999999999999
      vertex 22.0000000000001 2.80000000000009 3.99999999999999
   endloop
endfacet
facet normal -0.13052619222009 0.991444861373806 0.0
   outer loop
      vertex 22.0000000000001 2.80000000000009 3.99999999999999
      vertex 22.5694018992257 2.87496318216412 0.0
      vertex 22.0000000000001 2.80000000000009 0.0
   endloop
endfacet
facet normal -0.13052619222009 0.991444861373806 0.0
   outer loop
      vertex 22.5694018992257 2.87496318216412 0.0
      vertex 22.0000000000001 2.80000000000009 3.99999999999999
      vertex 22.5694018992257 2.87496318216412 3.99999999999999
   endloop
endfacet
facet normal -0.382683432365038 0.923879532511308 0.0
   outer loop
      vertex 22.5694018992257 2.87496318216412 3.99999999999999
      vertex 23.1000000000001 3.09474411167426 0.0
      vertex 22.5694018992257 2.87496318216412 0.0
   endloop
endfacet
facet normal -0.382683432365038 0.923879532511308 0.0
   outer loop
      vertex 23.1000000000001 3.09474411167426 0.0
      vertex 22.5694018992257 2.87496318216412 3.99999999999999
      vertex 23.1000000000001 3.09474411167426 3.99999999999999
   endloop
endfacet
facet normal -0.608761429008695 0.793353340291255 0.0
   outer loop
      vertex 23.1000000000001 3.09474411167426 3.99999999999999
      vertex 23.5556349186106 3.44436508138961 0.0
      vertex 23.1000000000001 3.09474411167426 0.0
   endloop
endfacet
facet normal -0.608761429008695 0.793353340291255 0.0
   outer loop
      vertex 23.5556349186106 3.44436508138961 0.0
      vertex 23.1000000000001 3.09474411167426 3.99999999999999
      vertex 23.5556349186106 3.44436508138961 3.99999999999999
   endloop
endfacet
facet normal -0.793353340291255 0.608761429008695 0.0
   outer loop
      vertex 23.9052558883258 3.90000000000002 3.99999999999999
      vertex 23.5556349186106 3.44436508138961 0.0
      vertex 23.5556349186106 3.44436508138961 3.99999999999999
   endloop
endfacet
facet normal -0.793353340291255 0.608761429008695 0.0
   outer loop
      vertex 23.5556349186106 3.44436508138961 0.0
      vertex 23.9052558883258 3.90000000000002 3.99999999999999
      vertex 23.9052558883258 3.90000000000002 0.0
   endloop
endfacet
facet normal -0.923879532511297 0.382683432365066 0.0
   outer loop
      vertex 24.1250368178361 4.43059810077455 3.99999999999999
      vertex 23.9052558883258 3.90000000000002 0.0
      vertex 23.9052558883258 3.90000000000002 3.99999999999999
   endloop
endfacet
facet normal -0.923879532511297 0.382683432365066 0.0
   outer loop
      vertex 23.9052558883258 3.90000000000002 0.0
      vertex 24.1250368178361 4.43059810077455 3.99999999999999
      vertex 24.1250368178361 4.43059810077455 0.0
   endloop
endfacet
facet normal 0.0 0.0 -1.0
   outer loop
      vertex 0.0 9.99999999999998 0.0
      vertex 1.87496318216405 5.56940189922551 0.0
      vertex 2.25597318603832e-014 0.0 0.0
   endloop
endfacet
facet normal 0.0 0.0 -1.0
   outer loop
      vertex 1.87496318216405 5.56940189922551 0.0
      vertex 0.0 9.99999999999998 0.0
      vertex 2.09474411167438 6.10000000000005 0.0
   endloop
endfacet
facet normal 0.0 0.0 -1.0
   outer loop
      vertex 2.09474411167438 6.10000000000005 0.0
      vertex 0.0 9.99999999999998 0.0
      vertex 2.44436508138964 6.55563491861038 0.0
   endloop
endfacet
facet normal 0.0 0.0 -1.0
   outer loop
      vertex 2.44436508138964 6.55563491861038 0.0
      vertex 0.0 9.99999999999998 0.0
      vertex 2.89999999999996 6.90525588832581 0.0
   endloop
endfacet
facet normal 0.0 0.0 -1.0
   outer loop
      vertex 2.89999999999996 6.90525588832581 0.0
      vertex 0.0 9.99999999999998 0.0
      vertex 3.43059810077449 7.12503681783596 0.0
   endloop
endfacet
facet normal 0.0 0.0 -1.0
   outer loop
      vertex 3.43059810077449 7.12503681783596 0.0
      vertex 0.0 9.99999999999998 0.0
      vertex 4.00000000000007 7.19999999999998 0.0
   endloop
endfacet
facet normal 0.0 0.0 -1.0
   outer loop
      vertex 4.00000000000007 7.19999999999998 0.0
      vertex 0.0 9.99999999999998 0.0
      vertex 26.0000000000001 9.99999999999998 0.0
   endloop
endfacet
facet normal 0.0 0.0 -1.0
   outer loop
      vertex 2.25597318603832e-014 0.0 0.0
      vertex 1.87496318216405 5.56940189922551 0.0
      vertex 1.80000000000001 4.99999999999994 0.0
   endloop
endfacet
facet normal 0.0 0.0 -1.0
   outer loop
      vertex 4.00000000000007 7.19999999999998 0.0
      vertex 26.0000000000001 9.99999999999998 0.0
      vertex 4.56940189922564 7.12503681783596 0.0
   endloop
endfacet
facet normal 0.0 0.0 -1.0
   outer loop
      vertex 4.56940189922564 7.12503681783596 0.0
      vertex 26.0000000000001 9.99999999999998 0.0
      vertex 5.09999999999999 6.90525588832573 0.0
   endloop
endfacet
facet normal 0.0 0.0 -1.0
   outer loop
      vertex 5.09999999999999 6.90525588832573 0.0
      vertex 26.0000000000001 9.99999999999998 0.0
      vertex 5.5556349186105 6.55563491861037 0.0
   endloop
endfacet
facet normal 0.0 0.0 -1.0
   outer loop
      vertex 5.5556349186105 6.55563491861037 0.0
      vertex 26.0000000000001 9.99999999999998 0.0
      vertex 5.90525588832576 6.10000000000006 0.0
   endloop
endfacet
facet normal 0.0 0.0 -1.0
   outer loop
      vertex 5.90525588832576 6.10000000000006 0.0
      vertex 26.0000000000001 9.99999999999998 0.0
      vertex 6.12503681783589 5.56940189922551 0.0
   endloop
endfacet
facet normal 0.0 0.0 -1.0
   outer loop
      vertex 6.12503681783589 5.56940189922551 0.0
      vertex 26.0000000000001 9.99999999999998 0.0
      vertex 6.19999999999993 4.99999999999994 0.0
   endloop
endfacet
facet normal 0.0 0.0 -1.0
   outer loop
      vertex 6.19999999999993 4.99999999999994 0.0
      vertex 26.0000000000001 9.99999999999998 0.0
      vertex 20.9 6.90525588832581 0.0
   endloop
endfacet
facet normal 0.0 0.0 -1.0
   outer loop
      vertex 6.19999999999993 4.99999999999994 0.0
      vertex 20.9 6.90525588832581 0.0
      vertex 20.4443650813897 6.55563491861039 0.0
   endloop
endfacet
facet normal 0.0 0.0 -1.0
   outer loop
      vertex 6.19999999999993 4.99999999999994 0.0
      vertex 20.4443650813897 6.55563491861039 0.0
      vertex 20.0947441116743 6.10000000000005 0.0
   endloop
endfacet
facet normal 0.0 0.0 -1.0
   outer loop
      vertex 6.19999999999993 4.99999999999994 0.0
      vertex 20.0947441116743 6.10000000000005 0.0
      vertex 19.8749631821641 5.56940189922561 0.0
   endloop
endfacet
facet normal 0.0 0.0 -1.0
   outer loop
      vertex 6.19999999999993 4.99999999999994 0.0
      vertex 19.8749631821641 5.56940189922561 0.0
      vertex 19.8000000000001 5.00000000000004 0.0
   endloop
endfacet
facet normal 0.0 0.0 -1.0
   outer loop
      vertex 20.9 6.90525588832581 0.0
      vertex 26.0000000000001 9.99999999999998 0.0
      vertex 21.4305981007745 7.12503681783596 0.0
   endloop
endfacet
facet normal 0.0 0.0 -1.0
   outer loop
      vertex 21.4305981007745 7.12503681783596 0.0
      vertex 26.0000000000001 9.99999999999998 0.0
      vertex 22.0000000000001 7.19999999999999 0.0
   endloop
endfacet
facet normal 0.0 0.0 -1.0
   outer loop
      vertex 22.0000000000001 7.19999999999999 0.0
      vertex 26.0000000000001 9.99999999999998 0.0
      vertex 22.5694018992255 7.12503681783597 0.0
   endloop
endfacet
facet normal 0.0 0.0 -1.0
   outer loop
      vertex 22.5694018992255 7.12503681783597 0.0
      vertex 26.0000000000001 9.99999999999998 0.0
      vertex 23.1 6.90525588832582 0.0
   endloop
endfacet
facet normal 0.0 0.0 -1.0
   outer loop
      vertex 23.1 6.90525588832582 0.0
      vertex 26.0000000000001 9.99999999999998 0.0
      vertex 23.5556349186106 6.55563491861039 0.0
   endloop
endfacet
facet normal 0.0 0.0 -1.0
   outer loop
      vertex 23.5556349186106 6.55563491861039 0.0
      vertex 26.0000000000001 9.99999999999998 0.0
      vertex 23.9052558883258 6.10000000000005 0.0
   endloop
endfacet
facet normal 0.0 0.0 -1.0
   outer loop
      vertex 23.9052558883258 6.10000000000005 0.0
      vertex 26.0000000000001 9.99999999999998 0.0
      vertex 24.125036817836 5.56940189922553 0.0
   endloop
endfacet
facet normal 0.0 0.0 -1.0
   outer loop
      vertex 24.125036817836 5.56940189922553 0.0
      vertex 26.0000000000001 9.99999999999998 0.0
      vertex 24.2000000000002 5.00000000000004 0.0
   endloop
endfacet
facet normal 0.0 0.0 -1.0
   outer loop
      vertex 2.25597318603832e-014 0.0 0.0
      vertex 3.99999999999989 2.79999999999999 0.0
      vertex 26.0000000000001 9.30588939240806e-014 0.0
   endloop
endfacet
facet normal 0.0 0.0 -1.0
   outer loop
      vertex 3.99999999999989 2.79999999999999 0.0
      vertex 2.25597318603832e-014 0.0 0.0
      vertex 3.43059810077449 2.87496318216412 0.0
   endloop
endfacet
facet normal 0.0 0.0 -1.0
   outer loop
      vertex 3.43059810077449 2.87496318216412 0.0
      vertex 2.25597318603832e-014 0.0 0.0
      vertex 2.89999999999995 3.09474411167426 0.0
   endloop
endfacet
facet normal 0.0 0.0 -1.0
   outer loop
      vertex 2.89999999999995 3.09474411167426 0.0
      vertex 2.25597318603832e-014 0.0 0.0
      vertex 2.44436508138964 3.4443650813896 0.0
   endloop
endfacet
facet normal 0.0 0.0 -1.0
   outer loop
      vertex 2.44436508138964 3.4443650813896 0.0
      vertex 2.25597318603832e-014 0.0 0.0
      vertex 2.0947441116742 3.90000000000001 0.0
   endloop
endfacet
facet normal 0.0 0.0 -1.0
   outer loop
      vertex 2.0947441116742 3.90000000000001 0.0
      vertex 2.25597318603832e-014 0.0 0.0
      vertex 1.87496318216406 4.43059810077446 0.0
   endloop
endfacet
facet normal 0.0 0.0 -1.0
   outer loop
      vertex 1.87496318216406 4.43059810077446 0.0
      vertex 2.25597318603832e-014 0.0 0.0
      vertex 1.80000000000001 4.99999999999994 0.0
   endloop
endfacet
facet normal 0.0 0.0 -1.0
   outer loop
      vertex 26.0000000000001 9.30588939240806e-014 0.0
      vertex 3.99999999999989 2.79999999999999 0.0
      vertex 4.56940189922564 2.87496318216412 0.0
   endloop
endfacet
facet normal 0.0 0.0 -1.0
   outer loop
      vertex 26.0000000000001 9.30588939240806e-014 0.0
      vertex 4.56940189922564 2.87496318216412 0.0
      vertex 5.09999999999999 3.09474411167425 0.0
   endloop
endfacet
facet normal 0.0 0.0 -1.0
   outer loop
      vertex 26.0000000000001 9.30588939240806e-014 0.0
      vertex 5.09999999999999 3.09474411167425 0.0
      vertex 5.5556349186105 3.4443650813896 0.0
   endloop
endfacet
facet normal 0.0 0.0 -1.0
   outer loop
      vertex 26.0000000000001 9.30588939240806e-014 0.0
      vertex 5.5556349186105 3.4443650813896 0.0
      vertex 5.90525588832575 3.90000000000002 0.0
   endloop
endfacet
facet normal 0.0 0.0 -1.0
   outer loop
      vertex 26.0000000000001 9.30588939240806e-014 0.0
      vertex 5.90525588832575 3.90000000000002 0.0
      vertex 6.12503681783589 4.43059810077446 0.0
   endloop
endfacet
facet normal 0.0 0.0 -1.0
   outer loop
      vertex 26.0000000000001 9.30588939240806e-014 0.0
      vertex 6.12503681783589 4.43059810077446 0.0
      vertex 6.19999999999993 4.99999999999994 0.0
   endloop
endfacet
facet normal 0.0 0.0 -1.0
   outer loop
      vertex 26.0000000000001 9.30588939240806e-014 0.0
      vertex 6.19999999999993 4.99999999999994 0.0
      vertex 20.9 3.09474411167426 0.0
   endloop
endfacet
facet normal 0.0 0.0 -1.0
   outer loop
      vertex 20.9 3.09474411167426 0.0
      vertex 6.19999999999993 4.99999999999994 0.0
      vertex 20.4443650813897 3.4443650813896 0.0
   endloop
endfacet
facet normal 0.0 0.0 -1.0
   outer loop
      vertex 20.4443650813897 3.4443650813896 0.0
      vertex 6.19999999999993 4.99999999999994 0.0
      vertex 20.0947441116742 3.90000000000002 0.0
   endloop
endfacet
facet normal 0.0 0.0 -1.0
   outer loop
      vertex 20.0947441116742 3.90000000000002 0.0
      vertex 6.19999999999993 4.99999999999994 0.0
      vertex 19.8749631821641 4.43059810077455 0.0
   endloop
endfacet
facet normal 0.0 0.0 -1.0
   outer loop
      vertex 19.8749631821641 4.43059810077455 0.0
      vertex 6.19999999999993 4.99999999999994 0.0
      vertex 19.8000000000001 5.00000000000004 0.0
   endloop
endfacet
facet normal 0.0 0.0 -1.0
   outer loop
      vertex 26.0000000000001 9.30588939240806e-014 0.0
      vertex 20.9 3.09474411167426 0.0
      vertex 21.4305981007747 2.87496318216412 0.0
   endloop
endfacet
facet normal 0.0 0.0 -1.0
   outer loop
      vertex 26.0000000000001 9.30588939240806e-014 0.0
      vertex 21.4305981007747 2.87496318216412 0.0
      vertex 22.0000000000001 2.80000000000009 0.0
   endloop
endfacet
facet normal 0.0 0.0 -1.0
   outer loop
      vertex 26.0000000000001 9.30588939240806e-014 0.0
      vertex 22.0000000000001 2.80000000000009 0.0
      vertex 22.5694018992257 2.87496318216412 0.0
   endloop
endfacet
facet normal 0.0 0.0 -1.0
   outer loop
      vertex 26.0000000000001 9.30588939240806e-014 0.0
      vertex 22.5694018992257 2.87496318216412 0.0
      vertex 23.1000000000001 3.09474411167426 0.0
   endloop
endfacet
facet normal 0.0 0.0 -1.0
   outer loop
      vertex 26.0000000000001 9.30588939240806e-014 0.0
      vertex 23.1000000000001 3.09474411167426 0.0
      vertex 23.5556349186106 3.44436508138961 0.0
   endloop
endfacet
facet normal 0.0 0.0 -1.0
   outer loop
      vertex 26.0000000000001 9.30588939240806e-014 0.0
      vertex 23.5556349186106 3.44436508138961 0.0
      vertex 23.9052558883258 3.90000000000002 0.0
   endloop
endfacet
facet normal 0.0 0.0 -1.0
   outer loop
      vertex 26.0000000000001 9.30588939240806e-014 0.0
      vertex 23.9052558883258 3.90000000000002 0.0
      vertex 24.1250368178361 4.43059810077455 0.0
   endloop
endfacet
facet normal 0.0 0.0 -1.0
   outer loop
      vertex 26.0000000000001 9.30588939240806e-014 0.0
      vertex 24.1250368178361 4.43059810077455 0.0
      vertex 24.2000000000002 5.00000000000004 0.0
   endloop
endfacet
facet normal 0.0 0.0 -1.0
   outer loop
      vertex 26.0000000000001 9.30588939240806e-014 0.0
      vertex 24.2000000000002 5.00000000000004 0.0
      vertex 26.0000000000001 9.99999999999998 0.0
   endloop
endfacet
facet normal 0.0 0.0 1.0
   outer loop
      vertex 2.25597318603832e-014 0.0 3.99999999999999
      vertex 1.87496318216406 4.43059810077446 3.99999999999999
      vertex 1.80000000000001 4.99999999999994 3.99999999999999
   endloop
endfacet
facet normal 0.0 0.0 1.0
   outer loop
      vertex 1.87496318216406 4.43059810077446 3.99999999999999
      vertex 2.25597318603832e-014 0.0 3.99999999999999
      vertex 2.0947441116742 3.90000000000001 3.99999999999999
   endloop
endfacet
facet normal 0.0 0.0 1.0
   outer loop
      vertex 2.0947441116742 3.90000000000001 3.99999999999999
      vertex 2.25597318603832e-014 0.0 3.99999999999999
      vertex 2.44436508138964 3.4443650813896 3.99999999999999
   endloop
endfacet
facet normal 0.0 0.0 1.0
   outer loop
      vertex 2.44436508138964 3.4443650813896 3.99999999999999
      vertex 2.25597318603832e-014 0.0 3.99999999999999
      vertex 2.89999999999995 3.09474411167426 3.99999999999999
   endloop
endfacet
facet normal 0.0 0.0 1.0
   outer loop
      vertex 2.89999999999995 3.09474411167426 3.99999999999999
      vertex 2.25597318603832e-014 0.0 3.99999999999999
      vertex 3.43059810077449 2.87496318216412 3.99999999999999
   endloop
endfacet
facet normal 0.0 0.0 1.0
   outer loop
      vertex 3.43059810077449 2.87496318216412 3.99999999999999
      vertex 2.25597318603832e-014 0.0 3.99999999999999
      vertex 3.99999999999989 2.79999999999999 3.99999999999999
   endloop
endfacet
facet normal 0.0 0.0 1.0
   outer loop
      vertex 3.99999999999989 2.79999999999999 3.99999999999999
      vertex 2.25597318603832e-014 0.0 3.99999999999999
      vertex 26.0000000000001 9.30588939240806e-014 3.99999999999999
   endloop
endfacet
facet normal 0.0 0.0 1.0
   outer loop
      vertex 3.99999999999989 2.79999999999999 3.99999999999999
      vertex 26.0000000000001 9.30588939240806e-014 3.99999999999999
      vertex 4.56940189922564 2.87496318216412 3.99999999999999
   endloop
endfacet
facet normal 0.0 0.0 1.0
   outer loop
      vertex 4.56940189922564 2.87496318216412 3.99999999999999
      vertex 26.0000000000001 9.30588939240806e-014 3.99999999999999
      vertex 5.09999999999999 3.09474411167425 3.99999999999999
   endloop
endfacet
facet normal 0.0 0.0 1.0
   outer loop
      vertex 5.09999999999999 3.09474411167425 3.99999999999999
      vertex 26.0000000000001 9.30588939240806e-014 3.99999999999999
      vertex 5.5556349186105 3.4443650813896 3.99999999999999
   endloop
endfacet
facet normal 0.0 0.0 1.0
   outer loop
      vertex 5.5556349186105 3.4443650813896 3.99999999999999
      vertex 26.0000000000001 9.30588939240806e-014 3.99999999999999
      vertex 5.90525588832575 3.90000000000002 3.99999999999999
   endloop
endfacet
facet normal 0.0 0.0 1.0
   outer loop
      vertex 5.90525588832575 3.90000000000002 3.99999999999999
      vertex 26.0000000000001 9.30588939240806e-014 3.99999999999999
      vertex 6.12503681783589 4.43059810077446 3.99999999999999
   endloop
endfacet
facet normal 0.0 0.0 1.0
   outer loop
      vertex 6.12503681783589 4.43059810077446 3.99999999999999
      vertex 26.0000000000001 9.30588939240806e-014 3.99999999999999
      vertex 6.19999999999993 4.99999999999994 3.99999999999999
   endloop
endfacet
facet normal 0.0 0.0 1.0
   outer loop
      vertex 6.19999999999993 4.99999999999994 3.99999999999999
      vertex 26.0000000000001 9.30588939240806e-014 3.99999999999999
      vertex 20.9 3.09474411167426 3.99999999999999
   endloop
endfacet
facet normal 0.0 0.0 1.0
   outer loop
      vertex 6.19999999999993 4.99999999999994 3.99999999999999
      vertex 20.9 3.09474411167426 3.99999999999999
      vertex 20.4443650813897 3.4443650813896 3.99999999999999
   endloop
endfacet
facet normal 0.0 0.0 1.0
   outer loop
      vertex 6.19999999999993 4.99999999999994 3.99999999999999
      vertex 20.4443650813897 3.4443650813896 3.99999999999999
      vertex 20.0947441116742 3.90000000000002 3.99999999999999
   endloop
endfacet
facet normal 0.0 0.0 1.0
   outer loop
      vertex 6.19999999999993 4.99999999999994 3.99999999999999
      vertex 20.0947441116742 3.90000000000002 3.99999999999999
      vertex 19.8749631821641 4.43059810077455 3.99999999999999
   endloop
endfacet
facet normal 0.0 0.0 1.0
   outer loop
      vertex 6.19999999999993 4.99999999999994 3.99999999999999
      vertex 19.8749631821641 4.43059810077455 3.99999999999999
      vertex 19.8000000000001 5.00000000000004 3.99999999999999
   endloop
endfacet
facet normal 0.0 0.0 1.0
   outer loop
      vertex 20.9 3.09474411167426 3.99999999999999
      vertex 26.0000000000001 9.30588939240806e-014 3.99999999999999
      vertex 21.4305981007747 2.87496318216412 3.99999999999999
   endloop
endfacet
facet normal 0.0 0.0 1.0
   outer loop
      vertex 21.4305981007747 2.87496318216412 3.99999999999999
      vertex 26.0000000000001 9.30588939240806e-014 3.99999999999999
      vertex 22.0000000000001 2.80000000000009 3.99999999999999
   endloop
endfacet
facet normal 0.0 0.0 1.0
   outer loop
      vertex 22.0000000000001 2.80000000000009 3.99999999999999
      vertex 26.0000000000001 9.30588939240806e-014 3.99999999999999
      vertex 22.5694018992257 2.87496318216412 3.99999999999999
   endloop
endfacet
facet normal 0.0 0.0 1.0
   outer loop
      vertex 22.5694018992257 2.87496318216412 3.99999999999999
      vertex 26.0000000000001 9.30588939240806e-014 3.99999999999999
      vertex 23.1000000000001 3.09474411167426 3.99999999999999
   endloop
endfacet
facet normal 0.0 0.0 1.0
   outer loop
      vertex 23.1000000000001 3.09474411167426 3.99999999999999
      vertex 26.0000000000001 9.30588939240806e-014 3.99999999999999
      vertex 23.5556349186106 3.44436508138961 3.99999999999999
   endloop
endfacet
facet normal 0.0 0.0 1.0
   outer loop
      vertex 23.5556349186106 3.44436508138961 3.99999999999999
      vertex 26.0000000000001 9.30588939240806e-014 3.99999999999999
      vertex 23.9052558883258 3.90000000000002 3.99999999999999
   endloop
endfacet
facet normal 0.0 0.0 1.0
   outer loop
      vertex 23.9052558883258 3.90000000000002 3.99999999999999
      vertex 26.0000000000001 9.30588939240806e-014 3.99999999999999
      vertex 24.1250368178361 4.43059810077455 3.99999999999999
   endloop
endfacet
facet normal 0.0 0.0 1.0
   outer loop
      vertex 24.1250368178361 4.43059810077455 3.99999999999999
      vertex 26.0000000000001 9.30588939240806e-014 3.99999999999999
      vertex 24.2000000000002 5.00000000000004 3.99999999999999
   endloop
endfacet
facet normal 0.0 0.0 1.0
   outer loop
      vertex 0.0 9.99999999999998 3.99999999999999
      vertex 4.00000000000007 7.19999999999998 3.99999999999999
      vertex 26.0000000000001 9.99999999999998 3.99999999999999
   endloop
endfacet
facet normal 0.0 0.0 1.0
   outer loop
      vertex 4.00000000000007 7.19999999999998 3.99999999999999
      vertex 0.0 9.99999999999998 3.99999999999999
      vertex 3.43059810077449 7.12503681783596 3.99999999999999
   endloop
endfacet
facet normal 0.0 0.0 1.0
   outer loop
      vertex 3.43059810077449 7.12503681783596 3.99999999999999
      vertex 0.0 9.99999999999998 3.99999999999999
      vertex 2.89999999999996 6.90525588832581 3.99999999999999
   endloop
endfacet
facet normal 0.0 0.0 1.0
   outer loop
      vertex 2.89999999999996 6.90525588832581 3.99999999999999
      vertex 0.0 9.99999999999998 3.99999999999999
      vertex 2.44436508138964 6.55563491861038 3.99999999999999
   endloop
endfacet
facet normal 0.0 0.0 1.0
   outer loop
      vertex 2.44436508138964 6.55563491861038 3.99999999999999
      vertex 0.0 9.99999999999998 3.99999999999999
      vertex 2.09474411167438 6.10000000000005 3.99999999999999
   endloop
endfacet
facet normal 0.0 0.0 1.0
   outer loop
      vertex 2.09474411167438 6.10000000000005 3.99999999999999
      vertex 0.0 9.99999999999998 3.99999999999999
      vertex 1.87496318216405 5.56940189922551 3.99999999999999
   endloop
endfacet
facet normal 0.0 0.0 1.0
   outer loop
      vertex 1.87496318216405 5.56940189922551 3.99999999999999
      vertex 0.0 9.99999999999998 3.99999999999999
      vertex 2.25597318603832e-014 0.0 3.99999999999999
   endloop
endfacet
facet normal 0.0 0.0 1.0
   outer loop
      vertex 1.87496318216405 5.56940189922551 3.99999999999999
      vertex 2.25597318603832e-014 0.0 3.99999999999999
      vertex 1.80000000000001 4.99999999999994 3.99999999999999
   endloop
endfacet
facet normal 0.0 0.0 1.0
   outer loop
      vertex 26.0000000000001 9.99999999999998 3.99999999999999
      vertex 4.00000000000007 7.19999999999998 3.99999999999999
      vertex 4.56940189922564 7.12503681783596 3.99999999999999
   endloop
endfacet
facet normal 0.0 0.0 1.0
   outer loop
      vertex 26.0000000000001 9.99999999999998 3.99999999999999
      vertex 4.56940189922564 7.12503681783596 3.99999999999999
      vertex 5.09999999999999 6.90525588832573 3.99999999999999
   endloop
endfacet
facet normal 0.0 0.0 1.0
   outer loop
      vertex 26.0000000000001 9.99999999999998 3.99999999999999
      vertex 5.09999999999999 6.90525588832573 3.99999999999999
      vertex 5.5556349186105 6.55563491861037 3.99999999999999
   endloop
endfacet
facet normal 0.0 0.0 1.0
   outer loop
      vertex 26.0000000000001 9.99999999999998 3.99999999999999
      vertex 5.5556349186105 6.55563491861037 3.99999999999999
      vertex 5.90525588832576 6.10000000000006 3.99999999999999
   endloop
endfacet
facet normal 0.0 0.0 1.0
   outer loop
      vertex 26.0000000000001 9.99999999999998 3.99999999999999
      vertex 5.90525588832576 6.10000000000006 3.99999999999999
      vertex 6.12503681783589 5.56940189922551 3.99999999999999
   endloop
endfacet
facet normal 0.0 0.0 1.0
   outer loop
      vertex 26.0000000000001 9.99999999999998 3.99999999999999
      vertex 6.12503681783589 5.56940189922551 3.99999999999999
      vertex 6.19999999999993 4.99999999999994 3.99999999999999
   endloop
endfacet
facet normal 0.0 0.0 1.0
   outer loop
      vertex 26.0000000000001 9.99999999999998 3.99999999999999
      vertex 6.19999999999993 4.99999999999994 3.99999999999999
      vertex 20.9 6.90525588832581 3.99999999999999
   endloop
endfacet
facet normal 0.0 0.0 1.0
   outer loop
      vertex 20.9 6.90525588832581 3.99999999999999
      vertex 6.19999999999993 4.99999999999994 3.99999999999999
      vertex 20.4443650813897 6.55563491861039 3.99999999999999
   endloop
endfacet
facet normal 0.0 0.0 1.0
   outer loop
      vertex 20.4443650813897 6.55563491861039 3.99999999999999
      vertex 6.19999999999993 4.99999999999994 3.99999999999999
      vertex 20.0947441116743 6.10000000000005 3.99999999999999
   endloop
endfacet
facet normal 0.0 0.0 1.0
   outer loop
      vertex 20.0947441116743 6.10000000000005 3.99999999999999
      vertex 6.19999999999993 4.99999999999994 3.99999999999999
      vertex 19.8749631821641 5.56940189922561 3.99999999999999
   endloop
endfacet
facet normal 0.0 0.0 1.0
   outer loop
      vertex 19.8749631821641 5.56940189922561 3.99999999999999
      vertex 6.19999999999993 4.99999999999994 3.99999999999999
      vertex 19.8000000000001 5.00000000000004 3.99999999999999
   endloop
endfacet
facet normal 0.0 0.0 1.0
   outer loop
      vertex 26.0000000000001 9.99999999999998 3.99999999999999
      vertex 20.9 6.90525588832581 3.99999999999999
      vertex 21.4305981007745 7.12503681783596 3.99999999999999
   endloop
endfacet
facet normal 0.0 0.0 1.0
   outer loop
      vertex 26.0000000000001 9.99999999999998 3.99999999999999
      vertex 21.4305981007745 7.12503681783596 3.99999999999999
      vertex 22.0000000000001 7.19999999999999 3.99999999999999
   endloop
endfacet
facet normal 0.0 0.0 1.0
   outer loop
      vertex 26.0000000000001 9.99999999999998 3.99999999999999
      vertex 22.0000000000001 7.19999999999999 3.99999999999999
      vertex 22.5694018992255 7.12503681783597 3.99999999999999
   endloop
endfacet
facet normal 0.0 0.0 1.0
   outer loop
      vertex 26.0000000000001 9.99999999999998 3.99999999999999
      vertex 22.5694018992255 7.12503681783597 3.99999999999999
      vertex 23.1 6.90525588832582 3.99999999999999
   endloop
endfacet
facet normal 0.0 0.0 1.0
   outer loop
      vertex 26.0000000000001 9.99999999999998 3.99999999999999
      vertex 23.1 6.90525588832582 3.99999999999999
      vertex 23.5556349186106 6.55563491861039 3.99999999999999
   endloop
endfacet
facet normal 0.0 0.0 1.0
   outer loop
      vertex 26.0000000000001 9.99999999999998 3.99999999999999
      vertex 23.5556349186106 6.55563491861039 3.99999999999999
      vertex 23.9052558883258 6.10000000000005 3.99999999999999
   endloop
endfacet
facet normal 0.0 0.0 1.0
   outer loop
      vertex 26.0000000000001 9.99999999999998 3.99999999999999
      vertex 23.9052558883258 6.10000000000005 3.99999999999999
      vertex 24.125036817836 5.56940189922553 3.99999999999999
   endloop
endfacet
facet normal 0.0 0.0 1.0
   outer loop
      vertex 26.0000000000001 9.99999999999998 3.99999999999999
      vertex 24.125036817836 5.56940189922553 3.99999999999999
      vertex 24.2000000000002 5.00000000000004 3.99999999999999
   endloop
endfacet
facet normal 0.0 0.0 1.0
   outer loop
      vertex 26.0000000000001 9.99999999999998 3.99999999999999
      vertex 24.2000000000002 5.00000000000004 3.99999999999999
      vertex 26.0000000000001 9.30588939240806e-014 3.99999999999999
   endloop
endfacet
facet normal -1.94289029309402e-016 1.0 0.0
   outer loop
      vertex 0.0 9.99999999999998 3.99999999999999
      vertex 26.0000000000001 9.99999999999998 0.0
      vertex 0.0 9.99999999999998 0.0
   endloop
endfacet
facet normal -1.94289029309402e-016 1.0 0.0
   outer loop
      vertex 26.0000000000001 9.99999999999998 0.0
      vertex 0.0 9.99999999999998 3.99999999999999
      vertex 26.0000000000001 9.99999999999998 3.99999999999999
   endloop
endfacet
facet normal 1.0 1.94289029309402e-016 0.0
   outer loop
      vertex 26.0000000000001 9.99999999999998 0.0
      vertex 26.0000000000001 9.30588939240806e-014 3.99999999999999
      vertex 26.0000000000001 9.30588939240806e-014 0.0
   endloop
endfacet
facet normal 1.0 1.94289029309402e-016 0.0
   outer loop
      vertex 26.0000000000001 9.30588939240806e-014 3.99999999999999
      vertex 26.0000000000001 9.99999999999998 0.0
      vertex 26.0000000000001 9.99999999999998 3.99999999999999
   endloop
endfacet
facet normal 2.77555756156289e-015 -1.0 0.0
   outer loop
      vertex 26.0000000000001 9.30588939240806e-014 3.99999999999999
      vertex 2.25597318603832e-014 0.0 0.0
      vertex 26.0000000000001 9.30588939240806e-014 0.0
   endloop
endfacet
facet normal 2.77555756156289e-015 -1.0 0.0
   outer loop
      vertex 2.25597318603832e-014 0.0 0.0
      vertex 26.0000000000001 9.30588939240806e-014 3.99999999999999
      vertex 2.25597318603832e-014 0.0 3.99999999999999
   endloop
endfacet
facet normal -1.0 -1.94289029309402e-016 0.0
   outer loop
      vertex 0.0 9.99999999999998 3.99999999999999
      vertex 2.25597318603832e-014 0.0 0.0
      vertex 2.25597318603832e-014 0.0 3.99999999999999
   endloop
endfacet
facet normal -1.0 -1.94289029309402e-016 0.0
   outer loop
      vertex 2.25597318603832e-014 0.0 0.0
      vertex 0.0 9.99999999999998 3.99999999999999
      vertex 0.0 9.99999999999998 0.0
   endloop
endfacet
facet normal 0.991444861373795 -0.130526192220167 0.0
   outer loop
      vertex 1.87496318216405 5.56940189922551 0.0
      vertex 1.80000000000001 4.99999999999994 3.99999999999999
      vertex 1.80000000000001 4.99999999999994 0.0
   endloop
endfacet
facet normal 0.991444861373795 -0.130526192220167 0.0
   outer loop
      vertex 1.80000000000001 4.99999999999994 3.99999999999999
      vertex 1.87496318216405 5.56940189922551 0.0
      vertex 1.87496318216405 5.56940189922551 3.99999999999999
   endloop
endfacet
facet normal 0.991444861373803 0.13052619222011 0.0
   outer loop
      vertex 1.80000000000001 4.99999999999994 0.0
      vertex 1.87496318216406 4.43059810077446 3.99999999999999
      vertex 1.87496318216406 4.43059810077446 0.0
   endloop
endfacet
facet normal 0.991444861373803 0.13052619222011 0.0
   outer loop
      vertex 1.87496318216406 4.43059810077446 3.99999999999999
      vertex 1.80000000000001 4.99999999999994 0.0
      vertex 1.80000000000001 4.99999999999994 3.99999999999999
   endloop
endfacet
facet normal 0.923879532511285 0.382683432365094 0.0
   outer loop
      vertex 1.87496318216406 4.43059810077446 0.0
      vertex 2.0947441116742 3.90000000000001 3.99999999999999
      vertex 2.0947441116742 3.90000000000001 0.0
   endloop
endfacet
facet normal 0.923879532511285 0.382683432365094 0.0
   outer loop
      vertex 2.0947441116742 3.90000000000001 3.99999999999999
      vertex 1.87496318216406 4.43059810077446 0.0
      vertex 1.87496318216406 4.43059810077446 3.99999999999999
   endloop
endfacet
facet normal 0.793353340291217 0.608761429008745 0.0
   outer loop
      vertex 2.0947441116742 3.90000000000001 0.0
      vertex 2.44436508138964 3.4443650813896 3.99999999999999
      vertex 2.44436508138964 3.4443650813896 0.0
   endloop
endfacet
facet normal 0.793353340291217 0.608761429008745 0.0
   outer loop
      vertex 2.44436508138964 3.4443650813896 3.99999999999999
      vertex 2.0947441116742 3.90000000000001 0.0
      vertex 2.0947441116742 3.90000000000001 3.99999999999999
   endloop
endfacet
facet normal 0.608761429008783 0.793353340291188 0.0
   outer loop
      vertex 2.44436508138964 3.4443650813896 3.99999999999999
      vertex 2.89999999999995 3.09474411167426 0.0
      vertex 2.44436508138964 3.4443650813896 0.0
   endloop
endfacet
facet normal 0.608761429008783 0.793353340291188 0.0
   outer loop
      vertex 2.89999999999995 3.09474411167426 0.0
      vertex 2.44436508138964 3.4443650813896 3.99999999999999
      vertex 2.89999999999995 3.09474411167426 3.99999999999999
   endloop
endfacet
facet normal 0.38268343236501 0.92387953251132 0.0
   outer loop
      vertex 2.89999999999995 3.09474411167426 3.99999999999999
      vertex 3.43059810077449 2.87496318216412 0.0
      vertex 2.89999999999995 3.09474411167426 0.0
   endloop
endfacet
facet normal 0.38268343236501 0.92387953251132 0.0
   outer loop
      vertex 3.43059810077449 2.87496318216412 0.0
      vertex 2.89999999999995 3.09474411167426 3.99999999999999
      vertex 3.43059810077449 2.87496318216412 3.99999999999999
   endloop
endfacet
facet normal 0.130526192220099 0.991444861373804 0.0
   outer loop
      vertex 3.43059810077449 2.87496318216412 3.99999999999999
      vertex 3.99999999999989 2.79999999999999 0.0
      vertex 3.43059810077449 2.87496318216412 0.0
   endloop
endfacet
facet normal 0.130526192220099 0.991444861373804 0.0
   outer loop
      vertex 3.99999999999989 2.79999999999999 0.0
      vertex 3.43059810077449 2.87496318216412 3.99999999999999
      vertex 3.99999999999989 2.79999999999999 3.99999999999999
   endloop
endfacet
facet normal -0.13052619222009 0.991444861373806 0.0
   outer loop
      vertex 3.99999999999989 2.79999999999999 3.99999999999999
      vertex 4.56940189922564 2.87496318216412 0.0
      vertex 3.99999999999989 2.79999999999999 0.0
   endloop
endfacet
facet normal -0.13052619222009 0.991444861373806 0.0
   outer loop
      vertex 4.56940189922564 2.87496318216412 0.0
      vertex 3.99999999999989 2.79999999999999 3.99999999999999
      vertex 4.56940189922564 2.87496318216412 3.99999999999999
   endloop
endfacet
endsolid belt-clamp
