solid rod-clamp
facet normal 0.382683432365088 0.923879532511287 0.0
   outer loop
      vertex 10.5 6.53589838486226 10.0
      vertex 11.4647238195899 6.13629669484375 0.0
      vertex 10.5 6.53589838486226 0.0
   endloop
endfacet
facet normal 0.382683432365088 0.923879532511287 0.0
   outer loop
      vertex 11.4647238195899 6.13629669484375 0.0
      vertex 10.5 6.53589838486226 10.0
      vertex 11.4647238195899 6.13629669484375 10.0
   endloop
endfacet
facet normal -3.88578058618805e-016 -1.0 0.0
   outer loop
      vertex 25.0 8.45989944764369e-015 0.0
      vertex 20.0176380902051 1.12798659301916e-014 3.06814834742187
      vertex 0.0 8.45989944764369e-015 0.0
   endloop
endfacet
facet normal -3.88578058618805e-016 -1.0 0.0
   outer loop
      vertex 20.0176380902051 1.12798659301916e-014 3.06814834742187
      vertex 25.0 8.45989944764369e-015 0.0
      vertex 20.5 5.63993296509579e-015 3.26794919243112
   endloop
endfacet
facet normal -3.88578058618805e-016 -1.0 0.0
   outer loop
      vertex 20.5 5.63993296509579e-015 3.26794919243112
      vertex 25.0 8.45989944764369e-015 0.0
      vertex 20.9142135623731 5.63993296509579e-015 3.58578643762691
   endloop
endfacet
facet normal -3.88578058618805e-016 -1.0 0.0
   outer loop
      vertex 20.9142135623731 5.63993296509579e-015 3.58578643762691
      vertex 25.0 8.45989944764369e-015 0.0
      vertex 21.2320508075688 5.63993296509579e-015 3.99999999999999
   endloop
endfacet
facet normal -3.88578058618805e-016 -1.0 0.0
   outer loop
      vertex 21.2320508075688 5.63993296509579e-015 3.99999999999999
      vertex 25.0 8.45989944764369e-015 0.0
      vertex 25.0 8.45989944764369e-015 10.0
   endloop
endfacet
facet normal -3.88578058618805e-016 -1.0 0.0
   outer loop
      vertex 0.0 8.45989944764369e-015 0.0
      vertex 20.0176380902051 1.12798659301916e-014 3.06814834742187
      vertex 19.5 8.45989944764369e-015 2.99999999999999
   endloop
endfacet
facet normal -3.88578058618805e-016 -1.0 0.0
   outer loop
      vertex 21.2320508075688 5.63993296509579e-015 3.99999999999999
      vertex 25.0 8.45989944764369e-015 10.0
      vertex 21.4318516525781 1.40998324127395e-014 4.48236190979497
   endloop
endfacet
facet normal -3.88578058618805e-016 -1.0 0.0
   outer loop
      vertex 21.4318516525781 1.40998324127395e-014 4.48236190979497
      vertex 25.0 8.45989944764369e-015 10.0
      vertex 21.5 0.0 4.99999999999999
   endloop
endfacet
facet normal -3.88578058618805e-016 -1.0 0.0
   outer loop
      vertex 21.5 0.0 4.99999999999999
      vertex 25.0 8.45989944764369e-015 10.0
      vertex 21.4318516525781 1.40998324127395e-014 5.51763809020504
   endloop
endfacet
facet normal -3.88578058618805e-016 -1.0 0.0
   outer loop
      vertex 21.4318516525781 1.40998324127395e-014 5.51763809020504
      vertex 25.0 8.45989944764369e-015 10.0
      vertex 21.2320508075688 5.63993296509579e-015 5.99999999999999
   endloop
endfacet
facet normal -3.88578058618805e-016 -1.0 0.0
   outer loop
      vertex 21.2320508075688 5.63993296509579e-015 5.99999999999999
      vertex 25.0 8.45989944764369e-015 10.0
      vertex 20.9142135623731 5.63993296509579e-015 6.41421356237309
   endloop
endfacet
facet normal -3.88578058618805e-016 -1.0 0.0
   outer loop
      vertex 20.9142135623731 5.63993296509579e-015 6.41421356237309
      vertex 25.0 8.45989944764369e-015 10.0
      vertex 20.2071067811866 2.8199664825479e-015 7.12132034355964
   endloop
endfacet
facet normal -3.88578058618805e-016 -1.0 0.0
   outer loop
      vertex 20.2071067811866 2.8199664825479e-015 7.12132034355964
      vertex 25.0 8.45989944764369e-015 10.0
      vertex 18.7928932188135 5.63993296509579e-015 7.12132034355964
   endloop
endfacet
facet normal -3.88578058618805e-016 -1.0 0.0
   outer loop
      vertex 18.7928932188135 5.63993296509579e-015 7.12132034355964
      vertex 25.0 8.45989944764369e-015 10.0
      vertex 6.20710678118652 1.40998324127395e-014 7.12132034355964
   endloop
endfacet
facet normal -3.88578058618805e-016 -1.0 0.0
   outer loop
      vertex 6.20710678118652 1.40998324127395e-014 7.12132034355964
      vertex 25.0 8.45989944764369e-015 10.0
      vertex 4.79289321881342 1.12798659301916e-014 7.12132034355964
   endloop
endfacet
facet normal -3.88578058618805e-016 -1.0 0.0
   outer loop
      vertex 0.0 8.45989944764369e-015 0.0
      vertex 3.76794919243115 5.63993296509579e-015 3.99999999999999
      vertex 0.0 8.45989944764369e-015 10.0
   endloop
endfacet
facet normal -3.88578058618805e-016 -1.0 0.0
   outer loop
      vertex 3.76794919243115 5.63993296509579e-015 3.99999999999999
      vertex 0.0 8.45989944764369e-015 0.0
      vertex 4.08578643762691 1.97397653778353e-014 3.58578643762691
   endloop
endfacet
facet normal -3.88578058618805e-016 -1.0 0.0
   outer loop
      vertex 4.08578643762691 1.97397653778353e-014 3.58578643762691
      vertex 0.0 8.45989944764369e-015 0.0
      vertex 4.49999999999997 1.40998324127395e-014 3.26794919243112
   endloop
endfacet
facet normal -3.88578058618805e-016 -1.0 0.0
   outer loop
      vertex 4.49999999999997 1.40998324127395e-014 3.26794919243112
      vertex 0.0 8.45989944764369e-015 0.0
      vertex 4.98236190979494 5.63993296509579e-015 3.06814834742187
   endloop
endfacet
facet normal -3.88578058618805e-016 -1.0 0.0
   outer loop
      vertex 4.98236190979494 5.63993296509579e-015 3.06814834742187
      vertex 0.0 8.45989944764369e-015 0.0
      vertex 5.50000000000002 1.69197988952874e-014 2.99999999999999
   endloop
endfacet
facet normal -3.88578058618805e-016 -1.0 0.0
   outer loop
      vertex 5.50000000000002 1.69197988952874e-014 2.99999999999999
      vertex 0.0 8.45989944764369e-015 0.0
      vertex 19.5 8.45989944764369e-015 2.99999999999999
   endloop
endfacet
facet normal -3.88578058618805e-016 -1.0 0.0
   outer loop
      vertex 0.0 8.45989944764369e-015 10.0
      vertex 3.76794919243115 5.63993296509579e-015 3.99999999999999
      vertex 3.56814834742185 1.40998324127395e-014 4.48236190979497
   endloop
endfacet
facet normal -3.88578058618805e-016 -1.0 0.0
   outer loop
      vertex 0.0 8.45989944764369e-015 10.0
      vertex 3.56814834742185 1.40998324127395e-014 4.48236190979497
      vertex 3.50000000000002 1.12798659301916e-014 4.99999999999999
   endloop
endfacet
facet normal -3.88578058618805e-016 -1.0 0.0
   outer loop
      vertex 0.0 8.45989944764369e-015 10.0
      vertex 3.50000000000002 1.12798659301916e-014 4.99999999999999
      vertex 3.56814834742185 1.40998324127395e-014 5.51763809020504
   endloop
endfacet
facet normal -3.88578058618805e-016 -1.0 0.0
   outer loop
      vertex 0.0 8.45989944764369e-015 10.0
      vertex 3.56814834742185 1.40998324127395e-014 5.51763809020504
      vertex 3.76794919243115 5.63993296509579e-015 5.99999999999999
   endloop
endfacet
facet normal -3.88578058618805e-016 -1.0 0.0
   outer loop
      vertex 0.0 8.45989944764369e-015 10.0
      vertex 3.76794919243115 5.63993296509579e-015 5.99999999999999
      vertex 4.08578643762691 1.97397653778353e-014 6.41421356237309
   endloop
endfacet
facet normal -3.88578058618805e-016 -1.0 0.0
   outer loop
      vertex 0.0 8.45989944764369e-015 10.0
      vertex 4.08578643762691 1.97397653778353e-014 6.41421356237309
      vertex 4.79289321881342 1.12798659301916e-014 7.12132034355964
   endloop
endfacet
facet normal -3.88578058618805e-016 -1.0 0.0
   outer loop
      vertex 0.0 8.45989944764369e-015 10.0
      vertex 4.79289321881342 1.12798659301916e-014 7.12132034355964
      vertex 25.0 8.45989944764369e-015 10.0
   endloop
endfacet
facet normal -3.88578058618805e-016 -1.0 0.0
   outer loop
      vertex 18.9823619097949 5.63993296509579e-015 3.06814834742187
      vertex 5.50000000000002 1.69197988952874e-014 2.99999999999999
      vertex 19.5 8.45989944764369e-015 2.99999999999999
   endloop
endfacet
facet normal -3.88578058618805e-016 -1.0 0.0
   outer loop
      vertex 5.50000000000002 1.69197988952874e-014 2.99999999999999
      vertex 18.9823619097949 5.63993296509579e-015 3.06814834742187
      vertex 6.01763809020508 8.45989944764369e-015 3.06814834742187
   endloop
endfacet
facet normal -3.88578058618805e-016 -1.0 0.0
   outer loop
      vertex 6.01763809020508 8.45989944764369e-015 3.06814834742187
      vertex 18.9823619097949 5.63993296509579e-015 3.06814834742187
      vertex 18.5 1.12798659301916e-014 3.26794919243112
   endloop
endfacet
facet normal -3.88578058618805e-016 -1.0 0.0
   outer loop
      vertex 6.01763809020508 8.45989944764369e-015 3.06814834742187
      vertex 18.5 1.12798659301916e-014 3.26794919243112
      vertex 6.49999999999997 5.63993296509579e-015 3.26794919243112
   endloop
endfacet
facet normal -3.88578058618805e-016 -1.0 0.0
   outer loop
      vertex 6.49999999999997 5.63993296509579e-015 3.26794919243112
      vertex 18.5 1.12798659301916e-014 3.26794919243112
      vertex 18.0857864376269 1.12798659301916e-014 3.58578643762691
   endloop
endfacet
facet normal -3.88578058618805e-016 -1.0 0.0
   outer loop
      vertex 6.49999999999997 5.63993296509579e-015 3.26794919243112
      vertex 18.0857864376269 1.12798659301916e-014 3.58578643762691
      vertex 6.91421356237311 8.45989944764369e-015 3.58578643762691
   endloop
endfacet
facet normal -3.88578058618805e-016 -1.0 0.0
   outer loop
      vertex 6.91421356237311 8.45989944764369e-015 3.58578643762691
      vertex 18.0857864376269 1.12798659301916e-014 3.58578643762691
      vertex 17.7679491924311 1.12798659301916e-014 3.99999999999999
   endloop
endfacet
facet normal -3.88578058618805e-016 -1.0 0.0
   outer loop
      vertex 6.91421356237311 8.45989944764369e-015 3.58578643762691
      vertex 17.7679491924311 1.12798659301916e-014 3.99999999999999
      vertex 7.23205080756888 1.69197988952874e-014 3.99999999999999
   endloop
endfacet
facet normal -3.88578058618805e-016 -1.0 0.0
   outer loop
      vertex 7.23205080756888 1.69197988952874e-014 3.99999999999999
      vertex 17.7679491924311 1.12798659301916e-014 3.99999999999999
      vertex 17.5681483474218 1.12798659301916e-014 4.48236190979497
   endloop
endfacet
facet normal -3.88578058618805e-016 -1.0 0.0
   outer loop
      vertex 7.23205080756888 1.69197988952874e-014 3.99999999999999
      vertex 17.5681483474218 1.12798659301916e-014 4.48236190979497
      vertex 7.43185165257818 5.63993296509579e-015 4.48236190979497
   endloop
endfacet
facet normal -3.88578058618805e-016 -1.0 0.0
   outer loop
      vertex 7.43185165257818 5.63993296509579e-015 4.48236190979497
      vertex 17.5681483474218 1.12798659301916e-014 4.48236190979497
      vertex 17.5 5.63993296509579e-015 4.99999999999999
   endloop
endfacet
facet normal -3.88578058618805e-016 -1.0 0.0
   outer loop
      vertex 7.43185165257818 5.63993296509579e-015 4.48236190979497
      vertex 17.5 5.63993296509579e-015 4.99999999999999
      vertex 7.50000000000001 5.63993296509579e-015 4.99999999999999
   endloop
endfacet
facet normal -3.88578058618805e-016 -1.0 0.0
   outer loop
      vertex 7.50000000000001 5.63993296509579e-015 4.99999999999999
      vertex 17.5 5.63993296509579e-015 4.99999999999999
      vertex 17.5681483474218 1.12798659301916e-014 5.51763809020504
   endloop
endfacet
facet normal -3.88578058618805e-016 -1.0 0.0
   outer loop
      vertex 7.50000000000001 5.63993296509579e-015 4.99999999999999
      vertex 17.5681483474218 1.12798659301916e-014 5.51763809020504
      vertex 7.43185165257818 5.63993296509579e-015 5.51763809020504
   endloop
endfacet
facet normal -3.88578058618805e-016 -1.0 0.0
   outer loop
      vertex 7.43185165257818 5.63993296509579e-015 5.51763809020504
      vertex 17.5681483474218 1.12798659301916e-014 5.51763809020504
      vertex 17.7679491924311 1.12798659301916e-014 5.99999999999999
   endloop
endfacet
facet normal -3.88578058618805e-016 -1.0 0.0
   outer loop
      vertex 7.43185165257818 5.63993296509579e-015 5.51763809020504
      vertex 17.7679491924311 1.12798659301916e-014 5.99999999999999
      vertex 7.23205080756888 1.69197988952874e-014 5.99999999999999
   endloop
endfacet
facet normal -3.88578058618805e-016 -1.0 0.0
   outer loop
      vertex 7.23205080756888 1.69197988952874e-014 5.99999999999999
      vertex 17.7679491924311 1.12798659301916e-014 5.99999999999999
      vertex 18.0857864376269 1.12798659301916e-014 6.41421356237309
   endloop
endfacet
facet normal -3.88578058618805e-016 -1.0 0.0
   outer loop
      vertex 7.23205080756888 1.69197988952874e-014 5.99999999999999
      vertex 18.0857864376269 1.12798659301916e-014 6.41421356237309
      vertex 6.91421356237311 8.45989944764369e-015 6.41421356237309
   endloop
endfacet
facet normal -3.88578058618805e-016 -1.0 0.0
   outer loop
      vertex 6.91421356237311 8.45989944764369e-015 6.41421356237309
      vertex 18.0857864376269 1.12798659301916e-014 6.41421356237309
      vertex 18.7928932188135 5.63993296509579e-015 7.12132034355964
   endloop
endfacet
facet normal -3.88578058618805e-016 -1.0 0.0
   outer loop
      vertex 6.91421356237311 8.45989944764369e-015 6.41421356237309
      vertex 18.7928932188135 5.63993296509579e-015 7.12132034355964
      vertex 6.20710678118652 1.40998324127395e-014 7.12132034355964
   endloop
endfacet
facet normal 1.0 -3.88578058618805e-016 0.0
   outer loop
      vertex 25.0 9.99999999999998 0.0
      vertex 25.0 8.45989944764369e-015 10.0
      vertex 25.0 8.45989944764369e-015 0.0
   endloop
endfacet
facet normal 1.0 -3.88578058618805e-016 0.0
   outer loop
      vertex 25.0 8.45989944764369e-015 10.0
      vertex 25.0 9.99999999999998 0.0
      vertex 25.0 9.99999999999998 10.0
   endloop
endfacet
facet normal 0.608761429008722 0.793353340291234 0.0
   outer loop
      vertex 9.67157287525385 7.17157287525379 10.0
      vertex 10.5 6.53589838486226 0.0
      vertex 9.67157287525385 7.17157287525379 0.0
   endloop
endfacet
facet normal 0.608761429008722 0.793353340291234 0.0
   outer loop
      vertex 10.5 6.53589838486226 0.0
      vertex 9.67157287525385 7.17157287525379 10.0
      vertex 10.5 6.53589838486226 10.0
   endloop
endfacet
facet normal 0.793353340291236 0.60876142900872 0.0
   outer loop
      vertex 9.03589838486223 8.0 0.0
      vertex 9.67157287525385 7.17157287525379 10.0
      vertex 9.67157287525385 7.17157287525379 0.0
   endloop
endfacet
facet normal 0.793353340291236 0.60876142900872 0.0
   outer loop
      vertex 9.67157287525385 7.17157287525379 10.0
      vertex 9.03589838486223 8.0 0.0
      vertex 9.03589838486223 8.0 10.0
   endloop
endfacet
facet normal 0.923879532511287 0.382683432365091 0.0
   outer loop
      vertex 8.63629669484371 8.9647238195899 0.0
      vertex 9.03589838486223 8.0 10.0
      vertex 9.03589838486223 8.0 0.0
   endloop
endfacet
facet normal 0.923879532511287 0.382683432365091 0.0
   outer loop
      vertex 9.03589838486223 8.0 10.0
      vertex 8.63629669484371 8.9647238195899 0.0
      vertex 8.63629669484371 8.9647238195899 10.0
   endloop
endfacet
facet normal -0.707106781186548 0.707106781186547 0.0
   outer loop
      vertex 17.3989794855663 9.99999999999999 10.0
      vertex 16.3637033051563 8.9647238195899 0.0
      vertex 16.3637033051563 8.9647238195899 10.0
   endloop
endfacet
facet normal -0.707106781186548 0.707106781186547 0.0
   outer loop
      vertex 16.3637033051563 8.9647238195899 0.0
      vertex 17.3989794855663 9.99999999999999 10.0
      vertex 17.3989794855663 9.99999999999999 0.0
   endloop
endfacet
facet normal -0.923879532511286 0.382683432365092 0.0
   outer loop
      vertex 16.3637033051563 8.9647238195899 10.0
      vertex 15.9641016151378 8.0 0.0
      vertex 15.9641016151378 8.0 10.0
   endloop
endfacet
facet normal -0.923879532511286 0.382683432365092 0.0
   outer loop
      vertex 15.9641016151378 8.0 0.0
      vertex 16.3637033051563 8.9647238195899 10.0
      vertex 16.3637033051563 8.9647238195899 0.0
   endloop
endfacet
facet normal 3.88578058618805e-016 1.0 0.0
   outer loop
      vertex 2.8199664825479e-015 9.99999999999999 0.0
      vertex 4.08578643762692 9.99999999999999 3.58578643762691
      vertex 7.60102051443367 9.99999999999999 0.0
   endloop
endfacet
facet normal 3.88578058618805e-016 1.0 0.0
   outer loop
      vertex 4.08578643762692 9.99999999999999 3.58578643762691
      vertex 2.8199664825479e-015 9.99999999999999 0.0
      vertex 3.76794919243115 9.99999999999999 3.99999999999999
   endloop
endfacet
facet normal 3.88578058618805e-016 1.0 0.0
   outer loop
      vertex 3.76794919243115 9.99999999999999 3.99999999999999
      vertex 2.8199664825479e-015 9.99999999999999 0.0
      vertex 2.8199664825479e-015 9.99999999999999 10.0
   endloop
endfacet
facet normal 3.88578058618805e-016 1.0 0.0
   outer loop
      vertex 7.60102051443367 9.99999999999999 0.0
      vertex 4.08578643762692 9.99999999999999 3.58578643762691
      vertex 4.49999999999997 9.99999999999999 3.26794919243112
   endloop
endfacet
facet normal 3.88578058618805e-016 1.0 0.0
   outer loop
      vertex 7.60102051443367 9.99999999999999 0.0
      vertex 4.49999999999997 9.99999999999999 3.26794919243112
      vertex 4.98236190979495 10.0 3.06814834742187
   endloop
endfacet
facet normal 3.88578058618805e-016 1.0 0.0
   outer loop
      vertex 7.60102051443367 9.99999999999999 0.0
      vertex 4.98236190979495 10.0 3.06814834742187
      vertex 5.50000000000002 9.99999999999999 2.99999999999999
   endloop
endfacet
facet normal 3.88578058618805e-016 1.0 0.0
   outer loop
      vertex 3.76794919243115 9.99999999999999 3.99999999999999
      vertex 2.8199664825479e-015 9.99999999999999 10.0
      vertex 3.56814834742185 9.99999999999999 4.48236190979497
   endloop
endfacet
facet normal 3.88578058618805e-016 1.0 0.0
   outer loop
      vertex 3.56814834742185 9.99999999999999 4.48236190979497
      vertex 2.8199664825479e-015 9.99999999999999 10.0
      vertex 3.50000000000002 9.99999999999999 4.99999999999999
   endloop
endfacet
facet normal 3.88578058618805e-016 1.0 0.0
   outer loop
      vertex 3.50000000000002 9.99999999999999 4.99999999999999
      vertex 2.8199664825479e-015 9.99999999999999 10.0
      vertex 3.56814834742185 9.99999999999999 5.51763809020504
   endloop
endfacet
facet normal 3.88578058618805e-016 1.0 0.0
   outer loop
      vertex 3.56814834742185 9.99999999999999 5.51763809020504
      vertex 2.8199664825479e-015 9.99999999999999 10.0
      vertex 3.76794919243115 9.99999999999999 5.99999999999999
   endloop
endfacet
facet normal 3.88578058618805e-016 1.0 0.0
   outer loop
      vertex 3.76794919243115 9.99999999999999 5.99999999999999
      vertex 2.8199664825479e-015 9.99999999999999 10.0
      vertex 4.08578643762692 9.99999999999999 6.41421356237309
   endloop
endfacet
facet normal 3.88578058618805e-016 1.0 0.0
   outer loop
      vertex 4.08578643762692 9.99999999999999 6.41421356237309
      vertex 2.8199664825479e-015 9.99999999999999 10.0
      vertex 4.79289321881342 9.99999999999999 7.12132034355964
   endloop
endfacet
facet normal 3.88578058618805e-016 1.0 0.0
   outer loop
      vertex 4.79289321881342 9.99999999999999 7.12132034355964
      vertex 2.8199664825479e-015 9.99999999999999 10.0
      vertex 6.20710678118652 9.99999999999999 7.12132034355964
   endloop
endfacet
facet normal 3.88578058618805e-016 1.0 0.0
   outer loop
      vertex 7.60102051443367 9.99999999999999 0.0
      vertex 7.50000000000001 9.99999999999999 4.99999999999999
      vertex 7.60102051443367 9.99999999999999 10.0
   endloop
endfacet
facet normal 3.88578058618805e-016 1.0 0.0
   outer loop
      vertex 7.50000000000001 9.99999999999999 4.99999999999999
      vertex 7.60102051443367 9.99999999999999 0.0
      vertex 7.43185165257818 9.99999999999999 4.48236190979497
   endloop
endfacet
facet normal 3.88578058618805e-016 1.0 0.0
   outer loop
      vertex 7.43185165257818 9.99999999999999 4.48236190979497
      vertex 7.60102051443367 9.99999999999999 0.0
      vertex 7.23205080756888 9.99999999999999 3.99999999999999
   endloop
endfacet
facet normal 3.88578058618805e-016 1.0 0.0
   outer loop
      vertex 7.23205080756888 9.99999999999999 3.99999999999999
      vertex 7.60102051443367 9.99999999999999 0.0
      vertex 6.91421356237312 9.99999999999999 3.58578643762691
   endloop
endfacet
facet normal 3.88578058618805e-016 1.0 0.0
   outer loop
      vertex 6.91421356237312 9.99999999999999 3.58578643762691
      vertex 7.60102051443367 9.99999999999999 0.0
      vertex 6.49999999999997 9.99999999999999 3.26794919243112
   endloop
endfacet
facet normal 3.88578058618805e-016 1.0 0.0
   outer loop
      vertex 6.49999999999997 9.99999999999999 3.26794919243112
      vertex 7.60102051443367 9.99999999999999 0.0
      vertex 6.01763809020508 9.99999999999999 3.06814834742187
   endloop
endfacet
facet normal 3.88578058618805e-016 1.0 0.0
   outer loop
      vertex 6.01763809020508 9.99999999999999 3.06814834742187
      vertex 7.60102051443367 9.99999999999999 0.0
      vertex 5.50000000000002 9.99999999999999 2.99999999999999
   endloop
endfacet
facet normal 3.88578058618805e-016 1.0 0.0
   outer loop
      vertex 7.60102051443367 9.99999999999999 10.0
      vertex 7.50000000000001 9.99999999999999 4.99999999999999
      vertex 7.43185165257818 9.99999999999999 5.51763809020504
   endloop
endfacet
facet normal 3.88578058618805e-016 1.0 0.0
   outer loop
      vertex 7.60102051443367 9.99999999999999 10.0
      vertex 7.43185165257818 9.99999999999999 5.51763809020504
      vertex 7.23205080756888 9.99999999999999 5.99999999999999
   endloop
endfacet
facet normal 3.88578058618805e-016 1.0 0.0
   outer loop
      vertex 7.60102051443367 9.99999999999999 10.0
      vertex 7.23205080756888 9.99999999999999 5.99999999999999
      vertex 6.91421356237312 9.99999999999999 6.41421356237309
   endloop
endfacet
facet normal 3.88578058618805e-016 1.0 0.0
   outer loop
      vertex 7.60102051443367 9.99999999999999 10.0
      vertex 6.91421356237312 9.99999999999999 6.41421356237309
      vertex 6.20710678118652 9.99999999999999 7.12132034355964
   endloop
endfacet
facet normal 3.88578058618805e-016 1.0 0.0
   outer loop
      vertex 7.60102051443367 9.99999999999999 10.0
      vertex 6.20710678118652 9.99999999999999 7.12132034355964
      vertex 2.8199664825479e-015 9.99999999999999 10.0
   endloop
endfacet
facet normal 0.130526192220053 0.99144486137381 0.0
   outer loop
      vertex 11.4647238195899 6.13629669484375 10.0
      vertex 12.5 6.0 0.0
      vertex 11.4647238195899 6.13629669484375 0.0
   endloop
endfacet
facet normal 0.130526192220053 0.99144486137381 0.0
   outer loop
      vertex 12.5 6.0 0.0
      vertex 11.4647238195899 6.13629669484375 10.0
      vertex 12.5 6.0 10.0
   endloop
endfacet
facet normal -0.130526192220051 0.991444861373811 0.0
   outer loop
      vertex 12.5 6.0 10.0
      vertex 13.5352761804101 6.13629669484375 0.0
      vertex 12.5 6.0 0.0
   endloop
endfacet
facet normal -0.130526192220051 0.991444861373811 0.0
   outer loop
      vertex 13.5352761804101 6.13629669484375 0.0
      vertex 12.5 6.0 10.0
      vertex 13.5352761804101 6.13629669484375 10.0
   endloop
endfacet
facet normal -0.923879532511286 3.60822483003176e-016 -0.382683432365092
   outer loop
      vertex 7.23205080756888 1.69197988952874e-014 5.99999999999999
      vertex 7.43185165257818 9.99999999999999 5.51763809020504
      vertex 7.43185165257818 5.63993296509579e-015 5.51763809020504
   endloop
endfacet
facet normal -0.923879532511286 3.60822483003176e-016 -0.382683432365092
   outer loop
      vertex 7.43185165257818 9.99999999999999 5.51763809020504
      vertex 7.23205080756888 1.69197988952874e-014 5.99999999999999
      vertex 7.23205080756888 9.99999999999999 5.99999999999999
   endloop
endfacet
facet normal -0.99144486137381 4.16333634234434e-016 -0.130526192220052
   outer loop
      vertex 7.43185165257818 9.99999999999999 5.51763809020504
      vertex 7.50000000000001 5.63993296509579e-015 4.99999999999999
      vertex 7.43185165257818 5.63993296509579e-015 5.51763809020504
   endloop
endfacet
facet normal -0.99144486137381 4.16333634234434e-016 -0.130526192220052
   outer loop
      vertex 7.50000000000001 5.63993296509579e-015 4.99999999999999
      vertex 7.43185165257818 9.99999999999999 5.51763809020504
      vertex 7.50000000000001 9.99999999999999 4.99999999999999
   endloop
endfacet
facet normal -0.99144486137381 4.16333634234434e-016 0.130526192220052
   outer loop
      vertex 7.50000000000001 9.99999999999999 4.99999999999999
      vertex 7.43185165257818 5.63993296509579e-015 4.48236190979497
      vertex 7.50000000000001 5.63993296509579e-015 4.99999999999999
   endloop
endfacet
facet normal -0.99144486137381 4.16333634234434e-016 0.130526192220052
   outer loop
      vertex 7.43185165257818 5.63993296509579e-015 4.48236190979497
      vertex 7.50000000000001 9.99999999999999 4.99999999999999
      vertex 7.43185165257818 9.99999999999999 4.48236190979497
   endloop
endfacet
facet normal -0.923879532511288 3.60822483003176e-016 0.382683432365087
   outer loop
      vertex 7.43185165257818 9.99999999999999 4.48236190979497
      vertex 7.23205080756888 1.69197988952874e-014 3.99999999999999
      vertex 7.43185165257818 5.63993296509579e-015 4.48236190979497
   endloop
endfacet
facet normal -0.923879532511288 3.60822483003176e-016 0.382683432365087
   outer loop
      vertex 7.23205080756888 1.69197988952874e-014 3.99999999999999
      vertex 7.43185165257818 9.99999999999999 4.48236190979497
      vertex 7.23205080756888 9.99999999999999 3.99999999999999
   endloop
endfacet
facet normal 0.99144486137381 -4.16333634234434e-016 0.130526192220052
   outer loop
      vertex 3.56814834742185 1.40998324127395e-014 4.48236190979497
      vertex 3.50000000000002 9.99999999999999 4.99999999999999
      vertex 3.50000000000002 1.12798659301916e-014 4.99999999999999
   endloop
endfacet
facet normal 0.99144486137381 -4.16333634234434e-016 0.130526192220052
   outer loop
      vertex 3.50000000000002 9.99999999999999 4.99999999999999
      vertex 3.56814834742185 1.40998324127395e-014 4.48236190979497
      vertex 3.56814834742185 9.99999999999999 4.48236190979497
   endloop
endfacet
facet normal 0.99144486137381 -4.16333634234434e-016 -0.130526192220052
   outer loop
      vertex 3.50000000000002 9.99999999999999 4.99999999999999
      vertex 3.56814834742185 1.40998324127395e-014 5.51763809020504
      vertex 3.50000000000002 1.12798659301916e-014 4.99999999999999
   endloop
endfacet
facet normal 0.99144486137381 -4.16333634234434e-016 -0.130526192220052
   outer loop
      vertex 3.56814834742185 1.40998324127395e-014 5.51763809020504
      vertex 3.50000000000002 9.99999999999999 4.99999999999999
      vertex 3.56814834742185 9.99999999999999 5.51763809020504
   endloop
endfacet
facet normal 0.923879532511286 -3.60822483003176e-016 -0.382683432365092
   outer loop
      vertex 3.56814834742185 1.40998324127395e-014 5.51763809020504
      vertex 3.76794919243115 9.99999999999999 5.99999999999999
      vertex 3.76794919243115 5.63993296509579e-015 5.99999999999999
   endloop
endfacet
facet normal 0.923879532511286 -3.60822483003176e-016 -0.382683432365092
   outer loop
      vertex 3.76794919243115 9.99999999999999 5.99999999999999
      vertex 3.56814834742185 1.40998324127395e-014 5.51763809020504
      vertex 3.56814834742185 9.99999999999999 5.51763809020504
   endloop
endfacet
facet normal 0.793353340291238 -3.05311331771918e-016 -0.608761429008717
   outer loop
      vertex 3.76794919243115 9.99999999999999 5.99999999999999
      vertex 4.08578643762691 1.97397653778353e-014 6.41421356237309
      vertex 3.76794919243115 5.63993296509579e-015 5.99999999999999
   endloop
endfacet
facet normal 0.793353340291238 -3.05311331771918e-016 -0.608761429008717
   outer loop
      vertex 4.08578643762691 1.97397653778353e-014 6.41421356237309
      vertex 3.76794919243115 9.99999999999999 5.99999999999999
      vertex 4.08578643762692 9.99999999999999 6.41421356237309
   endloop
endfacet
facet normal 0.707106781186548 -2.22044604925031e-016 -0.707106781186547
   outer loop
      vertex 4.08578643762691 1.97397653778353e-014 6.41421356237309
      vertex 4.79289321881342 9.99999999999999 7.12132034355964
      vertex 4.79289321881342 1.12798659301916e-014 7.12132034355964
   endloop
endfacet
facet normal 0.707106781186548 -2.22044604925031e-016 -0.707106781186547
   outer loop
      vertex 4.79289321881342 9.99999999999999 7.12132034355964
      vertex 4.08578643762691 1.97397653778353e-014 6.41421356237309
      vertex 4.08578643762692 9.99999999999999 6.41421356237309
   endloop
endfacet
facet normal 6.0212043388957e-047 1.55703761470907e-031 -1.0
   outer loop
      vertex 4.79289321881342 9.99999999999999 7.12132034355964
      vertex 6.20710678118652 1.40998324127395e-014 7.12132034355964
      vertex 4.79289321881342 1.12798659301916e-014 7.12132034355964
   endloop
endfacet
facet normal 6.0212043388957e-047 1.55703761470907e-031 -1.0
   outer loop
      vertex 6.20710678118652 1.40998324127395e-014 7.12132034355964
      vertex 4.79289321881342 9.99999999999999 7.12132034355964
      vertex 6.20710678118652 9.99999999999999 7.12132034355964
   endloop
endfacet
facet normal -0.707106781186548 2.22044604925031e-016 -0.707106781186547
   outer loop
      vertex 6.20710678118652 1.40998324127395e-014 7.12132034355964
      vertex 6.91421356237312 9.99999999999999 6.41421356237309
      vertex 6.91421356237311 8.45989944764369e-015 6.41421356237309
   endloop
endfacet
facet normal -0.707106781186548 2.22044604925031e-016 -0.707106781186547
   outer loop
      vertex 6.91421356237312 9.99999999999999 6.41421356237309
      vertex 6.20710678118652 1.40998324127395e-014 7.12132034355964
      vertex 6.20710678118652 9.99999999999999 7.12132034355964
   endloop
endfacet
facet normal -0.793353340291235 3.05311331771918e-016 -0.608761429008721
   outer loop
      vertex 6.91421356237312 9.99999999999999 6.41421356237309
      vertex 7.23205080756888 1.69197988952874e-014 5.99999999999999
      vertex 6.91421356237311 8.45989944764369e-015 6.41421356237309
   endloop
endfacet
facet normal -0.793353340291235 3.05311331771918e-016 -0.608761429008721
   outer loop
      vertex 7.23205080756888 1.69197988952874e-014 5.99999999999999
      vertex 6.91421356237312 9.99999999999999 6.41421356237309
      vertex 7.23205080756888 9.99999999999999 5.99999999999999
   endloop
endfacet
facet normal -0.793353340291236 3.05311331771918e-016 0.60876142900872
   outer loop
      vertex 7.23205080756888 1.69197988952874e-014 3.99999999999999
      vertex 6.91421356237312 9.99999999999999 3.58578643762691
      vertex 6.91421356237311 8.45989944764369e-015 3.58578643762691
   endloop
endfacet
facet normal -0.793353340291236 3.05311331771918e-016 0.60876142900872
   outer loop
      vertex 6.91421356237312 9.99999999999999 3.58578643762691
      vertex 7.23205080756888 1.69197988952874e-014 3.99999999999999
      vertex 7.23205080756888 9.99999999999999 3.99999999999999
   endloop
endfacet
facet normal -0.608761429008721 2.22044604925031e-016 0.793353340291235
   outer loop
      vertex 6.49999999999997 5.63993296509579e-015 3.26794919243112
      vertex 6.91421356237312 9.99999999999999 3.58578643762691
      vertex 6.49999999999997 9.99999999999999 3.26794919243112
   endloop
endfacet
facet normal -0.608761429008721 2.22044604925031e-016 0.793353340291235
   outer loop
      vertex 6.91421356237312 9.99999999999999 3.58578643762691
      vertex 6.49999999999997 5.63993296509579e-015 3.26794919243112
      vertex 6.91421356237311 8.45989944764369e-015 3.58578643762691
   endloop
endfacet
facet normal -0.38268343236509 1.66533453693773e-016 0.923879532511287
   outer loop
      vertex 6.49999999999997 5.63993296509579e-015 3.26794919243112
      vertex 6.01763809020508 9.99999999999999 3.06814834742187
      vertex 6.01763809020508 8.45989944764369e-015 3.06814834742187
   endloop
endfacet
facet normal -0.38268343236509 1.66533453693773e-016 0.923879532511287
   outer loop
      vertex 6.01763809020508 9.99999999999999 3.06814834742187
      vertex 6.49999999999997 5.63993296509579e-015 3.26794919243112
      vertex 6.49999999999997 9.99999999999999 3.26794919243112
   endloop
endfacet
facet normal -0.130526192220052 4.16333634234434e-017 0.99144486137381
   outer loop
      vertex 6.01763809020508 8.45989944764369e-015 3.06814834742187
      vertex 5.50000000000002 9.99999999999999 2.99999999999999
      vertex 5.50000000000002 1.69197988952874e-014 2.99999999999999
   endloop
endfacet
facet normal -0.130526192220052 4.16333634234434e-017 0.99144486137381
   outer loop
      vertex 5.50000000000002 9.99999999999999 2.99999999999999
      vertex 6.01763809020508 8.45989944764369e-015 3.06814834742187
      vertex 6.01763809020508 9.99999999999999 3.06814834742187
   endloop
endfacet
facet normal 0.130526192220051 -4.16333634234434e-017 0.99144486137381
   outer loop
      vertex 5.50000000000002 1.69197988952874e-014 2.99999999999999
      vertex 4.98236190979495 10.0 3.06814834742187
      vertex 4.98236190979494 5.63993296509579e-015 3.06814834742187
   endloop
endfacet
facet normal 0.130526192220051 -4.16333634234434e-017 0.99144486137381
   outer loop
      vertex 4.98236190979495 10.0 3.06814834742187
      vertex 5.50000000000002 1.69197988952874e-014 2.99999999999999
      vertex 5.50000000000002 9.99999999999999 2.99999999999999
   endloop
endfacet
facet normal 0.38268343236509 -1.66533453693773e-016 0.923879532511287
   outer loop
      vertex 4.98236190979494 5.63993296509579e-015 3.06814834742187
      vertex 4.49999999999997 9.99999999999999 3.26794919243112
      vertex 4.49999999999997 1.40998324127395e-014 3.26794919243112
   endloop
endfacet
facet normal 0.38268343236509 -1.66533453693773e-016 0.923879532511287
   outer loop
      vertex 4.49999999999997 9.99999999999999 3.26794919243112
      vertex 4.98236190979494 5.63993296509579e-015 3.06814834742187
      vertex 4.98236190979495 10.0 3.06814834742187
   endloop
endfacet
facet normal 0.608761429008721 -2.22044604925031e-016 0.793353340291235
   outer loop
      vertex 4.49999999999997 1.40998324127395e-014 3.26794919243112
      vertex 4.08578643762692 9.99999999999999 3.58578643762691
      vertex 4.08578643762691 1.97397653778353e-014 3.58578643762691
   endloop
endfacet
facet normal 0.608761429008721 -2.22044604925031e-016 0.793353340291235
   outer loop
      vertex 4.08578643762692 9.99999999999999 3.58578643762691
      vertex 4.49999999999997 1.40998324127395e-014 3.26794919243112
      vertex 4.49999999999997 9.99999999999999 3.26794919243112
   endloop
endfacet
facet normal 0.923879532511286 -3.60822483003176e-016 0.382683432365091
   outer loop
      vertex 3.76794919243115 9.99999999999999 3.99999999999999
      vertex 3.56814834742185 1.40998324127395e-014 4.48236190979497
      vertex 3.76794919243115 5.63993296509579e-015 3.99999999999999
   endloop
endfacet
facet normal 0.923879532511286 -3.60822483003176e-016 0.382683432365091
   outer loop
      vertex 3.56814834742185 1.40998324127395e-014 4.48236190979497
      vertex 3.76794919243115 9.99999999999999 3.99999999999999
      vertex 3.56814834742185 9.99999999999999 4.48236190979497
   endloop
endfacet
facet normal 0.793353340291237 -2.77555756156289e-016 0.608761429008718
   outer loop
      vertex 4.08578643762691 1.97397653778353e-014 3.58578643762691
      vertex 3.76794919243115 9.99999999999999 3.99999999999999
      vertex 3.76794919243115 5.63993296509579e-015 3.99999999999999
   endloop
endfacet
facet normal 0.793353340291237 -2.77555756156289e-016 0.608761429008718
   outer loop
      vertex 3.76794919243115 9.99999999999999 3.99999999999999
      vertex 4.08578643762691 1.97397653778353e-014 3.58578643762691
      vertex 4.08578643762692 9.99999999999999 3.58578643762691
   endloop
endfacet
facet normal -0.923879532511286 3.60822483003176e-016 -0.382683432365092
   outer loop
      vertex 21.2320508075688 9.99999999999999 5.99999999999999
      vertex 21.4318516525781 1.40998324127395e-014 5.51763809020504
      vertex 21.2320508075688 5.63993296509579e-015 5.99999999999999
   endloop
endfacet
facet normal -0.923879532511286 3.60822483003176e-016 -0.382683432365092
   outer loop
      vertex 21.4318516525781 1.40998324127395e-014 5.51763809020504
      vertex 21.2320508075688 9.99999999999999 5.99999999999999
      vertex 21.4318516525782 9.99999999999999 5.51763809020504
   endloop
endfacet
facet normal -0.99144486137381 4.16333634234434e-016 0.130526192220052
   outer loop
      vertex 21.5 9.99999999999999 4.99999999999999
      vertex 21.4318516525781 1.40998324127395e-014 4.48236190979497
      vertex 21.5 0.0 4.99999999999999
   endloop
endfacet
facet normal -0.99144486137381 4.16333634234434e-016 0.130526192220052
   outer loop
      vertex 21.4318516525781 1.40998324127395e-014 4.48236190979497
      vertex 21.5 9.99999999999999 4.99999999999999
      vertex 21.4318516525782 9.99999999999999 4.48236190979497
   endloop
endfacet
facet normal -0.99144486137381 4.16333634234434e-016 -0.130526192220052
   outer loop
      vertex 21.4318516525781 1.40998324127395e-014 5.51763809020504
      vertex 21.5 9.99999999999999 4.99999999999999
      vertex 21.5 0.0 4.99999999999999
   endloop
endfacet
facet normal -0.99144486137381 4.16333634234434e-016 -0.130526192220052
   outer loop
      vertex 21.5 9.99999999999999 4.99999999999999
      vertex 21.4318516525781 1.40998324127395e-014 5.51763809020504
      vertex 21.4318516525782 9.99999999999999 5.51763809020504
   endloop
endfacet
facet normal 0.0 0.0 1.0
   outer loop
      vertex 25.0 8.45989944764369e-015 10.0
      vertex 2.8199664825479e-015 9.99999999999999 10.0
      vertex 0.0 8.45989944764369e-015 10.0
   endloop
endfacet
facet normal 0.0 0.0 1.0
   outer loop
      vertex 2.8199664825479e-015 9.99999999999999 10.0
      vertex 25.0 8.45989944764369e-015 10.0
      vertex 10.5 6.53589838486226 10.0
   endloop
endfacet
facet normal 0.0 0.0 1.0
   outer loop
      vertex 2.8199664825479e-015 9.99999999999999 10.0
      vertex 10.5 6.53589838486226 10.0
      vertex 9.67157287525385 7.17157287525379 10.0
   endloop
endfacet
facet normal 0.0 0.0 1.0
   outer loop
      vertex 2.8199664825479e-015 9.99999999999999 10.0
      vertex 9.67157287525385 7.17157287525379 10.0
      vertex 9.03589838486223 8.0 10.0
   endloop
endfacet
facet normal 0.0 0.0 1.0
   outer loop
      vertex 2.8199664825479e-015 9.99999999999999 10.0
      vertex 9.03589838486223 8.0 10.0
      vertex 7.60102051443367 9.99999999999999 10.0
   endloop
endfacet
facet normal 0.0 0.0 1.0
   outer loop
      vertex 7.60102051443367 9.99999999999999 10.0
      vertex 9.03589838486223 8.0 10.0
      vertex 8.63629669484371 8.9647238195899 10.0
   endloop
endfacet
facet normal 0.0 0.0 1.0
   outer loop
      vertex 10.5 6.53589838486226 10.0
      vertex 25.0 8.45989944764369e-015 10.0
      vertex 11.4647238195899 6.13629669484375 10.0
   endloop
endfacet
facet normal 0.0 0.0 1.0
   outer loop
      vertex 11.4647238195899 6.13629669484375 10.0
      vertex 25.0 8.45989944764369e-015 10.0
      vertex 12.5 6.0 10.0
   endloop
endfacet
facet normal 0.0 0.0 1.0
   outer loop
      vertex 12.5 6.0 10.0
      vertex 25.0 8.45989944764369e-015 10.0
      vertex 13.5352761804101 6.13629669484375 10.0
   endloop
endfacet
facet normal 0.0 0.0 1.0
   outer loop
      vertex 13.5352761804101 6.13629669484375 10.0
      vertex 25.0 8.45989944764369e-015 10.0
      vertex 14.5 6.53589838486225 10.0
   endloop
endfacet
facet normal 0.0 0.0 1.0
   outer loop
      vertex 14.5 6.53589838486225 10.0
      vertex 25.0 8.45989944764369e-015 10.0
      vertex 15.3284271247462 7.17157287525379 10.0
   endloop
endfacet
facet normal 0.0 0.0 1.0
   outer loop
      vertex 15.3284271247462 7.17157287525379 10.0
      vertex 25.0 8.45989944764369e-015 10.0
      vertex 15.9641016151378 8.0 10.0
   endloop
endfacet
facet normal 0.0 0.0 1.0
   outer loop
      vertex 15.9641016151378 8.0 10.0
      vertex 25.0 8.45989944764369e-015 10.0
      vertex 16.3637033051563 8.9647238195899 10.0
   endloop
endfacet
facet normal 0.0 0.0 1.0
   outer loop
      vertex 16.3637033051563 8.9647238195899 10.0
      vertex 25.0 8.45989944764369e-015 10.0
      vertex 17.3989794855663 9.99999999999999 10.0
   endloop
endfacet
facet normal 0.0 0.0 1.0
   outer loop
      vertex 17.3989794855663 9.99999999999999 10.0
      vertex 25.0 8.45989944764369e-015 10.0
      vertex 25.0 9.99999999999998 10.0
   endloop
endfacet
facet normal 0.0 0.0 -1.0
   outer loop
      vertex 2.8199664825479e-015 9.99999999999999 0.0
      vertex 25.0 8.45989944764369e-015 0.0
      vertex 0.0 8.45989944764369e-015 0.0
   endloop
endfacet
facet normal 0.0 0.0 -1.0
   outer loop
      vertex 25.0 8.45989944764369e-015 0.0
      vertex 2.8199664825479e-015 9.99999999999999 0.0
      vertex 10.5 6.53589838486226 0.0
   endloop
endfacet
facet normal 0.0 0.0 -1.0
   outer loop
      vertex 10.5 6.53589838486226 0.0
      vertex 2.8199664825479e-015 9.99999999999999 0.0
      vertex 9.67157287525385 7.17157287525379 0.0
   endloop
endfacet
facet normal 0.0 0.0 -1.0
   outer loop
      vertex 9.67157287525385 7.17157287525379 0.0
      vertex 2.8199664825479e-015 9.99999999999999 0.0
      vertex 9.03589838486223 8.0 0.0
   endloop
endfacet
facet normal 0.0 0.0 -1.0
   outer loop
      vertex 9.03589838486223 8.0 0.0
      vertex 2.8199664825479e-015 9.99999999999999 0.0
      vertex 7.60102051443367 9.99999999999999 0.0
   endloop
endfacet
facet normal 0.0 0.0 -1.0
   outer loop
      vertex 9.03589838486223 8.0 0.0
      vertex 7.60102051443367 9.99999999999999 0.0
      vertex 8.63629669484371 8.9647238195899 0.0
   endloop
endfacet
facet normal 0.0 0.0 -1.0
   outer loop
      vertex 25.0 8.45989944764369e-015 0.0
      vertex 10.5 6.53589838486226 0.0
      vertex 11.4647238195899 6.13629669484375 0.0
   endloop
endfacet
facet normal 0.0 0.0 -1.0
   outer loop
      vertex 25.0 8.45989944764369e-015 0.0
      vertex 11.4647238195899 6.13629669484375 0.0
      vertex 12.5 6.0 0.0
   endloop
endfacet
facet normal 0.0 0.0 -1.0
   outer loop
      vertex 25.0 8.45989944764369e-015 0.0
      vertex 12.5 6.0 0.0
      vertex 13.5352761804101 6.13629669484375 0.0
   endloop
endfacet
facet normal 0.0 0.0 -1.0
   outer loop
      vertex 25.0 8.45989944764369e-015 0.0
      vertex 13.5352761804101 6.13629669484375 0.0
      vertex 14.5 6.53589838486225 0.0
   endloop
endfacet
facet normal 0.0 0.0 -1.0
   outer loop
      vertex 25.0 8.45989944764369e-015 0.0
      vertex 14.5 6.53589838486225 0.0
      vertex 15.3284271247462 7.17157287525379 0.0
   endloop
endfacet
facet normal 0.0 0.0 -1.0
   outer loop
      vertex 25.0 8.45989944764369e-015 0.0
      vertex 15.3284271247462 7.17157287525379 0.0
      vertex 15.9641016151378 8.0 0.0
   endloop
endfacet
facet normal 0.0 0.0 -1.0
   outer loop
      vertex 25.0 8.45989944764369e-015 0.0
      vertex 15.9641016151378 8.0 0.0
      vertex 16.3637033051563 8.9647238195899 0.0
   endloop
endfacet
facet normal 0.0 0.0 -1.0
   outer loop
      vertex 25.0 8.45989944764369e-015 0.0
      vertex 16.3637033051563 8.9647238195899 0.0
      vertex 17.3989794855663 9.99999999999999 0.0
   endloop
endfacet
facet normal 0.0 0.0 -1.0
   outer loop
      vertex 25.0 8.45989944764369e-015 0.0
      vertex 17.3989794855663 9.99999999999999 0.0
      vertex 25.0 9.99999999999998 0.0
   endloop
endfacet
facet normal -1.0 3.88578058618805e-016 0.0
   outer loop
      vertex 2.8199664825479e-015 9.99999999999999 10.0
      vertex 0.0 8.45989944764369e-015 0.0
      vertex 0.0 8.45989944764369e-015 10.0
   endloop
endfacet
facet normal -1.0 3.88578058618805e-016 0.0
   outer loop
      vertex 0.0 8.45989944764369e-015 0.0
      vertex 2.8199664825479e-015 9.99999999999999 10.0
      vertex 2.8199664825479e-015 9.99999999999999 0.0
   endloop
endfacet
facet normal 3.88578058618805e-016 1.0 0.0
   outer loop
      vertex 17.3989794855663 9.99999999999999 0.0
      vertex 18.5 9.99999999999999 3.26794919243112
      vertex 25.0 9.99999999999998 0.0
   endloop
endfacet
facet normal 3.88578058618805e-016 1.0 0.0
   outer loop
      vertex 18.5 9.99999999999999 3.26794919243112
      vertex 17.3989794855663 9.99999999999999 0.0
      vertex 18.0857864376269 9.99999999999999 3.58578643762691
   endloop
endfacet
facet normal 3.88578058618805e-016 1.0 0.0
   outer loop
      vertex 18.0857864376269 9.99999999999999 3.58578643762691
      vertex 17.3989794855663 9.99999999999999 0.0
      vertex 17.7679491924311 9.99999999999999 3.99999999999999
   endloop
endfacet
facet normal 3.88578058618805e-016 1.0 0.0
   outer loop
      vertex 17.7679491924311 9.99999999999999 3.99999999999999
      vertex 17.3989794855663 9.99999999999999 0.0
      vertex 17.5681483474218 9.99999999999999 4.48236190979497
   endloop
endfacet
facet normal 3.88578058618805e-016 1.0 0.0
   outer loop
      vertex 17.5681483474218 9.99999999999999 4.48236190979497
      vertex 17.3989794855663 9.99999999999999 0.0
      vertex 17.5 9.99999999999999 4.99999999999999
   endloop
endfacet
facet normal 3.88578058618805e-016 1.0 0.0
   outer loop
      vertex 17.5 9.99999999999999 4.99999999999999
      vertex 17.3989794855663 9.99999999999999 0.0
      vertex 17.3989794855663 9.99999999999999 10.0
   endloop
endfacet
facet normal 3.88578058618805e-016 1.0 0.0
   outer loop
      vertex 25.0 9.99999999999998 0.0
      vertex 18.5 9.99999999999999 3.26794919243112
      vertex 18.9823619097949 9.99999999999999 3.06814834742187
   endloop
endfacet
facet normal 3.88578058618805e-016 1.0 0.0
   outer loop
      vertex 25.0 9.99999999999998 0.0
      vertex 18.9823619097949 9.99999999999999 3.06814834742187
      vertex 19.5 9.99999999999999 2.99999999999999
   endloop
endfacet
facet normal 3.88578058618805e-016 1.0 0.0
   outer loop
      vertex 17.5 9.99999999999999 4.99999999999999
      vertex 17.3989794855663 9.99999999999999 10.0
      vertex 17.5681483474218 9.99999999999999 5.51763809020504
   endloop
endfacet
facet normal 3.88578058618805e-016 1.0 0.0
   outer loop
      vertex 17.5681483474218 9.99999999999999 5.51763809020504
      vertex 17.3989794855663 9.99999999999999 10.0
      vertex 17.7679491924311 9.99999999999999 5.99999999999999
   endloop
endfacet
facet normal 3.88578058618805e-016 1.0 0.0
   outer loop
      vertex 17.7679491924311 9.99999999999999 5.99999999999999
      vertex 17.3989794855663 9.99999999999999 10.0
      vertex 18.0857864376269 9.99999999999999 6.41421356237309
   endloop
endfacet
facet normal 3.88578058618805e-016 1.0 0.0
   outer loop
      vertex 18.0857864376269 9.99999999999999 6.41421356237309
      vertex 17.3989794855663 9.99999999999999 10.0
      vertex 18.7928932188135 9.99999999999999 7.12132034355964
   endloop
endfacet
facet normal 3.88578058618805e-016 1.0 0.0
   outer loop
      vertex 18.7928932188135 9.99999999999999 7.12132034355964
      vertex 17.3989794855663 9.99999999999999 10.0
      vertex 20.2071067811866 9.99999999999999 7.12132034355964
   endloop
endfacet
facet normal 3.88578058618805e-016 1.0 0.0
   outer loop
      vertex 25.0 9.99999999999998 0.0
      vertex 21.2320508075688 9.99999999999999 3.99999999999999
      vertex 25.0 9.99999999999998 10.0
   endloop
endfacet
facet normal 3.88578058618805e-016 1.0 0.0
   outer loop
      vertex 21.2320508075688 9.99999999999999 3.99999999999999
      vertex 25.0 9.99999999999998 0.0
      vertex 20.9142135623731 9.99999999999999 3.58578643762691
   endloop
endfacet
facet normal 3.88578058618805e-016 1.0 0.0
   outer loop
      vertex 20.9142135623731 9.99999999999999 3.58578643762691
      vertex 25.0 9.99999999999998 0.0
      vertex 20.5 9.99999999999999 3.26794919243112
   endloop
endfacet
facet normal 3.88578058618805e-016 1.0 0.0
   outer loop
      vertex 20.5 9.99999999999999 3.26794919243112
      vertex 25.0 9.99999999999998 0.0
      vertex 20.0176380902051 9.99999999999999 3.06814834742187
   endloop
endfacet
facet normal 3.88578058618805e-016 1.0 0.0
   outer loop
      vertex 20.0176380902051 9.99999999999999 3.06814834742187
      vertex 25.0 9.99999999999998 0.0
      vertex 19.5 9.99999999999999 2.99999999999999
   endloop
endfacet
facet normal 3.88578058618805e-016 1.0 0.0
   outer loop
      vertex 25.0 9.99999999999998 10.0
      vertex 21.2320508075688 9.99999999999999 3.99999999999999
      vertex 21.4318516525782 9.99999999999999 4.48236190979497
   endloop
endfacet
facet normal 3.88578058618805e-016 1.0 0.0
   outer loop
      vertex 25.0 9.99999999999998 10.0
      vertex 21.4318516525782 9.99999999999999 4.48236190979497
      vertex 21.5 9.99999999999999 4.99999999999999
   endloop
endfacet
facet normal 3.88578058618805e-016 1.0 0.0
   outer loop
      vertex 25.0 9.99999999999998 10.0
      vertex 21.5 9.99999999999999 4.99999999999999
      vertex 21.4318516525782 9.99999999999999 5.51763809020504
   endloop
endfacet
facet normal 3.88578058618805e-016 1.0 0.0
   outer loop
      vertex 25.0 9.99999999999998 10.0
      vertex 21.4318516525782 9.99999999999999 5.51763809020504
      vertex 21.2320508075688 9.99999999999999 5.99999999999999
   endloop
endfacet
facet normal 3.88578058618805e-016 1.0 0.0
   outer loop
      vertex 25.0 9.99999999999998 10.0
      vertex 21.2320508075688 9.99999999999999 5.99999999999999
      vertex 20.9142135623731 9.99999999999999 6.41421356237309
   endloop
endfacet
facet normal 3.88578058618805e-016 1.0 0.0
   outer loop
      vertex 25.0 9.99999999999998 10.0
      vertex 20.9142135623731 9.99999999999999 6.41421356237309
      vertex 20.2071067811866 9.99999999999999 7.12132034355964
   endloop
endfacet
facet normal 3.88578058618805e-016 1.0 0.0
   outer loop
      vertex 25.0 9.99999999999998 10.0
      vertex 20.2071067811866 9.99999999999999 7.12132034355964
      vertex 17.3989794855663 9.99999999999999 10.0
   endloop
endfacet
facet normal -0.382683432365089 0.923879532511287 0.0
   outer loop
      vertex 13.5352761804101 6.13629669484375 10.0
      vertex 14.5 6.53589838486225 0.0
      vertex 13.5352761804101 6.13629669484375 0.0
   endloop
endfacet
facet normal -0.382683432365089 0.923879532511287 0.0
   outer loop
      vertex 14.5 6.53589838486225 0.0
      vertex 13.5352761804101 6.13629669484375 10.0
      vertex 14.5 6.53589838486225 10.0
   endloop
endfacet
facet normal -0.793353340291237 0.608761429008718 0.0
   outer loop
      vertex 15.9641016151378 8.0 10.0
      vertex 15.3284271247462 7.17157287525379 0.0
      vertex 15.3284271247462 7.17157287525379 10.0
   endloop
endfacet
facet normal -0.793353340291237 0.608761429008718 0.0
   outer loop
      vertex 15.3284271247462 7.17157287525379 0.0
      vertex 15.9641016151378 8.0 10.0
      vertex 15.9641016151378 8.0 0.0
   endloop
endfacet
facet normal -0.608761429008721 0.793353340291235 0.0
   outer loop
      vertex 14.5 6.53589838486225 10.0
      vertex 15.3284271247462 7.17157287525379 0.0
      vertex 14.5 6.53589838486225 0.0
   endloop
endfacet
facet normal -0.608761429008721 0.793353340291235 0.0
   outer loop
      vertex 15.3284271247462 7.17157287525379 0.0
      vertex 14.5 6.53589838486225 10.0
      vertex 15.3284271247462 7.17157287525379 10.0
   endloop
endfacet
facet normal -0.793353340291233 3.33066907387547e-016 0.608761429008723
   outer loop
      vertex 21.2320508075688 9.99999999999999 3.99999999999999
      vertex 20.9142135623731 5.63993296509579e-015 3.58578643762691
      vertex 21.2320508075688 5.63993296509579e-015 3.99999999999999
   endloop
endfacet
facet normal -0.793353340291233 3.33066907387547e-016 0.608761429008723
   outer loop
      vertex 20.9142135623731 5.63993296509579e-015 3.58578643762691
      vertex 21.2320508075688 9.99999999999999 3.99999999999999
      vertex 20.9142135623731 9.99999999999999 3.58578643762691
   endloop
endfacet
facet normal 0.130526192220052 -4.16333634234434e-017 0.99144486137381
   outer loop
      vertex 19.5 8.45989944764369e-015 2.99999999999999
      vertex 18.9823619097949 9.99999999999999 3.06814834742187
      vertex 18.9823619097949 5.63993296509579e-015 3.06814834742187
   endloop
endfacet
facet normal 0.130526192220052 -4.16333634234434e-017 0.99144486137381
   outer loop
      vertex 18.9823619097949 9.99999999999999 3.06814834742187
      vertex 19.5 8.45989944764369e-015 2.99999999999999
      vertex 19.5 9.99999999999999 2.99999999999999
   endloop
endfacet
facet normal -0.793353340291232 3.60822483003176e-016 -0.608761429008725
   outer loop
      vertex 20.9142135623731 9.99999999999999 6.41421356237309
      vertex 21.2320508075688 5.63993296509579e-015 5.99999999999999
      vertex 20.9142135623731 5.63993296509579e-015 6.41421356237309
   endloop
endfacet
facet normal -0.793353340291232 3.60822483003176e-016 -0.608761429008725
   outer loop
      vertex 21.2320508075688 5.63993296509579e-015 5.99999999999999
      vertex 20.9142135623731 9.99999999999999 6.41421356237309
      vertex 21.2320508075688 9.99999999999999 5.99999999999999
   endloop
endfacet
facet normal 0.38268343236509 -1.66533453693773e-016 0.923879532511287
   outer loop
      vertex 18.9823619097949 5.63993296509579e-015 3.06814834742187
      vertex 18.5 9.99999999999999 3.26794919243112
      vertex 18.5 1.12798659301916e-014 3.26794919243112
   endloop
endfacet
facet normal 0.38268343236509 -1.66533453693773e-016 0.923879532511287
   outer loop
      vertex 18.5 9.99999999999999 3.26794919243112
      vertex 18.9823619097949 5.63993296509579e-015 3.06814834742187
      vertex 18.9823619097949 9.99999999999999 3.06814834742187
   endloop
endfacet
facet normal 0.923879532511286 -3.60822483003176e-016 0.382683432365091
   outer loop
      vertex 17.7679491924311 9.99999999999999 3.99999999999999
      vertex 17.5681483474218 1.12798659301916e-014 4.48236190979497
      vertex 17.7679491924311 1.12798659301916e-014 3.99999999999999
   endloop
endfacet
facet normal 0.923879532511286 -3.60822483003176e-016 0.382683432365091
   outer loop
      vertex 17.5681483474218 1.12798659301916e-014 4.48236190979497
      vertex 17.7679491924311 9.99999999999999 3.99999999999999
      vertex 17.5681483474218 9.99999999999999 4.48236190979497
   endloop
endfacet
facet normal 0.793353340291232 -3.60822483003176e-016 0.608761429008725
   outer loop
      vertex 18.0857864376269 9.99999999999999 3.58578643762691
      vertex 17.7679491924311 1.12798659301916e-014 3.99999999999999
      vertex 18.0857864376269 1.12798659301916e-014 3.58578643762691
   endloop
endfacet
facet normal 0.793353340291232 -3.60822483003176e-016 0.608761429008725
   outer loop
      vertex 17.7679491924311 1.12798659301916e-014 3.99999999999999
      vertex 18.0857864376269 9.99999999999999 3.58578643762691
      vertex 17.7679491924311 9.99999999999999 3.99999999999999
   endloop
endfacet
facet normal 0.608761429008721 -2.22044604925031e-016 0.793353340291235
   outer loop
      vertex 18.5 1.12798659301916e-014 3.26794919243112
      vertex 18.0857864376269 9.99999999999999 3.58578643762691
      vertex 18.0857864376269 1.12798659301916e-014 3.58578643762691
   endloop
endfacet
facet normal 0.608761429008721 -2.22044604925031e-016 0.793353340291235
   outer loop
      vertex 18.0857864376269 9.99999999999999 3.58578643762691
      vertex 18.5 1.12798659301916e-014 3.26794919243112
      vertex 18.5 9.99999999999999 3.26794919243112
   endloop
endfacet
facet normal -0.130526192220051 4.85722573273506e-017 0.99144486137381
   outer loop
      vertex 20.0176380902051 1.12798659301916e-014 3.06814834742187
      vertex 19.5 9.99999999999999 2.99999999999999
      vertex 19.5 8.45989944764369e-015 2.99999999999999
   endloop
endfacet
facet normal -0.130526192220051 4.85722573273506e-017 0.99144486137381
   outer loop
      vertex 19.5 9.99999999999999 2.99999999999999
      vertex 20.0176380902051 1.12798659301916e-014 3.06814834742187
      vertex 20.0176380902051 9.99999999999999 3.06814834742187
   endloop
endfacet
facet normal -0.382683432365094 1.38777878078145e-016 0.923879532511285
   outer loop
      vertex 20.5 5.63993296509579e-015 3.26794919243112
      vertex 20.0176380902051 9.99999999999999 3.06814834742187
      vertex 20.0176380902051 1.12798659301916e-014 3.06814834742187
   endloop
endfacet
facet normal -0.382683432365094 1.38777878078145e-016 0.923879532511285
   outer loop
      vertex 20.0176380902051 9.99999999999999 3.06814834742187
      vertex 20.5 5.63993296509579e-015 3.26794919243112
      vertex 20.5 9.99999999999999 3.26794919243112
   endloop
endfacet
facet normal -0.608761429008721 2.22044604925031e-016 0.793353340291235
   outer loop
      vertex 20.9142135623731 5.63993296509579e-015 3.58578643762691
      vertex 20.5 9.99999999999999 3.26794919243112
      vertex 20.5 5.63993296509579e-015 3.26794919243112
   endloop
endfacet
facet normal -0.608761429008721 2.22044604925031e-016 0.793353340291235
   outer loop
      vertex 20.5 9.99999999999999 3.26794919243112
      vertex 20.9142135623731 5.63993296509579e-015 3.58578643762691
      vertex 20.9142135623731 9.99999999999999 3.58578643762691
   endloop
endfacet
facet normal -0.707106781186546 1.94289029309402e-016 -0.707106781186549
   outer loop
      vertex 20.2071067811866 9.99999999999999 7.12132034355964
      vertex 20.9142135623731 5.63993296509579e-015 6.41421356237309
      vertex 20.2071067811866 2.8199664825479e-015 7.12132034355964
   endloop
endfacet
facet normal -0.707106781186546 1.94289029309402e-016 -0.707106781186549
   outer loop
      vertex 20.9142135623731 5.63993296509579e-015 6.41421356237309
      vertex 20.2071067811866 9.99999999999999 7.12132034355964
      vertex 20.9142135623731 9.99999999999999 6.41421356237309
   endloop
endfacet
facet normal 0.707106781186548 0.707106781186547 0.0
   outer loop
      vertex 7.60102051443367 9.99999999999999 0.0
      vertex 8.63629669484371 8.9647238195899 10.0
      vertex 8.63629669484371 8.9647238195899 0.0
   endloop
endfacet
facet normal 0.707106781186548 0.707106781186547 0.0
   outer loop
      vertex 8.63629669484371 8.9647238195899 10.0
      vertex 7.60102051443367 9.99999999999999 0.0
      vertex 7.60102051443367 9.99999999999999 10.0
   endloop
endfacet
facet normal -3.83167548838817e-047 -9.08271941913623e-032 -1.0
   outer loop
      vertex 18.7928932188135 9.99999999999999 7.12132034355964
      vertex 20.2071067811866 2.8199664825479e-015 7.12132034355964
      vertex 18.7928932188135 5.63993296509579e-015 7.12132034355964
   endloop
endfacet
facet normal -3.83167548838817e-047 -9.08271941913623e-032 -1.0
   outer loop
      vertex 20.2071067811866 2.8199664825479e-015 7.12132034355964
      vertex 18.7928932188135 9.99999999999999 7.12132034355964
      vertex 20.2071067811866 9.99999999999999 7.12132034355964
   endloop
endfacet
facet normal 0.707106781186546 -1.94289029309402e-016 -0.707106781186549
   outer loop
      vertex 18.7928932188135 9.99999999999999 7.12132034355964
      vertex 18.0857864376269 1.12798659301916e-014 6.41421356237309
      vertex 18.0857864376269 9.99999999999999 6.41421356237309
   endloop
endfacet
facet normal 0.707106781186546 -1.94289029309402e-016 -0.707106781186549
   outer loop
      vertex 18.0857864376269 1.12798659301916e-014 6.41421356237309
      vertex 18.7928932188135 9.99999999999999 7.12132034355964
      vertex 18.7928932188135 5.63993296509579e-015 7.12132034355964
   endloop
endfacet
facet normal 0.793353340291233 -3.33066907387547e-016 -0.608761429008723
   outer loop
      vertex 17.7679491924311 9.99999999999999 5.99999999999999
      vertex 18.0857864376269 1.12798659301916e-014 6.41421356237309
      vertex 17.7679491924311 1.12798659301916e-014 5.99999999999999
   endloop
endfacet
facet normal 0.793353340291233 -3.33066907387547e-016 -0.608761429008723
   outer loop
      vertex 18.0857864376269 1.12798659301916e-014 6.41421356237309
      vertex 17.7679491924311 9.99999999999999 5.99999999999999
      vertex 18.0857864376269 9.99999999999999 6.41421356237309
   endloop
endfacet
facet normal -0.923879532511286 3.60822483003176e-016 0.382683432365092
   outer loop
      vertex 21.4318516525781 1.40998324127395e-014 4.48236190979497
      vertex 21.2320508075688 9.99999999999999 3.99999999999999
      vertex 21.2320508075688 5.63993296509579e-015 3.99999999999999
   endloop
endfacet
facet normal -0.923879532511286 3.60822483003176e-016 0.382683432365092
   outer loop
      vertex 21.2320508075688 9.99999999999999 3.99999999999999
      vertex 21.4318516525781 1.40998324127395e-014 4.48236190979497
      vertex 21.4318516525782 9.99999999999999 4.48236190979497
   endloop
endfacet
facet normal 0.923879532511286 -3.60822483003176e-016 -0.382683432365092
   outer loop
      vertex 17.5681483474218 9.99999999999999 5.51763809020504
      vertex 17.7679491924311 1.12798659301916e-014 5.99999999999999
      vertex 17.5681483474218 1.12798659301916e-014 5.51763809020504
   endloop
endfacet
facet normal 0.923879532511286 -3.60822483003176e-016 -0.382683432365092
   outer loop
      vertex 17.7679491924311 1.12798659301916e-014 5.99999999999999
      vertex 17.5681483474218 9.99999999999999 5.51763809020504
      vertex 17.7679491924311 9.99999999999999 5.99999999999999
   endloop
endfacet
facet normal 0.99144486137381 -4.16333634234434e-016 -0.130526192220052
   outer loop
      vertex 17.5 9.99999999999999 4.99999999999999
      vertex 17.5681483474218 1.12798659301916e-014 5.51763809020504
      vertex 17.5 5.63993296509579e-015 4.99999999999999
   endloop
endfacet
facet normal 0.99144486137381 -4.16333634234434e-016 -0.130526192220052
   outer loop
      vertex 17.5681483474218 1.12798659301916e-014 5.51763809020504
      vertex 17.5 9.99999999999999 4.99999999999999
      vertex 17.5681483474218 9.99999999999999 5.51763809020504
   endloop
endfacet
facet normal 0.99144486137381 -4.16333634234434e-016 0.130526192220052
   outer loop
      vertex 17.5681483474218 1.12798659301916e-014 4.48236190979497
      vertex 17.5 9.99999999999999 4.99999999999999
      vertex 17.5 5.63993296509579e-015 4.99999999999999
   endloop
endfacet
facet normal 0.99144486137381 -4.16333634234434e-016 0.130526192220052
   outer loop
      vertex 17.5 9.99999999999999 4.99999999999999
      vertex 17.5681483474218 1.12798659301916e-014 4.48236190979497
      vertex 17.5681483474218 9.99999999999999 4.48236190979497
   endloop
endfacet
endsolid rod-clamp
