solid slide-coupling-block
facet normal 0.81915204428904 0.573576436350977 -1.03298281981332e-016
   outer loop
      vertex 5.50288568297009 5.14999999999997 9.26146807486116e-016
      vertex 5.9528000059646 4.50745575641054 3.60000000000001
      vertex 5.9528000059646 4.50745575641054 9.40434114834431e-016
   endloop
endfacet
facet normal 0.81915204428904 0.573576436350977 -1.03298281981332e-016
   outer loop
      vertex 5.9528000059646 4.50745575641054 3.60000000000001
      vertex 5.50288568297009 5.14999999999997 9.26146807486116e-016
      vertex 5.50288568297009 5.14999999999997 3.60000000000001
   endloop
endfacet
facet normal 0.70710678118649 0.707106781186605 -1.04891824485923e-016
   outer loop
      vertex 5.9528000059646 4.50745575641054 9.40434114834431e-016
      vertex 6.50745575641064 3.95280000596458 3.60000000000001
      vertex 6.50745575641064 3.95280000596458 9.40434114834424e-016
   endloop
endfacet
facet normal 0.70710678118649 0.707106781186605 -1.04891824485923e-016
   outer loop
      vertex 6.50745575641064 3.95280000596458 3.60000000000001
      vertex 5.9528000059646 4.50745575641054 9.40434114834431e-016
      vertex 5.9528000059646 4.50745575641054 3.60000000000001
   endloop
endfacet
facet normal 0.573576436350976 0.819152044289041 -1.03298281981331e-016
   outer loop
      vertex 6.50745575641064 3.95280000596458 9.40434114834424e-016
      vertex 7.15000000000009 3.50288568297009 3.60000000000001
      vertex 7.15000000000009 3.50288568297009 9.26146807486106e-016
   endloop
endfacet
facet normal 0.573576436350976 0.819152044289041 -1.03298281981331e-016
   outer loop
      vertex 7.15000000000009 3.50288568297009 3.60000000000001
      vertex 6.50745575641064 3.95280000596458 9.40434114834424e-016
      vertex 6.50745575641064 3.95280000596458 3.60000000000001
   endloop
endfacet
facet normal 0.42261826174076 0.906307787036622 -9.85660734501949e-017
   outer loop
      vertex 7.15000000000009 3.50288568297009 9.26146807486106e-016
      vertex 7.86090935503455 3.17138320646343 3.60000000000001
      vertex 7.86090935503455 3.17138320646343 8.98006305393543e-016
   endloop
endfacet
facet normal 0.42261826174076 0.906307787036622 -9.85660734501949e-017
   outer loop
      vertex 7.86090935503455 3.17138320646343 3.60000000000001
      vertex 7.15000000000009 3.50288568297009 9.26146807486106e-016
      vertex 7.15000000000009 3.50288568297009 3.60000000000001
   endloop
endfacet
facet normal 0.25881904510245 0.965925826289087 -9.08389846541039e-017
   outer loop
      vertex 7.86090935503455 3.17138320646343 8.98006305393543e-016
      vertex 8.61858320049877 2.96836511144516 3.60000000000001
      vertex 8.61858320049877 2.96836511144516 8.56867643473019e-016
   endloop
endfacet
facet normal 0.25881904510245 0.965925826289087 -9.08389846541039e-017
   outer loop
      vertex 8.61858320049877 2.96836511144516 3.60000000000001
      vertex 7.86090935503455 3.17138320646343 8.98006305393543e-016
      vertex 7.86090935503455 3.17138320646343 3.60000000000001
   endloop
endfacet
facet normal 0.0871557427476053 0.99619469809175 -8.03517992760486e-017
   outer loop
      vertex 8.61858320049877 2.96836511144516 8.56867643473019e-016
      vertex 9.40000000000003 2.90000000000013 3.60000000000001
      vertex 9.40000000000003 2.90000000000013 8.03980799149818e-016
   endloop
endfacet
facet normal 0.0871557427476053 0.99619469809175 -8.03517992760486e-017
   outer loop
      vertex 9.40000000000003 2.90000000000013 3.60000000000001
      vertex 8.61858320049877 2.96836511144516 8.56867643473019e-016
      vertex 8.61858320049877 2.96836511144516 3.60000000000001
   endloop
endfacet
facet normal 0.996194698091761 0.0871557427474817 -8.03517992760414e-017
   outer loop
      vertex 4.90000000000006 7.4000000000001 8.03980799149824e-016
      vertex 4.96836511144499 6.61858320049876 3.60000000000001
      vertex 4.96836511144499 6.61858320049876 8.56867643473037e-016
   endloop
endfacet
facet normal 0.996194698091761 0.0871557427474817 -8.03517992760414e-017
   outer loop
      vertex 4.96836511144499 6.61858320049876 3.60000000000001
      vertex 4.90000000000006 7.4000000000001 8.03980799149824e-016
      vertex 4.90000000000006 7.4000000000001 3.60000000000001
   endloop
endfacet
facet normal -0.0871557427476157 0.996194698091749 -6.74231651369694e-017
   outer loop
      vertex 9.40000000000003 2.90000000000013 8.03980799149818e-016
      vertex 10.1814167995012 2.96836511144516 3.60000000000001
      vertex 10.1814167995012 2.96836511144516 7.40952712426685e-016
   endloop
endfacet
facet normal -0.0871557427476157 0.996194698091749 -6.74231651369694e-017
   outer loop
      vertex 10.1814167995012 2.96836511144516 3.60000000000001
      vertex 9.40000000000003 2.90000000000013 8.03980799149818e-016
      vertex 9.40000000000003 2.90000000000013 3.60000000000001
   endloop
endfacet
facet normal -0.258819045102393 0.965925826289103 -5.24459122429729e-017
   outer loop
      vertex 10.1814167995012 2.96836511144516 7.40952712426685e-016
      vertex 10.9390906449656 3.17138320646343 3.60000000000001
      vertex 10.9390906449656 3.17138320646343 6.69698459824939e-016
   endloop
endfacet
facet normal -0.258819045102393 0.965925826289103 -5.24459122429729e-017
   outer loop
      vertex 10.9390906449656 3.17138320646343 3.60000000000001
      vertex 10.1814167995012 2.96836511144516 7.40952712426685e-016
      vertex 10.1814167995012 2.96836511144516 3.60000000000001
   endloop
endfacet
facet normal -0.819152044289095 0.573576436350899 1.82142741741595e-017
   outer loop
      vertex 13.2971143170299 5.14999999999999 3.6
      vertex 12.8471999940355 4.50745575641054 4.29078395496688e-016
      vertex 12.8471999940355 4.50745575641054 3.6
   endloop
endfacet
facet normal -0.819152044289095 0.573576436350899 1.82142741741595e-017
   outer loop
      vertex 12.8471999940355 4.50745575641054 4.29078395496688e-016
      vertex 13.2971143170299 5.14999999999999 3.6
      vertex 13.2971143170299 5.14999999999999 3.48051049080938e-016
   endloop
endfacet
facet normal -0.906307787036598 0.422618261740811 3.58751168443551e-017
   outer loop
      vertex 13.6286167935366 5.86090935503454 3.6
      vertex 13.2971143170299 5.14999999999999 3.48051049080938e-016
      vertex 13.2971143170299 5.14999999999999 3.6
   endloop
endfacet
facet normal -0.906307787036598 0.422618261740811 3.58751168443551e-017
   outer loop
      vertex 13.2971143170299 5.14999999999999 3.48051049080938e-016
      vertex 13.6286167935366 5.86090935503454 3.6
      vertex 13.6286167935366 5.86090935503454 2.70735655009477e-016
   endloop
endfacet
facet normal -0.965925826289066 0.258819045102528 5.24459122429618e-017
   outer loop
      vertex 13.831634888555 6.61858320049885 3.6
      vertex 13.6286167935366 5.86090935503454 2.70735655009477e-016
      vertex 13.6286167935366 5.86090935503454 3.6
   endloop
endfacet
facet normal -0.965925826289066 0.258819045102528 5.24459122429618e-017
   outer loop
      vertex 13.6286167935366 5.86090935503454 2.70735655009477e-016
      vertex 13.831634888555 6.61858320049885 3.6
      vertex 13.831634888555 6.61858320049885 1.99481402407731e-016
   endloop
endfacet
facet normal -0.99619469809175 0.0871557427476053 6.74231651369716e-017
   outer loop
      vertex 13.9 7.40000000000011 3.6
      vertex 13.831634888555 6.61858320049885 1.99481402407731e-016
      vertex 13.831634888555 6.61858320049885 3.6
   endloop
endfacet
facet normal -0.99619469809175 0.0871557427476053 6.74231651369716e-017
   outer loop
      vertex 13.831634888555 6.61858320049885 1.99481402407731e-016
      vertex 13.9 7.40000000000011 3.6
      vertex 13.9 7.40000000000011 1.36453315684592e-016
   endloop
endfacet
facet normal -0.996194698091739 -0.08715574274774 8.03517992760588e-017
   outer loop
      vertex 13.8316348885549 8.18141679950118 3.6
      vertex 13.9 7.40000000000011 1.36453315684592e-016
      vertex 13.9 7.40000000000011 3.6
   endloop
endfacet
facet normal -0.996194698091739 -0.08715574274774 8.03517992760588e-017
   outer loop
      vertex 13.9 7.40000000000011 1.36453315684592e-016
      vertex 13.8316348885549 8.18141679950118 3.6
      vertex 13.8316348885549 8.18141679950118 8.3566471361413e-017
   endloop
endfacet
facet normal -0.965925826289103 -0.258819045102393 9.08389846541017e-017
   outer loop
      vertex 13.6286167935366 8.93909064496557 3.6
      vertex 13.8316348885549 8.18141679950118 8.3566471361413e-017
      vertex 13.8316348885549 8.18141679950118 3.6
   endloop
endfacet
facet normal -0.965925826289103 -0.258819045102393 9.08389846541017e-017
   outer loop
      vertex 13.8316348885549 8.18141679950118 8.3566471361413e-017
      vertex 13.6286167935366 8.93909064496557 3.6
      vertex 13.6286167935366 8.93909064496557 4.24278094408773e-017
   endloop
endfacet
facet normal 1.0 -1.1740608485411e-014 -7.41697203850253e-017
   outer loop
      vertex 18.8 14.8 2.83730522045438e-015
      vertex 18.7999999999998 2.8199664825479e-015 10.0
      vertex 18.7999999999998 2.8199664825479e-015 3.84683571983204e-015
   endloop
endfacet
facet normal 1.0 -1.1740608485411e-014 -7.41697203850253e-017
   outer loop
      vertex 18.7999999999998 2.8199664825479e-015 10.0
      vertex 18.8 14.8 2.83730522045438e-015
      vertex 18.8 14.8 10.0
   endloop
endfacet
facet normal -1.0 -6.24500451351651e-015 7.41697203850266e-017
   outer loop
      vertex 0.0 14.8 10.0
      vertex 9.02389274415327e-014 0.0 5.24122646307051e-015
      vertex 9.02389274415327e-014 0.0 10.0
   endloop
endfacet
facet normal -1.0 -6.24500451351651e-015 7.41697203850266e-017
   outer loop
      vertex 9.02389274415327e-014 0.0 5.24122646307051e-015
      vertex 0.0 14.8 10.0
      vertex 0.0 14.8 4.23169596369287e-015
   endloop
endfacet
facet normal -0.707106781186605 -0.70710678118649 1.04891824485923e-016
   outer loop
      vertex 12.2925442435895 10.8471999940354 3.6
      vertex 12.8471999940355 10.2925442435894 5.32234591991301e-030
      vertex 12.8471999940355 10.2925442435894 3.6
   endloop
endfacet
facet normal -0.707106781186605 -0.70710678118649 1.04891824485923e-016
   outer loop
      vertex 12.8471999940355 10.2925442435894 5.32234591991301e-030
      vertex 12.2925442435895 10.8471999940354 3.6
      vertex 12.2925442435895 10.8471999940354 0.0
   endloop
endfacet
facet normal 2.4980018054066e-016 -1.0 7.41697203850249e-017
   outer loop
      vertex 18.7999999999998 2.8199664825479e-015 3.84683571983204e-015
      vertex 13.1 2.8199664825479e-015 3.60000000000001
      vertex 9.02389274415327e-014 0.0 5.24122646307051e-015
   endloop
endfacet
facet normal 2.4980018054066e-016 -1.0 7.41697203850249e-017
   outer loop
      vertex 13.1 2.8199664825479e-015 3.60000000000001
      vertex 18.7999999999998 2.8199664825479e-015 3.84683571983204e-015
      vertex 18.7999999999998 2.8199664825479e-015 10.0
   endloop
endfacet
facet normal 2.4980018054066e-016 -1.0 7.41697203850249e-017
   outer loop
      vertex 13.1 2.8199664825479e-015 3.60000000000001
      vertex 18.7999999999998 2.8199664825479e-015 10.0
      vertex 13.1 2.8199664825479e-015 10.0
   endloop
endfacet
facet normal 2.4980018054066e-016 -1.0 7.41697203850249e-017
   outer loop
      vertex 9.02389274415327e-014 0.0 5.24122646307051e-015
      vertex 5.70000000000006 0.0 3.60000000000001
      vertex 9.02389274415327e-014 0.0 10.0
   endloop
endfacet
facet normal 2.4980018054066e-016 -1.0 7.41697203850249e-017
   outer loop
      vertex 5.70000000000006 0.0 3.60000000000001
      vertex 9.02389274415327e-014 0.0 5.24122646307051e-015
      vertex 13.1 2.8199664825479e-015 3.60000000000001
   endloop
endfacet
facet normal 2.4980018054066e-016 -1.0 7.41697203850249e-017
   outer loop
      vertex 9.02389274415327e-014 0.0 10.0
      vertex 5.70000000000006 0.0 3.60000000000001
      vertex 5.70000000000006 0.0 10.0
   endloop
endfacet
facet normal -0.573576436350976 -0.819152044289041 1.03298281981331e-016
   outer loop
      vertex 12.2925442435895 10.8471999940354 3.6
      vertex 11.6500000000001 11.2971143170299 1.42873073483169e-017
      vertex 12.2925442435895 10.8471999940354 0.0
   endloop
endfacet
facet normal -0.573576436350976 -0.819152044289041 1.03298281981331e-016
   outer loop
      vertex 11.6500000000001 11.2971143170299 1.42873073483169e-017
      vertex 12.2925442435895 10.8471999940354 3.6
      vertex 11.6500000000001 11.2971143170299 3.6
   endloop
endfacet
facet normal -0.422618261740811 -0.906307787036598 9.85660734501969e-017
   outer loop
      vertex 11.6500000000001 11.2971143170299 3.6
      vertex 10.9390906449655 11.6286167935367 4.24278094408805e-017
      vertex 11.6500000000001 11.2971143170299 1.42873073483169e-017
   endloop
endfacet
facet normal -0.422618261740811 -0.906307787036598 9.85660734501969e-017
   outer loop
      vertex 10.9390906449655 11.6286167935367 4.24278094408805e-017
      vertex 11.6500000000001 11.2971143170299 3.6
      vertex 10.9390906449655 11.6286167935367 3.6
   endloop
endfacet
facet normal -0.25881904510245 -0.965925826289087 9.08389846541039e-017
   outer loop
      vertex 10.9390906449655 11.6286167935367 3.6
      vertex 10.1814167995013 11.831634888555 8.35664713614037e-017
      vertex 10.9390906449655 11.6286167935367 4.24278094408805e-017
   endloop
endfacet
facet normal -0.25881904510245 -0.965925826289087 9.08389846541039e-017
   outer loop
      vertex 10.1814167995013 11.831634888555 8.35664713614037e-017
      vertex 10.9390906449655 11.6286167935367 3.6
      vertex 10.1814167995013 11.831634888555 3.6
   endloop
endfacet
facet normal -0.0871557427475953 -0.996194698091751 8.03517992760479e-017
   outer loop
      vertex 10.1814167995013 11.831634888555 3.6
      vertex 9.39999999999993 11.9 1.36453315684612e-016
      vertex 10.1814167995013 11.831634888555 8.35664713614037e-017
   endloop
endfacet
facet normal -0.0871557427475953 -0.996194698091751 8.03517992760479e-017
   outer loop
      vertex 9.39999999999993 11.9 1.36453315684612e-016
      vertex 10.1814167995013 11.831634888555 3.6
      vertex 9.39999999999993 11.9 3.6
   endloop
endfacet
facet normal 0.422618261740811 -0.906307787036598 3.58751168443534e-017
   outer loop
      vertex 7.86090935503455 11.6286167935366 3.6
      vertex 7.15 11.2971143170298 3.48051049080946e-016
      vertex 7.86090935503455 11.6286167935366 2.70735655009485e-016
   endloop
endfacet
facet normal 0.422618261740811 -0.906307787036598 3.58751168443534e-017
   outer loop
      vertex 7.15 11.2971143170298 3.48051049080946e-016
      vertex 7.86090935503455 11.6286167935366 3.6
      vertex 7.15 11.2971143170298 3.6
   endloop
endfacet
facet normal 0.573576436350822 -0.819152044289148 1.82142741741674e-017
   outer loop
      vertex 7.15 11.2971143170298 3.6
      vertex 6.50745575641056 10.8471999940355 4.29078395496689e-016
      vertex 7.15 11.2971143170298 3.48051049080946e-016
   endloop
endfacet
facet normal 0.573576436350822 -0.819152044289148 1.82142741741674e-017
   outer loop
      vertex 6.50745575641056 10.8471999940355 4.29078395496689e-016
      vertex 7.15 11.2971143170298 3.6
      vertex 6.50745575641056 10.8471999940355 3.6
   endloop
endfacet
facet normal 0.707106781186663 -0.707106781186432 -1.79928079124433e-029
   outer loop
      vertex 6.50745575641056 10.8471999940355 4.29078395496689e-016
      vertex 5.9528000059646 10.2925442435894 3.60000000000001
      vertex 5.9528000059646 10.2925442435894 5.11355719337749e-016
   endloop
endfacet
facet normal 0.707106781186663 -0.707106781186432 -1.79928079124433e-029
   outer loop
      vertex 5.9528000059646 10.2925442435894 3.60000000000001
      vertex 6.50745575641056 10.8471999940355 4.29078395496689e-016
      vertex 6.50745575641056 10.8471999940355 3.6
   endloop
endfacet
facet normal 0.819152044288965 -0.573576436351084 -1.82142741741362e-017
   outer loop
      vertex 5.9528000059646 10.2925442435894 5.11355719337749e-016
      vertex 5.50288568297009 9.65000000000013 3.60000000000001
      vertex 5.50288568297009 9.65000000000013 5.92383065753493e-016
   endloop
endfacet
facet normal 0.819152044288965 -0.573576436351084 -1.82142741741362e-017
   outer loop
      vertex 5.50288568297009 9.65000000000013 3.60000000000001
      vertex 5.9528000059646 10.2925442435894 5.11355719337749e-016
      vertex 5.9528000059646 10.2925442435894 3.60000000000001
   endloop
endfacet
facet normal 0.906307787036663 -0.422618261740672 -3.58751168443702e-017
   outer loop
      vertex 5.50288568297009 9.65000000000013 5.92383065753493e-016
      vertex 5.17138320646344 8.93909064496548 3.60000000000001
      vertex 5.17138320646344 8.93909064496548 6.69698459824953e-016
   endloop
endfacet
facet normal 0.906307787036663 -0.422618261740672 -3.58751168443702e-017
   outer loop
      vertex 5.17138320646344 8.93909064496548 3.60000000000001
      vertex 5.50288568297009 9.65000000000013 5.92383065753493e-016
      vertex 5.50288568297009 9.65000000000013 3.60000000000001
   endloop
endfacet
facet normal 0.965925826289001 0.258819045102772 -9.08389846541223e-017
   outer loop
      vertex 4.96836511144499 6.61858320049876 8.56867643473037e-016
      vertex 5.17138320646353 5.86090935503454 3.60000000000001
      vertex 5.17138320646353 5.86090935503454 8.9800630539354e-016
   endloop
endfacet
facet normal 0.965925826289001 0.258819045102772 -9.08389846541223e-017
   outer loop
      vertex 5.17138320646353 5.86090935503454 3.60000000000001
      vertex 4.96836511144499 6.61858320049876 8.56867643473037e-016
      vertex 4.96836511144499 6.61858320049876 3.60000000000001
   endloop
endfacet
facet normal 0.906307787036686 0.422618261740622 -9.85660734501901e-017
   outer loop
      vertex 5.17138320646353 5.86090935503454 8.9800630539354e-016
      vertex 5.50288568297009 5.14999999999997 3.60000000000001
      vertex 5.50288568297009 5.14999999999997 9.26146807486116e-016
   endloop
endfacet
facet normal 0.906307787036686 0.422618261740622 -9.85660734501901e-017
   outer loop
      vertex 5.50288568297009 5.14999999999997 3.60000000000001
      vertex 5.17138320646353 5.86090935503454 8.9800630539354e-016
      vertex 5.17138320646353 5.86090935503454 3.60000000000001
   endloop
endfacet
facet normal -0.422618261740622 0.906307787036686 -3.58751168443739e-017
   outer loop
      vertex 10.9390906449656 3.17138320646343 6.69698459824939e-016
      vertex 11.6500000000001 3.50288568297 3.60000000000001
      vertex 11.6500000000001 3.50288568297 5.9238306575349e-016
   endloop
endfacet
facet normal -0.422618261740622 0.906307787036686 -3.58751168443739e-017
   outer loop
      vertex 11.6500000000001 3.50288568297 3.60000000000001
      vertex 10.9390906449656 3.17138320646343 6.69698459824939e-016
      vertex 10.9390906449656 3.17138320646343 3.60000000000001
   endloop
endfacet
facet normal -0.573576436351108 0.819152044288948 -1.82142741741314e-017
   outer loop
      vertex 11.6500000000001 3.50288568297 5.9238306575349e-016
      vertex 12.2925442435895 3.95280000596459 3.6
      vertex 12.2925442435895 3.95280000596459 5.11355719337734e-016
   endloop
endfacet
facet normal -0.573576436351108 0.819152044288948 -1.82142741741314e-017
   outer loop
      vertex 12.2925442435895 3.95280000596459 3.6
      vertex 11.6500000000001 3.50288568297 5.9238306575349e-016
      vertex 11.6500000000001 3.50288568297 3.60000000000001
   endloop
endfacet
facet normal -0.707106781186548 0.707106781186547 9.16742653528324e-031
   outer loop
      vertex 12.8471999940355 4.50745575641054 3.6
      vertex 12.2925442435895 3.95280000596459 5.11355719337734e-016
      vertex 12.2925442435895 3.95280000596459 3.6
   endloop
endfacet
facet normal -0.707106781186548 0.707106781186547 9.16742653528324e-031
   outer loop
      vertex 12.2925442435895 3.95280000596459 5.11355719337734e-016
      vertex 12.8471999940355 4.50745575641054 3.6
      vertex 12.8471999940355 4.50745575641054 4.29078395496688e-016
   endloop
endfacet
facet normal -0.906307787036598 -0.422618261740811 9.85660734501975e-017
   outer loop
      vertex 13.2971143170299 9.65000000000014 3.6
      vertex 13.6286167935366 8.93909064496557 4.24278094408773e-017
      vertex 13.6286167935366 8.93909064496557 3.6
   endloop
endfacet
facet normal -0.906307787036598 -0.422618261740811 9.85660734501975e-017
   outer loop
      vertex 13.6286167935366 8.93909064496557 4.24278094408773e-017
      vertex 13.2971143170299 9.65000000000014 3.6
      vertex 13.2971143170299 9.65000000000014 1.42873073483143e-017
   endloop
endfacet
facet normal -0.819152044289019 -0.573576436351008 1.03298281981332e-016
   outer loop
      vertex 12.8471999940355 10.2925442435894 3.6
      vertex 13.2971143170299 9.65000000000014 1.42873073483143e-017
      vertex 13.2971143170299 9.65000000000014 3.6
   endloop
endfacet
facet normal -0.819152044289019 -0.573576436351008 1.03298281981332e-016
   outer loop
      vertex 13.2971143170299 9.65000000000014 1.42873073483143e-017
      vertex 12.8471999940355 10.2925442435894 3.6
      vertex 12.8471999940355 10.2925442435894 5.32234591991301e-030
   endloop
endfacet
facet normal 7.41697203850262e-017 7.41697203850249e-017 1.0
   outer loop
      vertex 18.7999999999998 2.8199664825479e-015 10.0
      vertex 17.05 7.40000000000011 10.0
      vertex 13.1 2.8199664825479e-015 10.0
   endloop
endfacet
facet normal 7.41697203850262e-017 7.41697203850249e-017 1.0
   outer loop
      vertex 17.05 7.40000000000011 10.0
      vertex 18.8 14.8 10.0
      vertex 13.1 14.8 10.0
   endloop
endfacet
facet normal 7.41697203850262e-017 7.41697203850249e-017 1.0
   outer loop
      vertex 18.8 14.8 10.0
      vertex 17.05 7.40000000000011 10.0
      vertex 18.7999999999998 2.8199664825479e-015 10.0
   endloop
endfacet
facet normal 6.40949485492072e-031 7.41697203850255e-017 1.0
   outer loop
      vertex 5.70000000000006 0.0 10.0
      vertex 1.75000000000003 7.4000000000001 10.0
      vertex 9.02389274415327e-014 0.0 10.0
   endloop
endfacet
facet normal 6.40949485492072e-031 7.41697203850255e-017 1.0
   outer loop
      vertex 0.0 14.8 10.0
      vertex 1.75000000000003 7.4000000000001 10.0
      vertex 5.70000000000006 14.8000000000001 10.0
   endloop
endfacet
facet normal 6.40949485492072e-031 7.41697203850255e-017 1.0
   outer loop
      vertex 1.75000000000003 7.4000000000001 10.0
      vertex 0.0 14.8 10.0
      vertex 9.02389274415327e-014 0.0 10.0
   endloop
endfacet
facet normal -0.882187884059866 0.470897586761682 6.27151617389662e-018
   outer loop
      vertex 17.05 7.40000000000011 10.0
      vertex 13.1 2.8199664825479e-015 3.60000000000001
      vertex 13.1 2.8199664825479e-015 10.0
   endloop
endfacet
facet normal -0.882187884059866 0.470897586761682 6.27151617389662e-018
   outer loop
      vertex 13.1 2.8199664825479e-015 3.60000000000001
      vertex 17.05 7.40000000000011 10.0
      vertex 17.05 7.40000000000011 3.60000000000001
   endloop
endfacet
facet normal -0.882187884059861 -0.470897586761693 9.76350755027303e-017
   outer loop
      vertex 13.1 14.8 10.0
      vertex 17.05 7.40000000000011 3.60000000000001
      vertex 17.05 7.40000000000011 10.0
   endloop
endfacet
facet normal -0.882187884059861 -0.470897586761693 9.76350755027303e-017
   outer loop
      vertex 17.05 7.40000000000011 3.60000000000001
      vertex 13.1 14.8 10.0
      vertex 13.1 14.8 3.6
   endloop
endfacet
facet normal -1.14178205386851e-016 7.41697203850249e-017 1.0
   outer loop
      vertex 1.75000000000003 7.4000000000001 3.6
      vertex 4.96836511144499 6.61858320049876 3.60000000000001
      vertex 4.90000000000006 7.4000000000001 3.60000000000001
   endloop
endfacet
facet normal -1.14178205386851e-016 7.41697203850249e-017 1.0
   outer loop
      vertex 4.96836511144499 6.61858320049876 3.60000000000001
      vertex 1.75000000000003 7.4000000000001 3.6
      vertex 5.70000000000006 0.0 3.60000000000001
   endloop
endfacet
facet normal -1.14178205386851e-016 7.41697203850249e-017 1.0
   outer loop
      vertex 4.96836511144499 6.61858320049876 3.60000000000001
      vertex 5.70000000000006 0.0 3.60000000000001
      vertex 5.17138320646353 5.86090935503454 3.60000000000001
   endloop
endfacet
facet normal -1.14178205386851e-016 7.41697203850249e-017 1.0
   outer loop
      vertex 5.17138320646353 5.86090935503454 3.60000000000001
      vertex 5.70000000000006 0.0 3.60000000000001
      vertex 5.50288568297009 5.14999999999997 3.60000000000001
   endloop
endfacet
facet normal -1.14178205386851e-016 7.41697203850249e-017 1.0
   outer loop
      vertex 5.50288568297009 5.14999999999997 3.60000000000001
      vertex 5.70000000000006 0.0 3.60000000000001
      vertex 5.9528000059646 4.50745575641054 3.60000000000001
   endloop
endfacet
facet normal -1.14178205386851e-016 7.41697203850249e-017 1.0
   outer loop
      vertex 5.9528000059646 4.50745575641054 3.60000000000001
      vertex 5.70000000000006 0.0 3.60000000000001
      vertex 6.50745575641064 3.95280000596458 3.60000000000001
   endloop
endfacet
facet normal -1.14178205386851e-016 7.41697203850249e-017 1.0
   outer loop
      vertex 6.50745575641064 3.95280000596458 3.60000000000001
      vertex 5.70000000000006 0.0 3.60000000000001
      vertex 7.15000000000009 3.50288568297009 3.60000000000001
   endloop
endfacet
facet normal -1.14178205386851e-016 7.41697203850249e-017 1.0
   outer loop
      vertex 7.15000000000009 3.50288568297009 3.60000000000001
      vertex 5.70000000000006 0.0 3.60000000000001
      vertex 13.1 2.8199664825479e-015 3.60000000000001
   endloop
endfacet
facet normal -1.14178205386851e-016 7.41697203850249e-017 1.0
   outer loop
      vertex 7.15000000000009 3.50288568297009 3.60000000000001
      vertex 13.1 2.8199664825479e-015 3.60000000000001
      vertex 7.86090935503455 3.17138320646343 3.60000000000001
   endloop
endfacet
facet normal -1.14178205386851e-016 7.41697203850249e-017 1.0
   outer loop
      vertex 7.86090935503455 3.17138320646343 3.60000000000001
      vertex 13.1 2.8199664825479e-015 3.60000000000001
      vertex 8.61858320049877 2.96836511144516 3.60000000000001
   endloop
endfacet
facet normal -1.14178205386851e-016 7.41697203850249e-017 1.0
   outer loop
      vertex 8.61858320049877 2.96836511144516 3.60000000000001
      vertex 13.1 2.8199664825479e-015 3.60000000000001
      vertex 9.40000000000003 2.90000000000013 3.60000000000001
   endloop
endfacet
facet normal -1.14178205386851e-016 7.41697203850249e-017 1.0
   outer loop
      vertex 9.40000000000003 2.90000000000013 3.60000000000001
      vertex 13.1 2.8199664825479e-015 3.60000000000001
      vertex 10.1814167995012 2.96836511144516 3.60000000000001
   endloop
endfacet
facet normal -1.14178205386851e-016 7.41697203850249e-017 1.0
   outer loop
      vertex 10.1814167995012 2.96836511144516 3.60000000000001
      vertex 13.1 2.8199664825479e-015 3.60000000000001
      vertex 10.9390906449656 3.17138320646343 3.60000000000001
   endloop
endfacet
facet normal -1.14178205386851e-016 7.41697203850249e-017 1.0
   outer loop
      vertex 10.9390906449656 3.17138320646343 3.60000000000001
      vertex 13.1 2.8199664825479e-015 3.60000000000001
      vertex 11.6500000000001 3.50288568297 3.60000000000001
   endloop
endfacet
facet normal -1.14178205386851e-016 7.41697203850249e-017 1.0
   outer loop
      vertex 11.6500000000001 3.50288568297 3.60000000000001
      vertex 13.1 2.8199664825479e-015 3.60000000000001
      vertex 12.2925442435895 3.95280000596459 3.6
   endloop
endfacet
facet normal -1.14178205386851e-016 7.41697203850249e-017 1.0
   outer loop
      vertex 12.2925442435895 3.95280000596459 3.6
      vertex 13.1 2.8199664825479e-015 3.60000000000001
      vertex 12.8471999940355 4.50745575641054 3.6
   endloop
endfacet
facet normal -1.14178205386851e-016 7.41697203850249e-017 1.0
   outer loop
      vertex 12.8471999940355 4.50745575641054 3.6
      vertex 13.1 2.8199664825479e-015 3.60000000000001
      vertex 13.2971143170299 5.14999999999999 3.6
   endloop
endfacet
facet normal -1.14178205386851e-016 7.41697203850249e-017 1.0
   outer loop
      vertex 13.2971143170299 5.14999999999999 3.6
      vertex 13.1 2.8199664825479e-015 3.60000000000001
      vertex 17.05 7.40000000000011 3.60000000000001
   endloop
endfacet
facet normal -1.14178205386851e-016 7.41697203850249e-017 1.0
   outer loop
      vertex 13.2971143170299 5.14999999999999 3.6
      vertex 17.05 7.40000000000011 3.60000000000001
      vertex 13.6286167935366 5.86090935503454 3.6
   endloop
endfacet
facet normal -1.14178205386851e-016 7.41697203850249e-017 1.0
   outer loop
      vertex 13.6286167935366 5.86090935503454 3.6
      vertex 17.05 7.40000000000011 3.60000000000001
      vertex 13.831634888555 6.61858320049885 3.6
   endloop
endfacet
facet normal -1.14178205386851e-016 7.41697203850249e-017 1.0
   outer loop
      vertex 13.831634888555 6.61858320049885 3.6
      vertex 17.05 7.40000000000011 3.60000000000001
      vertex 13.9 7.40000000000011 3.6
   endloop
endfacet
facet normal -1.14178205386851e-016 7.41697203850249e-017 1.0
   outer loop
      vertex 1.75000000000003 7.4000000000001 3.6
      vertex 4.96836511144499 8.18141679950127 3.60000000000001
      vertex 5.70000000000006 14.8000000000001 3.6
   endloop
endfacet
facet normal -1.14178205386851e-016 7.41697203850249e-017 1.0
   outer loop
      vertex 4.96836511144499 8.18141679950127 3.60000000000001
      vertex 1.75000000000003 7.4000000000001 3.6
      vertex 4.90000000000006 7.4000000000001 3.60000000000001
   endloop
endfacet
facet normal -1.14178205386851e-016 7.41697203850249e-017 1.0
   outer loop
      vertex 5.70000000000006 14.8000000000001 3.6
      vertex 4.96836511144499 8.18141679950127 3.60000000000001
      vertex 5.17138320646344 8.93909064496548 3.60000000000001
   endloop
endfacet
facet normal -1.14178205386851e-016 7.41697203850249e-017 1.0
   outer loop
      vertex 5.70000000000006 14.8000000000001 3.6
      vertex 5.17138320646344 8.93909064496548 3.60000000000001
      vertex 5.50288568297009 9.65000000000013 3.60000000000001
   endloop
endfacet
facet normal -1.14178205386851e-016 7.41697203850249e-017 1.0
   outer loop
      vertex 5.70000000000006 14.8000000000001 3.6
      vertex 5.50288568297009 9.65000000000013 3.60000000000001
      vertex 5.9528000059646 10.2925442435894 3.60000000000001
   endloop
endfacet
facet normal -1.14178205386851e-016 7.41697203850249e-017 1.0
   outer loop
      vertex 5.70000000000006 14.8000000000001 3.6
      vertex 5.9528000059646 10.2925442435894 3.60000000000001
      vertex 6.50745575641056 10.8471999940355 3.6
   endloop
endfacet
facet normal -1.14178205386851e-016 7.41697203850249e-017 1.0
   outer loop
      vertex 5.70000000000006 14.8000000000001 3.6
      vertex 6.50745575641056 10.8471999940355 3.6
      vertex 7.15 11.2971143170298 3.6
   endloop
endfacet
facet normal -1.14178205386851e-016 7.41697203850249e-017 1.0
   outer loop
      vertex 5.70000000000006 14.8000000000001 3.6
      vertex 7.15 11.2971143170298 3.6
      vertex 13.1 14.8 3.6
   endloop
endfacet
facet normal -1.14178205386851e-016 7.41697203850249e-017 1.0
   outer loop
      vertex 13.1 14.8 3.6
      vertex 7.15 11.2971143170298 3.6
      vertex 7.86090935503455 11.6286167935366 3.6
   endloop
endfacet
facet normal -1.14178205386851e-016 7.41697203850249e-017 1.0
   outer loop
      vertex 13.1 14.8 3.6
      vertex 7.86090935503455 11.6286167935366 3.6
      vertex 8.61858320049877 11.831634888555 3.6
   endloop
endfacet
facet normal -1.14178205386851e-016 7.41697203850249e-017 1.0
   outer loop
      vertex 13.1 14.8 3.6
      vertex 8.61858320049877 11.831634888555 3.6
      vertex 9.39999999999993 11.9 3.6
   endloop
endfacet
facet normal -1.14178205386851e-016 7.41697203850249e-017 1.0
   outer loop
      vertex 13.1 14.8 3.6
      vertex 9.39999999999993 11.9 3.6
      vertex 10.1814167995013 11.831634888555 3.6
   endloop
endfacet
facet normal -1.14178205386851e-016 7.41697203850249e-017 1.0
   outer loop
      vertex 13.1 14.8 3.6
      vertex 10.1814167995013 11.831634888555 3.6
      vertex 10.9390906449655 11.6286167935367 3.6
   endloop
endfacet
facet normal -1.14178205386851e-016 7.41697203850249e-017 1.0
   outer loop
      vertex 13.1 14.8 3.6
      vertex 10.9390906449655 11.6286167935367 3.6
      vertex 11.6500000000001 11.2971143170299 3.6
   endloop
endfacet
facet normal -1.14178205386851e-016 7.41697203850249e-017 1.0
   outer loop
      vertex 13.1 14.8 3.6
      vertex 11.6500000000001 11.2971143170299 3.6
      vertex 12.2925442435895 10.8471999940354 3.6
   endloop
endfacet
facet normal -1.14178205386851e-016 7.41697203850249e-017 1.0
   outer loop
      vertex 13.1 14.8 3.6
      vertex 12.2925442435895 10.8471999940354 3.6
      vertex 12.8471999940355 10.2925442435894 3.6
   endloop
endfacet
facet normal -1.14178205386851e-016 7.41697203850249e-017 1.0
   outer loop
      vertex 13.1 14.8 3.6
      vertex 12.8471999940355 10.2925442435894 3.6
      vertex 13.2971143170299 9.65000000000014 3.6
   endloop
endfacet
facet normal -1.14178205386851e-016 7.41697203850249e-017 1.0
   outer loop
      vertex 13.1 14.8 3.6
      vertex 13.2971143170299 9.65000000000014 3.6
      vertex 17.05 7.40000000000011 3.60000000000001
   endloop
endfacet
facet normal -1.14178205386851e-016 7.41697203850249e-017 1.0
   outer loop
      vertex 17.05 7.40000000000011 3.60000000000001
      vertex 13.2971143170299 9.65000000000014 3.6
      vertex 13.6286167935366 8.93909064496557 3.6
   endloop
endfacet
facet normal -1.14178205386851e-016 7.41697203850249e-017 1.0
   outer loop
      vertex 17.05 7.40000000000011 3.60000000000001
      vertex 13.6286167935366 8.93909064496557 3.6
      vertex 13.8316348885549 8.18141679950118 3.6
   endloop
endfacet
facet normal -1.14178205386851e-016 7.41697203850249e-017 1.0
   outer loop
      vertex 17.05 7.40000000000011 3.60000000000001
      vertex 13.8316348885549 8.18141679950118 3.6
      vertex 13.9 7.40000000000011 3.6
   endloop
endfacet
facet normal 0.882187884059863 -0.470897586761688 -1.82522564845281e-017
   outer loop
      vertex 5.70000000000006 14.8000000000001 3.6
      vertex 1.75000000000003 7.4000000000001 10.0
      vertex 1.75000000000003 7.4000000000001 3.6
   endloop
endfacet
facet normal 0.882187884059863 -0.470897586761688 -1.82522564845281e-017
   outer loop
      vertex 1.75000000000003 7.4000000000001 10.0
      vertex 5.70000000000006 14.8000000000001 3.6
      vertex 5.70000000000006 14.8000000000001 10.0
   endloop
endfacet
facet normal 0.882187884059866 0.470897586761682 -8.81049411647259e-017
   outer loop
      vertex 1.75000000000003 7.4000000000001 3.6
      vertex 5.70000000000006 0.0 10.0
      vertex 5.70000000000006 0.0 3.60000000000001
   endloop
endfacet
facet normal 0.882187884059866 0.470897586761682 -8.81049411647259e-017
   outer loop
      vertex 5.70000000000006 0.0 10.0
      vertex 1.75000000000003 7.4000000000001 3.6
      vertex 1.75000000000003 7.4000000000001 10.0
   endloop
endfacet
facet normal 1.27675647831893e-015 1.0 -9.55983343592187e-016
   outer loop
      vertex 0.0 14.8 4.23169596369287e-015
      vertex 5.70000000000006 14.8000000000001 3.6
      vertex 13.1 14.8 3.6
   endloop
endfacet
facet normal 1.27675647831893e-015 1.0 -9.55983343592187e-016
   outer loop
      vertex 5.70000000000006 14.8000000000001 3.6
      vertex 0.0 14.8 4.23169596369287e-015
      vertex 0.0 14.8 10.0
   endloop
endfacet
facet normal 1.27675647831893e-015 1.0 -9.55983343592187e-016
   outer loop
      vertex 5.70000000000006 14.8000000000001 3.6
      vertex 0.0 14.8 10.0
      vertex 5.70000000000006 14.8000000000001 10.0
   endloop
endfacet
facet normal 1.27675647831893e-015 1.0 -9.55983343592187e-016
   outer loop
      vertex 18.8 14.8 2.83730522045438e-015
      vertex 13.1 14.8 3.6
      vertex 18.8 14.8 10.0
   endloop
endfacet
facet normal 1.27675647831893e-015 1.0 -9.55983343592187e-016
   outer loop
      vertex 13.1 14.8 3.6
      vertex 18.8 14.8 2.83730522045438e-015
      vertex 0.0 14.8 4.23169596369287e-015
   endloop
endfacet
facet normal 1.27675647831893e-015 1.0 -9.55983343592187e-016
   outer loop
      vertex 18.8 14.8 10.0
      vertex 13.1 14.8 3.6
      vertex 13.1 14.8 10.0
   endloop
endfacet
facet normal -7.41697203850262e-017 -7.41697203850249e-017 -1.0
   outer loop
      vertex 0.0 14.8 4.23169596369287e-015
      vertex 5.50288568297009 9.65000000000013 5.92383065753493e-016
      vertex 9.02389274415327e-014 0.0 5.24122646307051e-015
   endloop
endfacet
facet normal -7.41697203850262e-017 -7.41697203850249e-017 -1.0
   outer loop
      vertex 5.50288568297009 9.65000000000013 5.92383065753493e-016
      vertex 0.0 14.8 4.23169596369287e-015
      vertex 5.9528000059646 10.2925442435894 5.11355719337749e-016
   endloop
endfacet
facet normal -7.41697203850262e-017 -7.41697203850249e-017 -1.0
   outer loop
      vertex 5.9528000059646 10.2925442435894 5.11355719337749e-016
      vertex 0.0 14.8 4.23169596369287e-015
      vertex 6.50745575641056 10.8471999940355 4.29078395496689e-016
   endloop
endfacet
facet normal -7.41697203850262e-017 -7.41697203850249e-017 -1.0
   outer loop
      vertex 6.50745575641056 10.8471999940355 4.29078395496689e-016
      vertex 0.0 14.8 4.23169596369287e-015
      vertex 7.15 11.2971143170298 3.48051049080946e-016
   endloop
endfacet
facet normal -7.41697203850262e-017 -7.41697203850249e-017 -1.0
   outer loop
      vertex 7.15 11.2971143170298 3.48051049080946e-016
      vertex 0.0 14.8 4.23169596369287e-015
      vertex 7.86090935503455 11.6286167935366 2.70735655009485e-016
   endloop
endfacet
facet normal -7.41697203850262e-017 -7.41697203850249e-017 -1.0
   outer loop
      vertex 7.86090935503455 11.6286167935366 2.70735655009485e-016
      vertex 0.0 14.8 4.23169596369287e-015
      vertex 18.8 14.8 2.83730522045438e-015
   endloop
endfacet
facet normal -7.41697203850262e-017 -7.41697203850249e-017 -1.0
   outer loop
      vertex 9.02389274415327e-014 0.0 5.24122646307051e-015
      vertex 5.50288568297009 9.65000000000013 5.92383065753493e-016
      vertex 5.17138320646344 8.93909064496548 6.69698459824953e-016
   endloop
endfacet
facet normal -7.41697203850262e-017 -7.41697203850249e-017 -1.0
   outer loop
      vertex 9.02389274415327e-014 0.0 5.24122646307051e-015
      vertex 5.17138320646344 8.93909064496548 6.69698459824953e-016
      vertex 4.96836511144499 8.18141679950127 7.40952712426699e-016
   endloop
endfacet
facet normal -7.41697203850262e-017 -7.41697203850249e-017 -1.0
   outer loop
      vertex 9.02389274415327e-014 0.0 5.24122646307051e-015
      vertex 4.96836511144499 8.18141679950127 7.40952712426699e-016
      vertex 4.90000000000006 7.4000000000001 8.03980799149824e-016
   endloop
endfacet
facet normal -7.41697203850262e-017 -7.41697203850249e-017 -1.0
   outer loop
      vertex 7.86090935503455 11.6286167935366 2.70735655009485e-016
      vertex 18.8 14.8 2.83730522045438e-015
      vertex 8.61858320049877 11.831634888555 1.99481402407744e-016
   endloop
endfacet
facet normal -7.41697203850262e-017 -7.41697203850249e-017 -1.0
   outer loop
      vertex 8.61858320049877 11.831634888555 1.99481402407744e-016
      vertex 18.8 14.8 2.83730522045438e-015
      vertex 9.39999999999993 11.9 1.36453315684612e-016
   endloop
endfacet
facet normal -7.41697203850262e-017 -7.41697203850249e-017 -1.0
   outer loop
      vertex 9.39999999999993 11.9 1.36453315684612e-016
      vertex 18.8 14.8 2.83730522045438e-015
      vertex 10.1814167995013 11.831634888555 8.35664713614037e-017
   endloop
endfacet
facet normal -7.41697203850262e-017 -7.41697203850249e-017 -1.0
   outer loop
      vertex 10.1814167995013 11.831634888555 8.35664713614037e-017
      vertex 18.8 14.8 2.83730522045438e-015
      vertex 10.9390906449655 11.6286167935367 4.24278094408805e-017
   endloop
endfacet
facet normal -7.41697203850262e-017 -7.41697203850249e-017 -1.0
   outer loop
      vertex 10.9390906449655 11.6286167935367 4.24278094408805e-017
      vertex 18.8 14.8 2.83730522045438e-015
      vertex 11.6500000000001 11.2971143170299 1.42873073483169e-017
   endloop
endfacet
facet normal -7.41697203850262e-017 -7.41697203850249e-017 -1.0
   outer loop
      vertex 11.6500000000001 11.2971143170299 1.42873073483169e-017
      vertex 18.8 14.8 2.83730522045438e-015
      vertex 12.2925442435895 10.8471999940354 0.0
   endloop
endfacet
facet normal -7.41697203850262e-017 -7.41697203850249e-017 -1.0
   outer loop
      vertex 12.2925442435895 10.8471999940354 0.0
      vertex 18.8 14.8 2.83730522045438e-015
      vertex 12.8471999940355 10.2925442435894 5.32234591991301e-030
   endloop
endfacet
facet normal -7.41697203850262e-017 -7.41697203850249e-017 -1.0
   outer loop
      vertex 12.8471999940355 10.2925442435894 5.32234591991301e-030
      vertex 18.8 14.8 2.83730522045438e-015
      vertex 13.2971143170299 9.65000000000014 1.42873073483143e-017
   endloop
endfacet
facet normal -7.41697203850262e-017 -7.41697203850249e-017 -1.0
   outer loop
      vertex 13.2971143170299 9.65000000000014 1.42873073483143e-017
      vertex 18.8 14.8 2.83730522045438e-015
      vertex 13.6286167935366 8.93909064496557 4.24278094408773e-017
   endloop
endfacet
facet normal -7.41697203850262e-017 -7.41697203850249e-017 -1.0
   outer loop
      vertex 13.6286167935366 8.93909064496557 4.24278094408773e-017
      vertex 18.8 14.8 2.83730522045438e-015
      vertex 13.8316348885549 8.18141679950118 8.3566471361413e-017
   endloop
endfacet
facet normal -7.41697203850262e-017 -7.41697203850249e-017 -1.0
   outer loop
      vertex 13.8316348885549 8.18141679950118 8.3566471361413e-017
      vertex 18.8 14.8 2.83730522045438e-015
      vertex 13.9 7.40000000000011 1.36453315684592e-016
   endloop
endfacet
facet normal -7.41697203850262e-017 -7.41697203850249e-017 -1.0
   outer loop
      vertex 13.9 7.40000000000011 1.36453315684592e-016
      vertex 18.8 14.8 2.83730522045438e-015
      vertex 18.7999999999998 2.8199664825479e-015 3.84683571983204e-015
   endloop
endfacet
facet normal -7.41697203850262e-017 -7.41697203850249e-017 -1.0
   outer loop
      vertex 9.02389274415327e-014 0.0 5.24122646307051e-015
      vertex 7.86090935503455 3.17138320646343 8.98006305393543e-016
      vertex 18.7999999999998 2.8199664825479e-015 3.84683571983204e-015
   endloop
endfacet
facet normal -7.41697203850262e-017 -7.41697203850249e-017 -1.0
   outer loop
      vertex 7.86090935503455 3.17138320646343 8.98006305393543e-016
      vertex 9.02389274415327e-014 0.0 5.24122646307051e-015
      vertex 7.15000000000009 3.50288568297009 9.26146807486106e-016
   endloop
endfacet
facet normal -7.41697203850262e-017 -7.41697203850249e-017 -1.0
   outer loop
      vertex 7.15000000000009 3.50288568297009 9.26146807486106e-016
      vertex 9.02389274415327e-014 0.0 5.24122646307051e-015
      vertex 6.50745575641064 3.95280000596458 9.40434114834424e-016
   endloop
endfacet
facet normal -7.41697203850262e-017 -7.41697203850249e-017 -1.0
   outer loop
      vertex 6.50745575641064 3.95280000596458 9.40434114834424e-016
      vertex 9.02389274415327e-014 0.0 5.24122646307051e-015
      vertex 5.9528000059646 4.50745575641054 9.40434114834431e-016
   endloop
endfacet
facet normal -7.41697203850262e-017 -7.41697203850249e-017 -1.0
   outer loop
      vertex 5.9528000059646 4.50745575641054 9.40434114834431e-016
      vertex 9.02389274415327e-014 0.0 5.24122646307051e-015
      vertex 5.50288568297009 5.14999999999997 9.26146807486116e-016
   endloop
endfacet
facet normal -7.41697203850262e-017 -7.41697203850249e-017 -1.0
   outer loop
      vertex 5.50288568297009 5.14999999999997 9.26146807486116e-016
      vertex 9.02389274415327e-014 0.0 5.24122646307051e-015
      vertex 5.17138320646353 5.86090935503454 8.9800630539354e-016
   endloop
endfacet
facet normal -7.41697203850262e-017 -7.41697203850249e-017 -1.0
   outer loop
      vertex 5.17138320646353 5.86090935503454 8.9800630539354e-016
      vertex 9.02389274415327e-014 0.0 5.24122646307051e-015
      vertex 4.96836511144499 6.61858320049876 8.56867643473037e-016
   endloop
endfacet
facet normal -7.41697203850262e-017 -7.41697203850249e-017 -1.0
   outer loop
      vertex 4.96836511144499 6.61858320049876 8.56867643473037e-016
      vertex 9.02389274415327e-014 0.0 5.24122646307051e-015
      vertex 4.90000000000006 7.4000000000001 8.03980799149824e-016
   endloop
endfacet
facet normal -7.41697203850262e-017 -7.41697203850249e-017 -1.0
   outer loop
      vertex 18.7999999999998 2.8199664825479e-015 3.84683571983204e-015
      vertex 7.86090935503455 3.17138320646343 8.98006305393543e-016
      vertex 8.61858320049877 2.96836511144516 8.56867643473019e-016
   endloop
endfacet
facet normal -7.41697203850262e-017 -7.41697203850249e-017 -1.0
   outer loop
      vertex 18.7999999999998 2.8199664825479e-015 3.84683571983204e-015
      vertex 8.61858320049877 2.96836511144516 8.56867643473019e-016
      vertex 9.40000000000003 2.90000000000013 8.03980799149818e-016
   endloop
endfacet
facet normal -7.41697203850262e-017 -7.41697203850249e-017 -1.0
   outer loop
      vertex 18.7999999999998 2.8199664825479e-015 3.84683571983204e-015
      vertex 9.40000000000003 2.90000000000013 8.03980799149818e-016
      vertex 10.1814167995012 2.96836511144516 7.40952712426685e-016
   endloop
endfacet
facet normal -7.41697203850262e-017 -7.41697203850249e-017 -1.0
   outer loop
      vertex 18.7999999999998 2.8199664825479e-015 3.84683571983204e-015
      vertex 10.1814167995012 2.96836511144516 7.40952712426685e-016
      vertex 10.9390906449656 3.17138320646343 6.69698459824939e-016
   endloop
endfacet
facet normal -7.41697203850262e-017 -7.41697203850249e-017 -1.0
   outer loop
      vertex 18.7999999999998 2.8199664825479e-015 3.84683571983204e-015
      vertex 10.9390906449656 3.17138320646343 6.69698459824939e-016
      vertex 11.6500000000001 3.50288568297 5.9238306575349e-016
   endloop
endfacet
facet normal -7.41697203850262e-017 -7.41697203850249e-017 -1.0
   outer loop
      vertex 18.7999999999998 2.8199664825479e-015 3.84683571983204e-015
      vertex 11.6500000000001 3.50288568297 5.9238306575349e-016
      vertex 12.2925442435895 3.95280000596459 5.11355719337734e-016
   endloop
endfacet
facet normal -7.41697203850262e-017 -7.41697203850249e-017 -1.0
   outer loop
      vertex 18.7999999999998 2.8199664825479e-015 3.84683571983204e-015
      vertex 12.2925442435895 3.95280000596459 5.11355719337734e-016
      vertex 12.8471999940355 4.50745575641054 4.29078395496688e-016
   endloop
endfacet
facet normal -7.41697203850262e-017 -7.41697203850249e-017 -1.0
   outer loop
      vertex 18.7999999999998 2.8199664825479e-015 3.84683571983204e-015
      vertex 12.8471999940355 4.50745575641054 4.29078395496688e-016
      vertex 13.2971143170299 5.14999999999999 3.48051049080938e-016
   endloop
endfacet
facet normal -7.41697203850262e-017 -7.41697203850249e-017 -1.0
   outer loop
      vertex 18.7999999999998 2.8199664825479e-015 3.84683571983204e-015
      vertex 13.2971143170299 5.14999999999999 3.48051049080938e-016
      vertex 13.6286167935366 5.86090935503454 2.70735655009477e-016
   endloop
endfacet
facet normal -7.41697203850262e-017 -7.41697203850249e-017 -1.0
   outer loop
      vertex 18.7999999999998 2.8199664825479e-015 3.84683571983204e-015
      vertex 13.6286167935366 5.86090935503454 2.70735655009477e-016
      vertex 13.831634888555 6.61858320049885 1.99481402407731e-016
   endloop
endfacet
facet normal -7.41697203850262e-017 -7.41697203850249e-017 -1.0
   outer loop
      vertex 18.7999999999998 2.8199664825479e-015 3.84683571983204e-015
      vertex 13.831634888555 6.61858320049885 1.99481402407731e-016
      vertex 13.9 7.40000000000011 1.36453315684592e-016
   endloop
endfacet
facet normal 0.0871557427476157 -0.996194698091749 6.74231651369694e-017
   outer loop
      vertex 9.39999999999993 11.9 3.6
      vertex 8.61858320049877 11.831634888555 1.99481402407744e-016
      vertex 9.39999999999993 11.9 1.36453315684612e-016
   endloop
endfacet
facet normal 0.0871557427476157 -0.996194698091749 6.74231651369694e-017
   outer loop
      vertex 8.61858320049877 11.831634888555 1.99481402407744e-016
      vertex 9.39999999999993 11.9 3.6
      vertex 8.61858320049877 11.831634888555 3.6
   endloop
endfacet
facet normal 0.258819045102557 -0.965925826289058 5.24459122429574e-017
   outer loop
      vertex 8.61858320049877 11.831634888555 3.6
      vertex 7.86090935503455 11.6286167935366 2.70735655009485e-016
      vertex 8.61858320049877 11.831634888555 1.99481402407744e-016
   endloop
endfacet
facet normal 0.258819045102557 -0.965925826289058 5.24459122429574e-017
   outer loop
      vertex 7.86090935503455 11.6286167935366 2.70735655009485e-016
      vertex 8.61858320049877 11.831634888555 3.6
      vertex 7.86090935503455 11.6286167935366 3.6
   endloop
endfacet
facet normal 0.96592582628903 -0.258819045102664 -5.24459122429489e-017
   outer loop
      vertex 5.17138320646344 8.93909064496548 6.69698459824953e-016
      vertex 4.96836511144499 8.18141679950127 3.60000000000001
      vertex 4.96836511144499 8.18141679950127 7.40952712426699e-016
   endloop
endfacet
facet normal 0.96592582628903 -0.258819045102664 -5.24459122429489e-017
   outer loop
      vertex 4.96836511144499 8.18141679950127 3.60000000000001
      vertex 5.17138320646344 8.93909064496548 6.69698459824953e-016
      vertex 5.17138320646344 8.93909064496548 3.60000000000001
   endloop
endfacet
facet normal 0.996194698091759 -0.0871557427475011 -6.742316513698e-017
   outer loop
      vertex 4.96836511144499 8.18141679950127 7.40952712426699e-016
      vertex 4.90000000000006 7.4000000000001 3.60000000000001
      vertex 4.90000000000006 7.4000000000001 8.03980799149824e-016
   endloop
endfacet
facet normal 0.996194698091759 -0.0871557427475011 -6.742316513698e-017
   outer loop
      vertex 4.90000000000006 7.4000000000001 3.60000000000001
      vertex 4.96836511144499 8.18141679950127 7.40952712426699e-016
      vertex 4.96836511144499 8.18141679950127 3.60000000000001
   endloop
endfacet
endsolid slide-coupling-block
