solid y-belt-nut-trap
facet normal 1.28912753487902e-014 -1.0 -2.00222931937013e-044
   outer loop
      vertex 8.148298351332 8.57217782649107 5.2
      vertex 4.64829835133194 8.57217782649102 2.0
      vertex 8.148298351332 8.57217782649107 2.0
   endloop
endfacet
facet normal 1.28912753487902e-014 -1.0 -2.00222931937013e-044
   outer loop
      vertex 4.64829835133194 8.57217782649102 2.0
      vertex 8.148298351332 8.57217782649107 5.2
      vertex 4.64829835133194 8.57217782649102 5.2
   endloop
endfacet
facet normal -1.80477854883067e-014 1.0 0.0
   outer loop
      vertex 5.148298351332 3.37602540378442 2.0
      vertex 7.64829835133197 3.37602540378447 5.63993296509579e-015
      vertex 5.148298351332 3.37602540378442 5.63993296509579e-015
   endloop
endfacet
facet normal -1.80477854883067e-014 1.0 0.0
   outer loop
      vertex 7.64829835133197 3.37602540378447 5.63993296509579e-015
      vertex 5.148298351332 3.37602540378442 2.0
      vertex 7.64829835133197 3.37602540378447 2.0
   endloop
endfacet
facet normal -1.28912753487907e-014 -1.0 0.0
   outer loop
      vertex 26.1482983513319 8.57217782649102 5.2
      vertex 22.648298351332 8.57217782649107 2.0
      vertex 26.1482983513319 8.57217782649102 2.0
   endloop
endfacet
facet normal -1.28912753487907e-014 -1.0 0.0
   outer loop
      vertex 22.648298351332 8.57217782649107 2.0
      vertex 26.1482983513319 8.57217782649102 5.2
      vertex 22.648298351332 8.57217782649107 5.2
   endloop
endfacet
facet normal 1.55675704331928e-014 -1.0 -2.4179024269793e-044
   outer loop
      vertex 30.5079215680691 6.04108891324559 5.2
      vertex 27.6096232167371 6.04108891324555 2.0
      vertex 30.5079215680691 6.04108891324559 2.0
   endloop
endfacet
facet normal 1.55675704331928e-014 -1.0 -2.4179024269793e-044
   outer loop
      vertex 27.6096232167371 6.04108891324555 2.0
      vertex 30.5079215680691 6.04108891324559 5.2
      vertex 27.6096232167371 6.04108891324555 5.2
   endloop
endfacet
facet normal -0.866025403784437 0.500000000000002 0.0
   outer loop
      vertex 21.1991491756661 11.0821778264912 5.2
      vertex 18.724574587833 6.79608891324557 7.04991620636974e-016
      vertex 18.724574587833 6.79608891324557 5.2
   endloop
endfacet
facet normal -0.866025403784437 0.500000000000002 0.0
   outer loop
      vertex 18.724574587833 6.79608891324557 7.04991620636974e-016
      vertex 21.1991491756661 11.0821778264912 5.2
      vertex 21.1991491756661 11.0821778264912 7.04991620636974e-016
   endloop
endfacet
facet normal 0.866025403784439 0.5 0.0
   outer loop
      vertex 3.89829835133197 5.54108891324557 5.63993296509579e-015
      vertex 5.148298351332 3.37602540378442 2.0
      vertex 5.148298351332 3.37602540378442 5.63993296509579e-015
   endloop
endfacet
facet normal 0.866025403784439 0.5 0.0
   outer loop
      vertex 5.148298351332 3.37602540378442 2.0
      vertex 3.89829835133197 5.54108891324557 5.63993296509579e-015
      vertex 3.89829835133197 5.54108891324557 2.0
   endloop
endfacet
facet normal 1.80477854883064e-014 -1.0 0.0
   outer loop
      vertex 25.648298351332 7.70615242270668 2.0
      vertex 23.148298351332 7.70615242270664 0.0
      vertex 25.648298351332 7.70615242270668 0.0
   endloop
endfacet
facet normal 1.80477854883064e-014 -1.0 0.0
   outer loop
      vertex 23.148298351332 7.70615242270664 0.0
      vertex 25.648298351332 7.70615242270668 2.0
      vertex 23.148298351332 7.70615242270664 2.0
   endloop
endfacet
facet normal 0.866025403784434 -0.500000000000008 0.0
   outer loop
      vertex 23.148298351332 7.70615242270664 0.0
      vertex 21.8982983513319 5.54108891324553 2.0
      vertex 21.8982983513319 5.54108891324553 0.0
   endloop
endfacet
facet normal 0.866025403784434 -0.500000000000008 0.0
   outer loop
      vertex 21.8982983513319 5.54108891324553 2.0
      vertex 23.148298351332 7.70615242270664 0.0
      vertex 23.148298351332 7.70615242270664 2.0
   endloop
endfacet
facet normal -0.866025403784438 0.500000000000002 1.0866959386992e-015
   outer loop
      vertex 3.19914917566604 11.0821778264912 5.2
      vertex 0.288675134594826 6.04108891324555 2.0
      vertex 0.288675134594826 6.04108891324555 5.2
   endloop
endfacet
facet normal -0.866025403784438 0.500000000000002 1.0866959386992e-015
   outer loop
      vertex 0.288675134594826 6.04108891324555 2.0
      vertex 3.19914917566604 11.0821778264912 5.2
      vertex 0.288675134594826 6.04108891324555 7.04991620636974e-016
   endloop
endfacet
facet normal -0.866025403784438 0.500000000000002 1.0866959386992e-015
   outer loop
      vertex 0.288675134594826 6.04108891324555 7.04991620636974e-016
      vertex 3.19914917566604 11.0821778264912 5.2
      vertex 3.19914917566604 11.0821778264912 7.04991620636974e-016
   endloop
endfacet
facet normal -0.866025403784438 0.500000000000002 1.0866959386992e-015
   outer loop
      vertex 0.288675134594826 6.04108891324555 2.0
      vertex 0.0 5.54108891324557 4.22994972382185e-015
      vertex 0.0 5.54108891324557 2.0
   endloop
endfacet
facet normal -0.866025403784438 0.500000000000002 1.0866959386992e-015
   outer loop
      vertex 0.0 5.54108891324557 4.22994972382185e-015
      vertex 0.288675134594826 6.04108891324555 2.0
      vertex 0.288675134594826 6.04108891324555 7.04991620636974e-016
   endloop
endfacet
facet normal 7.0517911549677e-015 1.0 0.0
   outer loop
      vertex 21.1991491756661 11.0821778264912 5.2
      vertex 27.5974475269979 11.0821778264911 7.04991620636974e-016
      vertex 21.1991491756661 11.0821778264912 7.04991620636974e-016
   endloop
endfacet
facet normal 7.0517911549677e-015 1.0 0.0
   outer loop
      vertex 27.5974475269979 11.0821778264911 7.04991620636974e-016
      vertex 21.1991491756661 11.0821778264912 5.2
      vertex 27.5974475269979 11.0821778264911 5.2
   endloop
endfacet
facet normal 0.0 0.0 1.0
   outer loop
      vertex 3.19914917566599 4.51194637207664e-014 5.2
      vertex 3.1869734859268 5.04108891324555 5.2
      vertex 0.288675134594826 5.04108891324555 5.2
   endloop
endfacet
facet normal 0.0 0.0 1.0
   outer loop
      vertex 3.1869734859268 5.04108891324555 5.2
      vertex 3.19914917566599 4.51194637207664e-014 5.2
      vertex 4.64829835133198 2.50999999999999 5.2
   endloop
endfacet
facet normal 0.0 0.0 1.0
   outer loop
      vertex 4.64829835133198 2.50999999999999 5.2
      vertex 3.19914917566599 4.51194637207664e-014 5.2
      vertex 9.59744752699794 9.02389274415327e-014 5.2
   endloop
endfacet
facet normal 0.0 0.0 1.0
   outer loop
      vertex 4.64829835133198 2.50999999999999 5.2
      vertex 9.59744752699794 9.02389274415327e-014 5.2
      vertex 8.148298351332 2.51000000000003 5.2
   endloop
endfacet
facet normal 0.0 0.0 1.0
   outer loop
      vertex 8.148298351332 2.51000000000003 5.2
      vertex 9.59744752699794 9.02389274415327e-014 5.2
      vertex 9.60962321673718 5.04108891324555 5.2
   endloop
endfacet
facet normal 0.0 0.0 1.0
   outer loop
      vertex 9.60962321673718 5.04108891324555 5.2
      vertex 9.59744752699794 9.02389274415327e-014 5.2
      vertex 12.0720221148309 4.28608891324562 5.2
   endloop
endfacet
facet normal 0.0 0.0 1.0
   outer loop
      vertex 9.60962321673718 5.04108891324555 5.2
      vertex 12.0720221148309 4.28608891324562 5.2
      vertex 9.89829835133196 5.54108891324557 5.2
   endloop
endfacet
facet normal 0.0 0.0 1.0
   outer loop
      vertex 21.1991491756661 4.51194637207664e-014 5.2
      vertex 20.898298351332 5.54108891324557 5.2
      vertex 18.7245745878331 4.28608891324562 5.2
   endloop
endfacet
facet normal 0.0 0.0 1.0
   outer loop
      vertex 20.898298351332 5.54108891324557 5.2
      vertex 21.1991491756661 4.51194637207664e-014 5.2
      vertex 21.1869734859268 5.04108891324551 5.2
   endloop
endfacet
facet normal 0.0 0.0 1.0
   outer loop
      vertex 21.1869734859268 5.04108891324551 5.2
      vertex 21.1991491756661 4.51194637207664e-014 5.2
      vertex 22.648298351332 2.51000000000008 5.2
   endloop
endfacet
facet normal 0.0 0.0 1.0
   outer loop
      vertex 22.648298351332 2.51000000000008 5.2
      vertex 21.1991491756661 4.51194637207664e-014 5.2
      vertex 27.5974475269979 0.0 5.2
   endloop
endfacet
facet normal 0.0 0.0 1.0
   outer loop
      vertex 22.648298351332 2.51000000000008 5.2
      vertex 27.5974475269979 0.0 5.2
      vertex 26.148298351332 2.50999999999999 5.2
   endloop
endfacet
facet normal 0.0 0.0 1.0
   outer loop
      vertex 26.148298351332 2.50999999999999 5.2
      vertex 27.5974475269979 0.0 5.2
      vertex 27.6096232167372 5.0410889132456 5.2
   endloop
endfacet
facet normal 0.0 0.0 1.0
   outer loop
      vertex 27.6096232167372 5.0410889132456 5.2
      vertex 27.5974475269979 0.0 5.2
      vertex 30.5079215680691 5.0410889132456 5.2
   endloop
endfacet
facet normal 0.0 0.0 1.0
   outer loop
      vertex 3.1869734859268 6.04108891324555 5.2
      vertex 3.19914917566604 11.0821778264912 5.2
      vertex 0.288675134594826 6.04108891324555 5.2
   endloop
endfacet
facet normal 0.0 0.0 1.0
   outer loop
      vertex 3.19914917566604 11.0821778264912 5.2
      vertex 3.1869734859268 6.04108891324555 5.2
      vertex 4.64829835133194 8.57217782649102 5.2
   endloop
endfacet
facet normal 0.0 0.0 1.0
   outer loop
      vertex 3.19914917566604 11.0821778264912 5.2
      vertex 4.64829835133194 8.57217782649102 5.2
      vertex 9.59744752699794 11.0821778264912 5.2
   endloop
endfacet
facet normal 0.0 0.0 1.0
   outer loop
      vertex 9.59744752699794 11.0821778264912 5.2
      vertex 4.64829835133194 8.57217782649102 5.2
      vertex 8.148298351332 8.57217782649107 5.2
   endloop
endfacet
facet normal 0.0 0.0 1.0
   outer loop
      vertex 9.59744752699794 11.0821778264912 5.2
      vertex 8.148298351332 8.57217782649107 5.2
      vertex 9.60962321673718 6.04108891324555 5.2
   endloop
endfacet
facet normal 0.0 0.0 1.0
   outer loop
      vertex 9.59744752699794 11.0821778264912 5.2
      vertex 9.60962321673718 6.04108891324555 5.2
      vertex 12.0720221148309 6.79608891324552 5.2
   endloop
endfacet
facet normal 0.0 0.0 1.0
   outer loop
      vertex 12.0720221148309 6.79608891324552 5.2
      vertex 9.60962321673718 6.04108891324555 5.2
      vertex 9.89829835133196 5.54108891324557 5.2
   endloop
endfacet
facet normal 0.0 0.0 1.0
   outer loop
      vertex 12.0720221148309 6.79608891324552 5.2
      vertex 9.89829835133196 5.54108891324557 5.2
      vertex 12.0720221148309 4.28608891324562 5.2
   endloop
endfacet
facet normal 0.0 0.0 1.0
   outer loop
      vertex 12.0720221148309 6.79608891324552 5.2
      vertex 12.0720221148309 4.28608891324562 5.2
      vertex 18.7245745878331 4.28608891324562 5.2
   endloop
endfacet
facet normal 0.0 0.0 1.0
   outer loop
      vertex 12.0720221148309 6.79608891324552 5.2
      vertex 18.7245745878331 4.28608891324562 5.2
      vertex 18.724574587833 6.79608891324557 5.2
   endloop
endfacet
facet normal 0.0 0.0 1.0
   outer loop
      vertex 18.724574587833 6.79608891324557 5.2
      vertex 18.7245745878331 4.28608891324562 5.2
      vertex 21.1991491756661 11.0821778264912 5.2
   endloop
endfacet
facet normal 0.0 0.0 1.0
   outer loop
      vertex 21.1991491756661 11.0821778264912 5.2
      vertex 18.7245745878331 4.28608891324562 5.2
      vertex 20.898298351332 5.54108891324557 5.2
   endloop
endfacet
facet normal 0.0 0.0 1.0
   outer loop
      vertex 21.1991491756661 11.0821778264912 5.2
      vertex 20.898298351332 5.54108891324557 5.2
      vertex 21.1869734859268 6.04108891324559 5.2
   endloop
endfacet
facet normal 0.0 0.0 1.0
   outer loop
      vertex 21.1991491756661 11.0821778264912 5.2
      vertex 21.1869734859268 6.04108891324559 5.2
      vertex 22.648298351332 8.57217782649107 5.2
   endloop
endfacet
facet normal 0.0 0.0 1.0
   outer loop
      vertex 21.1991491756661 11.0821778264912 5.2
      vertex 22.648298351332 8.57217782649107 5.2
      vertex 27.5974475269979 11.0821778264911 5.2
   endloop
endfacet
facet normal 0.0 0.0 1.0
   outer loop
      vertex 27.5974475269979 11.0821778264911 5.2
      vertex 22.648298351332 8.57217782649107 5.2
      vertex 26.1482983513319 8.57217782649102 5.2
   endloop
endfacet
facet normal 0.0 0.0 1.0
   outer loop
      vertex 27.5974475269979 11.0821778264911 5.2
      vertex 26.1482983513319 8.57217782649102 5.2
      vertex 27.6096232167371 6.04108891324555 5.2
   endloop
endfacet
facet normal 0.0 0.0 1.0
   outer loop
      vertex 27.5974475269979 11.0821778264911 5.2
      vertex 27.6096232167371 6.04108891324555 5.2
      vertex 30.5079215680691 6.04108891324559 5.2
   endloop
endfacet
facet normal 0.0 0.0 1.0
   outer loop
      vertex 21.1869734859268 5.04108891324551 2.0
      vertex 21.1869734859268 6.04108891324559 2.0
      vertex 20.898298351332 5.54108891324557 2.0
   endloop
endfacet
facet normal 0.0 0.0 1.0
   outer loop
      vertex 21.1869734859268 6.04108891324559 2.0
      vertex 21.1869734859268 5.04108891324551 2.0
      vertex 22.648298351332 2.51000000000008 2.0
   endloop
endfacet
facet normal 0.0 0.0 1.0
   outer loop
      vertex 21.1869734859268 6.04108891324559 2.0
      vertex 22.648298351332 2.51000000000008 2.0
      vertex 21.8982983513319 5.54108891324553 2.0
   endloop
endfacet
facet normal 0.0 0.0 1.0
   outer loop
      vertex 21.8982983513319 5.54108891324553 2.0
      vertex 22.648298351332 2.51000000000008 2.0
      vertex 23.148298351332 3.37602540378447 2.0
   endloop
endfacet
facet normal 0.0 0.0 1.0
   outer loop
      vertex 23.148298351332 3.37602540378447 2.0
      vertex 22.648298351332 2.51000000000008 2.0
      vertex 26.148298351332 2.50999999999999 2.0
   endloop
endfacet
facet normal 0.0 0.0 1.0
   outer loop
      vertex 23.148298351332 3.37602540378447 2.0
      vertex 26.148298351332 2.50999999999999 2.0
      vertex 25.648298351332 3.37602540378442 2.0
   endloop
endfacet
facet normal 0.0 0.0 1.0
   outer loop
      vertex 25.648298351332 3.37602540378442 2.0
      vertex 26.148298351332 2.50999999999999 2.0
      vertex 26.898298351332 5.54108891324557 2.0
   endloop
endfacet
facet normal 0.0 0.0 1.0
   outer loop
      vertex 26.898298351332 5.54108891324557 2.0
      vertex 26.148298351332 2.50999999999999 2.0
      vertex 27.6096232167372 5.0410889132456 2.0
   endloop
endfacet
facet normal 0.0 0.0 1.0
   outer loop
      vertex 26.898298351332 5.54108891324557 2.0
      vertex 27.6096232167372 5.0410889132456 2.0
      vertex 27.6096232167371 6.04108891324555 2.0
   endloop
endfacet
facet normal 0.0 0.0 1.0
   outer loop
      vertex 27.6096232167371 6.04108891324555 2.0
      vertex 27.6096232167372 5.0410889132456 2.0
      vertex 30.5079215680691 6.04108891324559 2.0
   endloop
endfacet
facet normal 0.0 0.0 1.0
   outer loop
      vertex 30.5079215680691 6.04108891324559 2.0
      vertex 27.6096232167372 5.0410889132456 2.0
      vertex 30.5079215680691 5.0410889132456 2.0
   endloop
endfacet
facet normal 0.0 0.0 1.0
   outer loop
      vertex 30.5079215680691 6.04108891324559 2.0
      vertex 30.5079215680691 5.0410889132456 2.0
      vertex 30.7965967026639 5.54108891324562 2.0
   endloop
endfacet
facet normal 0.0 0.0 1.0
   outer loop
      vertex 21.8982983513319 5.54108891324553 2.0
      vertex 22.648298351332 8.57217782649107 2.0
      vertex 21.1869734859268 6.04108891324559 2.0
   endloop
endfacet
facet normal 0.0 0.0 1.0
   outer loop
      vertex 22.648298351332 8.57217782649107 2.0
      vertex 21.8982983513319 5.54108891324553 2.0
      vertex 23.148298351332 7.70615242270664 2.0
   endloop
endfacet
facet normal 0.0 0.0 1.0
   outer loop
      vertex 22.648298351332 8.57217782649107 2.0
      vertex 23.148298351332 7.70615242270664 2.0
      vertex 26.1482983513319 8.57217782649102 2.0
   endloop
endfacet
facet normal 0.0 0.0 1.0
   outer loop
      vertex 26.1482983513319 8.57217782649102 2.0
      vertex 23.148298351332 7.70615242270664 2.0
      vertex 25.648298351332 7.70615242270668 2.0
   endloop
endfacet
facet normal 0.0 0.0 1.0
   outer loop
      vertex 26.1482983513319 8.57217782649102 2.0
      vertex 25.648298351332 7.70615242270668 2.0
      vertex 26.898298351332 5.54108891324557 2.0
   endloop
endfacet
facet normal 0.0 0.0 1.0
   outer loop
      vertex 26.1482983513319 8.57217782649102 2.0
      vertex 26.898298351332 5.54108891324557 2.0
      vertex 27.6096232167371 6.04108891324555 2.0
   endloop
endfacet
facet normal 0.866025403784437 0.500000000000003 1.08669593869924e-015
   outer loop
      vertex 30.5079215680691 6.04108891324559 7.04991620636974e-016
      vertex 30.7965967026639 5.54108891324562 2.0
      vertex 30.7965967026639 5.54108891324562 7.04991620636974e-016
   endloop
endfacet
facet normal 0.866025403784437 0.500000000000003 1.08669593869924e-015
   outer loop
      vertex 30.7965967026639 5.54108891324562 2.0
      vertex 30.5079215680691 6.04108891324559 7.04991620636974e-016
      vertex 30.5079215680691 6.04108891324559 2.0
   endloop
endfacet
facet normal 0.866025403784437 0.500000000000003 1.08669593869924e-015
   outer loop
      vertex 30.5079215680691 6.04108891324559 2.0
      vertex 30.5079215680691 6.04108891324559 7.04991620636974e-016
      vertex 27.5974475269979 11.0821778264911 7.04991620636974e-016
   endloop
endfacet
facet normal 0.866025403784437 0.500000000000003 1.08669593869924e-015
   outer loop
      vertex 30.5079215680691 6.04108891324559 2.0
      vertex 27.5974475269979 11.0821778264911 7.04991620636974e-016
      vertex 30.5079215680691 6.04108891324559 5.2
   endloop
endfacet
facet normal 0.866025403784437 0.500000000000003 1.08669593869924e-015
   outer loop
      vertex 30.5079215680691 6.04108891324559 5.2
      vertex 27.5974475269979 11.0821778264911 7.04991620636974e-016
      vertex 27.5974475269979 11.0821778264911 5.2
   endloop
endfacet
facet normal 2.5782550697581e-014 1.0 4.00445863874036e-044
   outer loop
      vertex 22.648298351332 2.51000000000008 5.2
      vertex 26.148298351332 2.50999999999999 2.0
      vertex 22.648298351332 2.51000000000008 2.0
   endloop
endfacet
facet normal 2.5782550697581e-014 1.0 4.00445863874036e-044
   outer loop
      vertex 26.148298351332 2.50999999999999 2.0
      vertex 22.648298351332 2.51000000000008 5.2
      vertex 26.148298351332 2.50999999999999 5.2
   endloop
endfacet
facet normal -0.866025403784454 0.499999999999973 0.0
   outer loop
      vertex 26.898298351332 5.54108891324557 2.0
      vertex 25.648298351332 3.37602540378442 0.0
      vertex 25.648298351332 3.37602540378442 2.0
   endloop
endfacet
facet normal -0.866025403784454 0.499999999999973 0.0
   outer loop
      vertex 25.648298351332 3.37602540378442 0.0
      vertex 26.898298351332 5.54108891324557 2.0
      vertex 26.898298351332 5.54108891324557 0.0
   endloop
endfacet
facet normal -0.866025403784442 -0.499999999999994 0.0
   outer loop
      vertex 25.648298351332 7.70615242270668 2.0
      vertex 26.898298351332 5.54108891324557 0.0
      vertex 26.898298351332 5.54108891324557 2.0
   endloop
endfacet
facet normal -0.866025403784442 -0.499999999999994 0.0
   outer loop
      vertex 26.898298351332 5.54108891324557 0.0
      vertex 25.648298351332 7.70615242270668 2.0
      vertex 25.648298351332 7.70615242270668 0.0
   endloop
endfacet
facet normal 0.86602540378443 0.500000000000016 0.0
   outer loop
      vertex 21.8982983513319 5.54108891324553 0.0
      vertex 23.148298351332 3.37602540378447 2.0
      vertex 23.148298351332 3.37602540378447 0.0
   endloop
endfacet
facet normal 0.86602540378443 0.500000000000016 0.0
   outer loop
      vertex 23.148298351332 3.37602540378447 2.0
      vertex 21.8982983513319 5.54108891324553 0.0
      vertex 21.8982983513319 5.54108891324553 2.0
   endloop
endfacet
facet normal 1.80477854883061e-014 1.0 0.0
   outer loop
      vertex 23.148298351332 3.37602540378447 2.0
      vertex 25.648298351332 3.37602540378442 0.0
      vertex 23.148298351332 3.37602540378447 0.0
   endloop
endfacet
facet normal 1.80477854883061e-014 1.0 0.0
   outer loop
      vertex 25.648298351332 3.37602540378442 0.0
      vertex 23.148298351332 3.37602540378447 2.0
      vertex 25.648298351332 3.37602540378442 2.0
   endloop
endfacet
facet normal -0.866025403784434 -0.500000000000008 0.0
   outer loop
      vertex 7.64829835133197 7.70615242270673 2.0
      vertex 8.89829835133201 5.54108891324562 5.63993296509579e-015
      vertex 8.89829835133201 5.54108891324562 2.0
   endloop
endfacet
facet normal -0.866025403784434 -0.500000000000008 0.0
   outer loop
      vertex 8.89829835133201 5.54108891324562 5.63993296509579e-015
      vertex 7.64829835133197 7.70615242270673 2.0
      vertex 7.64829835133197 7.70615242270673 5.63993296509579e-015
   endloop
endfacet
facet normal 0.866025403784454 -0.499999999999973 0.0
   outer loop
      vertex 5.14829835133191 7.70615242270673 5.63993296509579e-015
      vertex 3.89829835133197 5.54108891324557 2.0
      vertex 3.89829835133197 5.54108891324557 5.63993296509579e-015
   endloop
endfacet
facet normal 0.866025403784454 -0.499999999999973 0.0
   outer loop
      vertex 3.89829835133197 5.54108891324557 2.0
      vertex 5.14829835133191 7.70615242270673 5.63993296509579e-015
      vertex 5.14829835133191 7.70615242270673 2.0
   endloop
endfacet
facet normal 0.0 1.0 0.0
   outer loop
      vertex 3.19914917566604 11.0821778264912 5.2
      vertex 9.59744752699794 11.0821778264912 7.04991620636974e-016
      vertex 3.19914917566604 11.0821778264912 7.04991620636974e-016
   endloop
endfacet
facet normal 0.0 1.0 0.0
   outer loop
      vertex 9.59744752699794 11.0821778264912 7.04991620636974e-016
      vertex 3.19914917566604 11.0821778264912 5.2
      vertex 9.59744752699794 11.0821778264912 5.2
   endloop
endfacet
facet normal 7.0517911549676e-015 -1.0 0.0
   outer loop
      vertex 9.59744752699794 9.02389274415327e-014 5.2
      vertex 3.19914917566599 4.51194637207664e-014 7.04991620636974e-016
      vertex 9.59744752699794 9.02389274415327e-014 7.04991620636974e-016
   endloop
endfacet
facet normal 7.0517911549676e-015 -1.0 0.0
   outer loop
      vertex 3.19914917566599 4.51194637207664e-014 7.04991620636974e-016
      vertex 9.59744752699794 9.02389274415327e-014 5.2
      vertex 3.19914917566599 4.51194637207664e-014 5.2
   endloop
endfacet
facet normal 0.0 1.0 0.0
   outer loop
      vertex 27.6096232167372 5.0410889132456 5.2
      vertex 30.5079215680691 5.0410889132456 2.0
      vertex 27.6096232167372 5.0410889132456 2.0
   endloop
endfacet
facet normal 0.0 1.0 0.0
   outer loop
      vertex 30.5079215680691 5.0410889132456 2.0
      vertex 27.6096232167372 5.0410889132456 5.2
      vertex 30.5079215680691 5.0410889132456 5.2
   endloop
endfacet
facet normal -1.28912753487903e-014 1.0 0.0
   outer loop
      vertex 4.64829835133198 2.50999999999999 5.2
      vertex 8.148298351332 2.51000000000003 2.0
      vertex 4.64829835133198 2.50999999999999 2.0
   endloop
endfacet
facet normal -1.28912753487903e-014 1.0 0.0
   outer loop
      vertex 8.148298351332 2.51000000000003 2.0
      vertex 4.64829835133198 2.50999999999999 5.2
      vertex 8.148298351332 2.51000000000003 5.2
   endloop
endfacet
facet normal -0.86602540378444 -0.499999999999999 -4.0922155136174e-030
   outer loop
      vertex 9.60962321673718 6.04108891324555 5.2
      vertex 9.89829835133196 5.54108891324557 2.0
      vertex 9.89829835133196 5.54108891324557 5.2
   endloop
endfacet
facet normal -0.86602540378444 -0.499999999999999 -4.0922155136174e-030
   outer loop
      vertex 9.89829835133196 5.54108891324557 2.0
      vertex 9.60962321673718 6.04108891324555 5.2
      vertex 9.60962321673718 6.04108891324555 2.0
   endloop
endfacet
facet normal -0.86602540378444 -0.499999999999999 -4.0922155136174e-030
   outer loop
      vertex 9.60962321673718 6.04108891324555 2.0
      vertex 9.60962321673718 6.04108891324555 5.2
      vertex 8.148298351332 8.57217782649107 5.2
   endloop
endfacet
facet normal -0.86602540378444 -0.499999999999999 -4.0922155136174e-030
   outer loop
      vertex 9.60962321673718 6.04108891324555 2.0
      vertex 8.148298351332 8.57217782649107 5.2
      vertex 8.148298351332 8.57217782649107 2.0
   endloop
endfacet
facet normal 0.866025403784435 -0.500000000000007 -2.61033665530906e-017
   outer loop
      vertex 21.1869734859268 6.04108891324559 2.0
      vertex 20.898298351332 5.54108891324557 5.2
      vertex 20.898298351332 5.54108891324557 2.0
   endloop
endfacet
facet normal 0.866025403784435 -0.500000000000007 -2.61033665530906e-017
   outer loop
      vertex 20.898298351332 5.54108891324557 5.2
      vertex 21.1869734859268 6.04108891324559 2.0
      vertex 21.1869734859268 6.04108891324559 5.2
   endloop
endfacet
facet normal 0.866025403784435 -0.500000000000007 -2.61033665530906e-017
   outer loop
      vertex 21.1869734859268 6.04108891324559 5.2
      vertex 21.1869734859268 6.04108891324559 2.0
      vertex 22.648298351332 8.57217782649107 2.0
   endloop
endfacet
facet normal 0.866025403784435 -0.500000000000007 -2.61033665530906e-017
   outer loop
      vertex 21.1869734859268 6.04108891324559 5.2
      vertex 22.648298351332 8.57217782649107 2.0
      vertex 22.648298351332 8.57217782649107 5.2
   endloop
endfacet
facet normal 0.0 -1.0 0.0
   outer loop
      vertex 3.1869734859268 6.04108891324555 5.2
      vertex 0.288675134594826 6.04108891324555 2.0
      vertex 3.1869734859268 6.04108891324555 2.0
   endloop
endfacet
facet normal 0.0 -1.0 0.0
   outer loop
      vertex 0.288675134594826 6.04108891324555 2.0
      vertex 3.1869734859268 6.04108891324555 5.2
      vertex 0.288675134594826 6.04108891324555 5.2
   endloop
endfacet
facet normal -0.866025403784442 0.499999999999995 1.94359481344539e-017
   outer loop
      vertex 9.60962321673718 5.04108891324555 5.2
      vertex 8.148298351332 2.51000000000003 2.0
      vertex 8.148298351332 2.51000000000003 5.2
   endloop
endfacet
facet normal -0.866025403784442 0.499999999999995 1.94359481344539e-017
   outer loop
      vertex 8.148298351332 2.51000000000003 2.0
      vertex 9.60962321673718 5.04108891324555 5.2
      vertex 9.60962321673718 5.04108891324555 2.0
   endloop
endfacet
facet normal -0.866025403784442 0.499999999999995 1.94359481344539e-017
   outer loop
      vertex 9.60962321673718 5.04108891324555 2.0
      vertex 9.60962321673718 5.04108891324555 5.2
      vertex 9.89829835133196 5.54108891324557 5.2
   endloop
endfacet
facet normal -0.866025403784442 0.499999999999995 1.94359481344539e-017
   outer loop
      vertex 9.60962321673718 5.04108891324555 2.0
      vertex 9.89829835133196 5.54108891324557 5.2
      vertex 9.89829835133196 5.54108891324557 2.0
   endloop
endfacet
facet normal -0.866025403784436 -0.500000000000005 -1.25993732023101e-016
   outer loop
      vertex 0.288675134594826 5.04108891324555 5.2
      vertex 3.19914917566599 4.51194637207664e-014 7.04991620636974e-016
      vertex 3.19914917566599 4.51194637207664e-014 5.2
   endloop
endfacet
facet normal -0.866025403784436 -0.500000000000005 -1.25993732023101e-016
   outer loop
      vertex 3.19914917566599 4.51194637207664e-014 7.04991620636974e-016
      vertex 0.288675134594826 5.04108891324555 5.2
      vertex 0.288675134594826 5.04108891324555 7.04991620636974e-016
   endloop
endfacet
facet normal -0.866025403784436 -0.500000000000005 -1.25993732023101e-016
   outer loop
      vertex 0.288675134594826 5.04108891324555 7.04991620636974e-016
      vertex 0.288675134594826 5.04108891324555 5.2
      vertex 0.288675134594826 5.04108891324555 2.0
   endloop
endfacet
facet normal -0.866025403784436 -0.500000000000005 -1.25993732023101e-016
   outer loop
      vertex 0.288675134594826 5.04108891324555 7.04991620636974e-016
      vertex 0.288675134594826 5.04108891324555 2.0
      vertex 0.0 5.54108891324557 2.0
   endloop
endfacet
facet normal -0.866025403784436 -0.500000000000005 -1.25993732023101e-016
   outer loop
      vertex 0.288675134594826 5.04108891324555 7.04991620636974e-016
      vertex 0.0 5.54108891324557 2.0
      vertex 0.0 5.54108891324557 4.22994972382185e-015
   endloop
endfacet
facet normal -2.51108385251846e-017 -2.11599648552014e-031 -1.0
   outer loop
      vertex 0.288675134594826 6.04108891324555 7.04991620636974e-016
      vertex 0.288675134594826 5.04108891324555 7.04991620636974e-016
      vertex 0.0 5.54108891324557 4.22994972382185e-015
   endloop
endfacet
facet normal -2.51108385251846e-017 -2.11599648552014e-031 -1.0
   outer loop
      vertex 0.288675134594826 5.04108891324555 7.04991620636974e-016
      vertex 0.288675134594826 6.04108891324555 7.04991620636974e-016
      vertex 3.19914917566604 11.0821778264912 7.04991620636974e-016
   endloop
endfacet
facet normal -2.51108385251846e-017 -2.11599648552014e-031 -1.0
   outer loop
      vertex 0.288675134594826 5.04108891324555 7.04991620636974e-016
      vertex 3.19914917566604 11.0821778264912 7.04991620636974e-016
      vertex 3.19914917566599 4.51194637207664e-014 7.04991620636974e-016
   endloop
endfacet
facet normal -2.51108385251846e-017 -2.11599648552014e-031 -1.0
   outer loop
      vertex 3.19914917566599 4.51194637207664e-014 7.04991620636974e-016
      vertex 3.19914917566604 11.0821778264912 7.04991620636974e-016
      vertex 3.89829835133197 5.54108891324557 5.63993296509579e-015
   endloop
endfacet
facet normal -2.51108385251846e-017 -2.11599648552014e-031 -1.0
   outer loop
      vertex 3.19914917566599 4.51194637207664e-014 7.04991620636974e-016
      vertex 3.89829835133197 5.54108891324557 5.63993296509579e-015
      vertex 5.148298351332 3.37602540378442 5.63993296509579e-015
   endloop
endfacet
facet normal -2.51108385251846e-017 -2.11599648552014e-031 -1.0
   outer loop
      vertex 3.19914917566599 4.51194637207664e-014 7.04991620636974e-016
      vertex 5.148298351332 3.37602540378442 5.63993296509579e-015
      vertex 9.59744752699794 9.02389274415327e-014 7.04991620636974e-016
   endloop
endfacet
facet normal -2.51108385251846e-017 -2.11599648552014e-031 -1.0
   outer loop
      vertex 9.59744752699794 9.02389274415327e-014 7.04991620636974e-016
      vertex 5.148298351332 3.37602540378442 5.63993296509579e-015
      vertex 7.64829835133197 3.37602540378447 5.63993296509579e-015
   endloop
endfacet
facet normal -2.51108385251846e-017 -2.11599648552014e-031 -1.0
   outer loop
      vertex 9.59744752699794 9.02389274415327e-014 7.04991620636974e-016
      vertex 7.64829835133197 3.37602540378447 5.63993296509579e-015
      vertex 8.89829835133201 5.54108891324562 5.63993296509579e-015
   endloop
endfacet
facet normal -2.51108385251846e-017 -2.11599648552014e-031 -1.0
   outer loop
      vertex 9.59744752699794 9.02389274415327e-014 7.04991620636974e-016
      vertex 8.89829835133201 5.54108891324562 5.63993296509579e-015
      vertex 9.59744752699794 11.0821778264912 7.04991620636974e-016
   endloop
endfacet
facet normal -2.51108385251846e-017 -2.11599648552014e-031 -1.0
   outer loop
      vertex 9.59744752699794 9.02389274415327e-014 7.04991620636974e-016
      vertex 9.59744752699794 11.0821778264912 7.04991620636974e-016
      vertex 12.0720221148309 6.79608891324552 7.04991620636974e-016
   endloop
endfacet
facet normal -2.51108385251846e-017 -2.11599648552014e-031 -1.0
   outer loop
      vertex 9.59744752699794 9.02389274415327e-014 7.04991620636974e-016
      vertex 12.0720221148309 6.79608891324552 7.04991620636974e-016
      vertex 12.0720221148309 4.28608891324562 7.04991620636974e-016
   endloop
endfacet
facet normal -2.51108385251846e-017 -2.11599648552014e-031 -1.0
   outer loop
      vertex 12.0720221148309 4.28608891324562 7.04991620636974e-016
      vertex 12.0720221148309 6.79608891324552 7.04991620636974e-016
      vertex 18.724574587833 6.79608891324557 7.04991620636974e-016
   endloop
endfacet
facet normal -2.51108385251846e-017 -2.11599648552014e-031 -1.0
   outer loop
      vertex 12.0720221148309 4.28608891324562 7.04991620636974e-016
      vertex 18.724574587833 6.79608891324557 7.04991620636974e-016
      vertex 18.7245745878331 4.28608891324562 7.04991620636974e-016
   endloop
endfacet
facet normal -2.51108385251846e-017 -2.11599648552014e-031 -1.0
   outer loop
      vertex 18.7245745878331 4.28608891324562 7.04991620636974e-016
      vertex 18.724574587833 6.79608891324557 7.04991620636974e-016
      vertex 21.1991491756661 11.0821778264912 7.04991620636974e-016
   endloop
endfacet
facet normal -2.51108385251846e-017 -2.11599648552014e-031 -1.0
   outer loop
      vertex 18.7245745878331 4.28608891324562 7.04991620636974e-016
      vertex 21.1991491756661 11.0821778264912 7.04991620636974e-016
      vertex 21.1991491756661 4.51194637207664e-014 7.04991620636974e-016
   endloop
endfacet
facet normal -2.51108385251846e-017 -2.11599648552014e-031 -1.0
   outer loop
      vertex 21.1991491756661 4.51194637207664e-014 7.04991620636974e-016
      vertex 21.1991491756661 11.0821778264912 7.04991620636974e-016
      vertex 21.8982983513319 5.54108891324553 0.0
   endloop
endfacet
facet normal -2.51108385251846e-017 -2.11599648552014e-031 -1.0
   outer loop
      vertex 21.8982983513319 5.54108891324553 0.0
      vertex 21.1991491756661 11.0821778264912 7.04991620636974e-016
      vertex 23.148298351332 7.70615242270664 0.0
   endloop
endfacet
facet normal -2.51108385251846e-017 -2.11599648552014e-031 -1.0
   outer loop
      vertex 23.148298351332 7.70615242270664 0.0
      vertex 21.1991491756661 11.0821778264912 7.04991620636974e-016
      vertex 27.5974475269979 11.0821778264911 7.04991620636974e-016
   endloop
endfacet
facet normal -2.51108385251846e-017 -2.11599648552014e-031 -1.0
   outer loop
      vertex 23.148298351332 7.70615242270664 0.0
      vertex 27.5974475269979 11.0821778264911 7.04991620636974e-016
      vertex 25.648298351332 7.70615242270668 0.0
   endloop
endfacet
facet normal -2.51108385251846e-017 -2.11599648552014e-031 -1.0
   outer loop
      vertex 25.648298351332 7.70615242270668 0.0
      vertex 27.5974475269979 11.0821778264911 7.04991620636974e-016
      vertex 26.898298351332 5.54108891324557 0.0
   endloop
endfacet
facet normal -2.51108385251846e-017 -2.11599648552014e-031 -1.0
   outer loop
      vertex 21.1991491756661 4.51194637207664e-014 7.04991620636974e-016
      vertex 23.148298351332 3.37602540378447 0.0
      vertex 27.5974475269979 0.0 7.04991620636974e-016
   endloop
endfacet
facet normal -2.51108385251846e-017 -2.11599648552014e-031 -1.0
   outer loop
      vertex 23.148298351332 3.37602540378447 0.0
      vertex 21.1991491756661 4.51194637207664e-014 7.04991620636974e-016
      vertex 21.8982983513319 5.54108891324553 0.0
   endloop
endfacet
facet normal -2.51108385251846e-017 -2.11599648552014e-031 -1.0
   outer loop
      vertex 27.5974475269979 0.0 7.04991620636974e-016
      vertex 23.148298351332 3.37602540378447 0.0
      vertex 25.648298351332 3.37602540378442 0.0
   endloop
endfacet
facet normal -2.51108385251846e-017 -2.11599648552014e-031 -1.0
   outer loop
      vertex 27.5974475269979 0.0 7.04991620636974e-016
      vertex 25.648298351332 3.37602540378442 0.0
      vertex 26.898298351332 5.54108891324557 0.0
   endloop
endfacet
facet normal -2.51108385251846e-017 -2.11599648552014e-031 -1.0
   outer loop
      vertex 27.5974475269979 0.0 7.04991620636974e-016
      vertex 26.898298351332 5.54108891324557 0.0
      vertex 27.5974475269979 11.0821778264911 7.04991620636974e-016
   endloop
endfacet
facet normal -2.51108385251846e-017 -2.11599648552014e-031 -1.0
   outer loop
      vertex 27.5974475269979 0.0 7.04991620636974e-016
      vertex 27.5974475269979 11.0821778264911 7.04991620636974e-016
      vertex 30.5079215680691 6.04108891324559 7.04991620636974e-016
   endloop
endfacet
facet normal -2.51108385251846e-017 -2.11599648552014e-031 -1.0
   outer loop
      vertex 27.5974475269979 0.0 7.04991620636974e-016
      vertex 30.5079215680691 6.04108891324559 7.04991620636974e-016
      vertex 30.5079215680691 5.0410889132456 7.04991620636974e-016
   endloop
endfacet
facet normal -2.51108385251846e-017 -2.11599648552014e-031 -1.0
   outer loop
      vertex 30.5079215680691 5.0410889132456 7.04991620636974e-016
      vertex 30.5079215680691 6.04108891324559 7.04991620636974e-016
      vertex 30.7965967026639 5.54108891324562 7.04991620636974e-016
   endloop
endfacet
facet normal -2.51108385251846e-017 -2.11599648552014e-031 -1.0
   outer loop
      vertex 3.19914917566604 11.0821778264912 7.04991620636974e-016
      vertex 5.14829835133191 7.70615242270673 5.63993296509579e-015
      vertex 3.89829835133197 5.54108891324557 5.63993296509579e-015
   endloop
endfacet
facet normal -2.51108385251846e-017 -2.11599648552014e-031 -1.0
   outer loop
      vertex 5.14829835133191 7.70615242270673 5.63993296509579e-015
      vertex 3.19914917566604 11.0821778264912 7.04991620636974e-016
      vertex 9.59744752699794 11.0821778264912 7.04991620636974e-016
   endloop
endfacet
facet normal -2.51108385251846e-017 -2.11599648552014e-031 -1.0
   outer loop
      vertex 5.14829835133191 7.70615242270673 5.63993296509579e-015
      vertex 9.59744752699794 11.0821778264912 7.04991620636974e-016
      vertex 7.64829835133197 7.70615242270673 5.63993296509579e-015
   endloop
endfacet
facet normal -2.51108385251846e-017 -2.11599648552014e-031 -1.0
   outer loop
      vertex 7.64829835133197 7.70615242270673 5.63993296509579e-015
      vertex 9.59744752699794 11.0821778264912 7.04991620636974e-016
      vertex 8.89829835133201 5.54108891324562 5.63993296509579e-015
   endloop
endfacet
facet normal 0.866025403784442 0.499999999999995 1.34508138866128e-030
   outer loop
      vertex 3.1869734859268 5.04108891324555 2.0
      vertex 4.64829835133198 2.50999999999999 5.2
      vertex 4.64829835133198 2.50999999999999 2.0
   endloop
endfacet
facet normal 0.866025403784442 0.499999999999995 1.34508138866128e-030
   outer loop
      vertex 4.64829835133198 2.50999999999999 5.2
      vertex 3.1869734859268 5.04108891324555 2.0
      vertex 3.1869734859268 5.04108891324555 5.2
   endloop
endfacet
facet normal 0.866025403784441 -0.499999999999996 0.0
   outer loop
      vertex 4.64829835133194 8.57217782649102 2.0
      vertex 3.1869734859268 6.04108891324555 5.2
      vertex 3.1869734859268 6.04108891324555 2.0
   endloop
endfacet
facet normal 0.866025403784441 -0.499999999999996 0.0
   outer loop
      vertex 3.1869734859268 6.04108891324555 5.2
      vertex 4.64829835133194 8.57217782649102 2.0
      vertex 4.64829835133194 8.57217782649102 5.2
   endloop
endfacet
facet normal -0.866025403784439 0.5 0.0
   outer loop
      vertex 8.89829835133201 5.54108891324562 2.0
      vertex 7.64829835133197 3.37602540378447 5.63993296509579e-015
      vertex 7.64829835133197 3.37602540378447 2.0
   endloop
endfacet
facet normal -0.866025403784439 0.5 0.0
   outer loop
      vertex 7.64829835133197 3.37602540378447 5.63993296509579e-015
      vertex 8.89829835133201 5.54108891324562 2.0
      vertex 8.89829835133201 5.54108891324562 5.63993296509579e-015
   endloop
endfacet
facet normal 0.866025403784425 0.500000000000023 1.82157258750203e-017
   outer loop
      vertex 21.1869734859268 5.04108891324551 2.0
      vertex 22.648298351332 2.51000000000008 5.2
      vertex 22.648298351332 2.51000000000008 2.0
   endloop
endfacet
facet normal 0.866025403784425 0.500000000000023 1.82157258750203e-017
   outer loop
      vertex 22.648298351332 2.51000000000008 5.2
      vertex 21.1869734859268 5.04108891324551 2.0
      vertex 21.1869734859268 5.04108891324551 5.2
   endloop
endfacet
facet normal 0.866025403784425 0.500000000000023 1.82157258750203e-017
   outer loop
      vertex 21.1869734859268 5.04108891324551 5.2
      vertex 21.1869734859268 5.04108891324551 2.0
      vertex 20.898298351332 5.54108891324557 2.0
   endloop
endfacet
facet normal 0.866025403784425 0.500000000000023 1.82157258750203e-017
   outer loop
      vertex 21.1869734859268 5.04108891324551 5.2
      vertex 20.898298351332 5.54108891324557 2.0
      vertex 20.898298351332 5.54108891324557 5.2
   endloop
endfacet
facet normal -0.866025403784427 -0.500000000000019 0.0
   outer loop
      vertex 26.1482983513319 8.57217782649102 5.2
      vertex 27.6096232167371 6.04108891324555 2.0
      vertex 27.6096232167371 6.04108891324555 5.2
   endloop
endfacet
facet normal -0.866025403784427 -0.500000000000019 0.0
   outer loop
      vertex 27.6096232167371 6.04108891324555 2.0
      vertex 26.1482983513319 8.57217782649102 5.2
      vertex 26.1482983513319 8.57217782649102 2.0
   endloop
endfacet
facet normal 0.0 -1.0 0.0
   outer loop
      vertex 18.7245745878331 4.28608891324562 5.2
      vertex 12.0720221148309 4.28608891324562 7.04991620636974e-016
      vertex 18.7245745878331 4.28608891324562 7.04991620636974e-016
   endloop
endfacet
facet normal 0.0 -1.0 0.0
   outer loop
      vertex 12.0720221148309 4.28608891324562 7.04991620636974e-016
      vertex 18.7245745878331 4.28608891324562 5.2
      vertex 12.0720221148309 4.28608891324562 5.2
   endloop
endfacet
facet normal 0.866025403784444 0.499999999999991 0.0
   outer loop
      vertex 9.59744752699794 11.0821778264912 7.04991620636974e-016
      vertex 12.0720221148309 6.79608891324552 5.2
      vertex 12.0720221148309 6.79608891324552 7.04991620636974e-016
   endloop
endfacet
facet normal 0.866025403784444 0.499999999999991 0.0
   outer loop
      vertex 12.0720221148309 6.79608891324552 5.2
      vertex 9.59744752699794 11.0821778264912 7.04991620636974e-016
      vertex 9.59744752699794 11.0821778264912 5.2
   endloop
endfacet
facet normal 0.0 -1.0 0.0
   outer loop
      vertex 7.64829835133197 7.70615242270673 2.0
      vertex 5.14829835133191 7.70615242270673 5.63993296509579e-015
      vertex 7.64829835133197 7.70615242270673 5.63993296509579e-015
   endloop
endfacet
facet normal 0.0 -1.0 0.0
   outer loop
      vertex 5.14829835133191 7.70615242270673 5.63993296509579e-015
      vertex 7.64829835133197 7.70615242270673 2.0
      vertex 5.14829835133191 7.70615242270673 2.0
   endloop
endfacet
facet normal 0.866025403784437 -0.500000000000003 0.0
   outer loop
      vertex 12.0720221148309 4.28608891324562 7.04991620636974e-016
      vertex 9.59744752699794 9.02389274415327e-014 5.2
      vertex 9.59744752699794 9.02389274415327e-014 7.04991620636974e-016
   endloop
endfacet
facet normal 0.866025403784437 -0.500000000000003 0.0
   outer loop
      vertex 9.59744752699794 9.02389274415327e-014 5.2
      vertex 12.0720221148309 4.28608891324562 7.04991620636974e-016
      vertex 12.0720221148309 4.28608891324562 5.2
   endloop
endfacet
facet normal 0.0 0.0 1.0
   outer loop
      vertex 0.288675134594826 5.04108891324555 2.0
      vertex 0.288675134594826 6.04108891324555 2.0
      vertex 0.0 5.54108891324557 2.0
   endloop
endfacet
facet normal 0.0 0.0 1.0
   outer loop
      vertex 0.288675134594826 6.04108891324555 2.0
      vertex 0.288675134594826 5.04108891324555 2.0
      vertex 3.1869734859268 5.04108891324555 2.0
   endloop
endfacet
facet normal 0.0 0.0 1.0
   outer loop
      vertex 0.288675134594826 6.04108891324555 2.0
      vertex 3.1869734859268 5.04108891324555 2.0
      vertex 3.1869734859268 6.04108891324555 2.0
   endloop
endfacet
facet normal 0.0 0.0 1.0
   outer loop
      vertex 3.1869734859268 6.04108891324555 2.0
      vertex 3.1869734859268 5.04108891324555 2.0
      vertex 4.64829835133198 2.50999999999999 2.0
   endloop
endfacet
facet normal 0.0 0.0 1.0
   outer loop
      vertex 3.1869734859268 6.04108891324555 2.0
      vertex 4.64829835133198 2.50999999999999 2.0
      vertex 3.89829835133197 5.54108891324557 2.0
   endloop
endfacet
facet normal 0.0 0.0 1.0
   outer loop
      vertex 3.89829835133197 5.54108891324557 2.0
      vertex 4.64829835133198 2.50999999999999 2.0
      vertex 5.148298351332 3.37602540378442 2.0
   endloop
endfacet
facet normal 0.0 0.0 1.0
   outer loop
      vertex 5.148298351332 3.37602540378442 2.0
      vertex 4.64829835133198 2.50999999999999 2.0
      vertex 8.148298351332 2.51000000000003 2.0
   endloop
endfacet
facet normal 0.0 0.0 1.0
   outer loop
      vertex 5.148298351332 3.37602540378442 2.0
      vertex 8.148298351332 2.51000000000003 2.0
      vertex 7.64829835133197 3.37602540378447 2.0
   endloop
endfacet
facet normal 0.0 0.0 1.0
   outer loop
      vertex 7.64829835133197 3.37602540378447 2.0
      vertex 8.148298351332 2.51000000000003 2.0
      vertex 8.89829835133201 5.54108891324562 2.0
   endloop
endfacet
facet normal 0.0 0.0 1.0
   outer loop
      vertex 8.89829835133201 5.54108891324562 2.0
      vertex 8.148298351332 2.51000000000003 2.0
      vertex 9.60962321673718 5.04108891324555 2.0
   endloop
endfacet
facet normal 0.0 0.0 1.0
   outer loop
      vertex 3.89829835133197 5.54108891324557 2.0
      vertex 4.64829835133194 8.57217782649102 2.0
      vertex 3.1869734859268 6.04108891324555 2.0
   endloop
endfacet
facet normal 0.0 0.0 1.0
   outer loop
      vertex 4.64829835133194 8.57217782649102 2.0
      vertex 3.89829835133197 5.54108891324557 2.0
      vertex 5.14829835133191 7.70615242270673 2.0
   endloop
endfacet
facet normal 0.0 0.0 1.0
   outer loop
      vertex 4.64829835133194 8.57217782649102 2.0
      vertex 5.14829835133191 7.70615242270673 2.0
      vertex 8.148298351332 8.57217782649107 2.0
   endloop
endfacet
facet normal 0.0 0.0 1.0
   outer loop
      vertex 8.148298351332 8.57217782649107 2.0
      vertex 5.14829835133191 7.70615242270673 2.0
      vertex 7.64829835133197 7.70615242270673 2.0
   endloop
endfacet
facet normal 0.0 0.0 1.0
   outer loop
      vertex 8.148298351332 8.57217782649107 2.0
      vertex 7.64829835133197 7.70615242270673 2.0
      vertex 8.89829835133201 5.54108891324562 2.0
   endloop
endfacet
facet normal 0.0 0.0 1.0
   outer loop
      vertex 8.148298351332 8.57217782649107 2.0
      vertex 8.89829835133201 5.54108891324562 2.0
      vertex 9.60962321673718 6.04108891324555 2.0
   endloop
endfacet
facet normal 0.0 0.0 1.0
   outer loop
      vertex 9.60962321673718 6.04108891324555 2.0
      vertex 8.89829835133201 5.54108891324562 2.0
      vertex 9.60962321673718 5.04108891324555 2.0
   endloop
endfacet
facet normal 0.0 0.0 1.0
   outer loop
      vertex 9.60962321673718 6.04108891324555 2.0
      vertex 9.60962321673718 5.04108891324555 2.0
      vertex 9.89829835133196 5.54108891324557 2.0
   endloop
endfacet
facet normal -6.78227851698635e-015 1.0 0.0
   outer loop
      vertex 12.0720221148309 6.79608891324552 5.2
      vertex 18.724574587833 6.79608891324557 7.04991620636974e-016
      vertex 12.0720221148309 6.79608891324552 7.04991620636974e-016
   endloop
endfacet
facet normal -6.78227851698635e-015 1.0 0.0
   outer loop
      vertex 18.724574587833 6.79608891324557 7.04991620636974e-016
      vertex 12.0720221148309 6.79608891324552 5.2
      vertex 18.724574587833 6.79608891324557 5.2
   endloop
endfacet
facet normal -7.0517911549677e-015 -1.0 0.0
   outer loop
      vertex 27.5974475269979 0.0 5.2
      vertex 21.1991491756661 4.51194637207664e-014 7.04991620636974e-016
      vertex 27.5974475269979 0.0 7.04991620636974e-016
   endloop
endfacet
facet normal -7.0517911549677e-015 -1.0 0.0
   outer loop
      vertex 21.1991491756661 4.51194637207664e-014 7.04991620636974e-016
      vertex 27.5974475269979 0.0 5.2
      vertex 21.1991491756661 4.51194637207664e-014 5.2
   endloop
endfacet
facet normal -0.866025403784439 -0.499999999999999 0.0
   outer loop
      vertex 18.7245745878331 4.28608891324562 5.2
      vertex 21.1991491756661 4.51194637207664e-014 7.04991620636974e-016
      vertex 21.1991491756661 4.51194637207664e-014 5.2
   endloop
endfacet
facet normal -0.866025403784439 -0.499999999999999 0.0
   outer loop
      vertex 21.1991491756661 4.51194637207664e-014 7.04991620636974e-016
      vertex 18.7245745878331 4.28608891324562 5.2
      vertex 18.7245745878331 4.28608891324562 7.04991620636974e-016
   endloop
endfacet
facet normal -0.866025403784446 0.499999999999988 -1.34508138866129e-030
   outer loop
      vertex 27.6096232167372 5.0410889132456 5.2
      vertex 26.148298351332 2.50999999999999 2.0
      vertex 26.148298351332 2.50999999999999 5.2
   endloop
endfacet
facet normal -0.866025403784446 0.499999999999988 -1.34508138866129e-030
   outer loop
      vertex 26.148298351332 2.50999999999999 2.0
      vertex 27.6096232167372 5.0410889132456 5.2
      vertex 27.6096232167372 5.0410889132456 2.0
   endloop
endfacet
facet normal 0.86602540378444 -0.499999999999998 9.4495299017323e-017
   outer loop
      vertex 30.7965967026639 5.54108891324562 7.04991620636974e-016
      vertex 30.5079215680691 5.0410889132456 2.0
      vertex 30.5079215680691 5.0410889132456 7.04991620636974e-016
   endloop
endfacet
facet normal 0.86602540378444 -0.499999999999998 9.4495299017323e-017
   outer loop
      vertex 30.5079215680691 5.0410889132456 2.0
      vertex 30.7965967026639 5.54108891324562 7.04991620636974e-016
      vertex 30.7965967026639 5.54108891324562 2.0
   endloop
endfacet
facet normal 0.86602540378444 -0.499999999999998 9.4495299017323e-017
   outer loop
      vertex 30.5079215680691 5.0410889132456 7.04991620636974e-016
      vertex 27.5974475269979 0.0 5.2
      vertex 27.5974475269979 0.0 7.04991620636974e-016
   endloop
endfacet
facet normal 0.86602540378444 -0.499999999999998 9.4495299017323e-017
   outer loop
      vertex 27.5974475269979 0.0 5.2
      vertex 30.5079215680691 5.0410889132456 7.04991620636974e-016
      vertex 30.5079215680691 5.0410889132456 5.2
   endloop
endfacet
facet normal 0.86602540378444 -0.499999999999998 9.4495299017323e-017
   outer loop
      vertex 30.5079215680691 5.0410889132456 5.2
      vertex 30.5079215680691 5.0410889132456 7.04991620636974e-016
      vertex 30.5079215680691 5.0410889132456 2.0
   endloop
endfacet
facet normal 0.0 1.0 0.0
   outer loop
      vertex 0.288675134594826 5.04108891324555 5.2
      vertex 3.1869734859268 5.04108891324555 2.0
      vertex 0.288675134594826 5.04108891324555 2.0
   endloop
endfacet
facet normal 0.0 1.0 0.0
   outer loop
      vertex 3.1869734859268 5.04108891324555 2.0
      vertex 0.288675134594826 5.04108891324555 5.2
      vertex 3.1869734859268 5.04108891324555 5.2
   endloop
endfacet
endsolid y-belt-nut-trap
